<svg width="777" height="119" viewBox="0 0 777 119" fill="none" xmlns="http://www.w3.org/2000/svg">
<path d="M81.71 116V66.7H15.75V116H0.45V3.11999H15.75V52.42H81.71V3.11999H97.01V116H81.71ZM168.628 0.909992C176.788 0.909992 184.381 2.43999 191.408 5.49999C198.548 8.44666 204.724 12.5267 209.938 17.74C215.151 22.9533 219.231 29.1867 222.178 36.44C225.124 43.58 226.598 51.2867 226.598 59.56C226.598 67.9467 225.124 75.71 222.178 82.85C219.231 89.99 215.151 96.1667 209.938 101.38C204.724 106.593 198.548 110.73 191.408 113.79C184.381 116.737 176.788 118.21 168.628 118.21C160.468 118.21 152.818 116.737 145.678 113.79C138.651 110.73 132.531 106.593 127.318 101.38C122.104 96.1667 118.024 89.99 115.078 82.85C112.131 75.71 110.658 67.9467 110.658 59.56C110.658 51.2867 112.131 43.58 115.078 36.44C118.024 29.1867 122.104 22.9533 127.318 17.74C132.531 12.5267 138.651 8.44666 145.678 5.49999C152.818 2.43999 160.468 0.909992 168.628 0.909992ZM168.628 15.19C162.508 15.19 156.841 16.3233 151.628 18.59C146.528 20.7433 142.051 23.8033 138.198 27.77C134.344 31.7367 131.341 36.44 129.188 41.88C127.034 47.32 125.958 53.2133 125.958 59.56C125.958 65.9067 127.034 71.8 129.188 77.24C131.341 82.68 134.344 87.3833 138.198 91.35C142.051 95.3167 146.528 98.4333 151.628 100.7C156.841 102.853 162.508 103.93 168.628 103.93C174.748 103.93 180.358 102.853 185.458 100.7C190.671 98.4333 195.204 95.3167 199.058 91.35C202.911 87.3833 205.914 82.68 208.068 77.24C210.221 71.8 211.298 65.9067 211.298 59.56C211.298 53.2133 210.221 47.32 208.068 41.88C205.914 36.44 202.911 31.7367 199.058 27.77C195.204 23.8033 190.671 20.7433 185.458 18.59C180.358 16.3233 174.748 15.19 168.628 15.19ZM239.426 3.11999H254.726V69.25C254.726 80.9233 257.673 89.65 263.566 95.43C269.573 101.097 277.846 103.93 288.386 103.93C298.926 103.93 307.143 101.097 313.036 95.43C319.043 89.65 322.046 80.9233 322.046 69.25V3.11999H337.346V69.25C337.346 77.07 336.156 84.04 333.776 90.16C331.51 96.28 328.223 101.437 323.916 105.63C319.723 109.71 314.566 112.827 308.446 114.98C302.44 117.133 295.753 118.21 288.386 118.21C281.02 118.21 274.276 117.133 268.156 114.98C262.15 112.827 256.993 109.71 252.686 105.63C248.493 101.437 245.206 96.28 242.826 90.16C240.56 84.04 239.426 77.07 239.426 69.25V3.11999ZM363.412 87.95C366.019 92.8233 370.155 96.7333 375.822 99.68C381.602 102.513 388.232 103.93 395.712 103.93C399.905 103.93 403.815 103.477 407.442 102.57C411.069 101.55 414.185 100.247 416.792 98.66C419.399 96.96 421.439 94.9767 422.912 92.71C424.385 90.33 425.122 87.78 425.122 85.06C425.122 79.62 423.139 75.54 419.172 72.82C415.319 69.9867 409.312 68.1167 401.152 67.21L381.432 65.17C370.212 64.0367 362.109 60.6933 357.122 55.14C352.249 49.4733 349.812 42.6733 349.812 34.74C349.812 29.7533 350.832 25.22 352.872 21.14C354.912 16.9467 357.802 13.3767 361.542 10.43C365.282 7.37 369.815 5.04666 375.142 3.45999C380.582 1.75999 386.645 0.909992 393.332 0.909992C400.245 0.909992 406.365 1.87333 411.692 3.8C417.132 5.61333 421.779 7.99333 425.632 10.94C429.599 13.7733 432.829 17.0033 435.322 20.63C437.815 24.2567 439.685 27.77 440.932 31.17H424.272C422.005 26.41 418.039 22.5567 412.372 19.61C406.819 16.6633 400.302 15.19 392.822 15.19C383.982 15.19 377.125 17.06 372.252 20.8C367.492 24.54 365.112 28.96 365.112 34.06C365.112 39.2733 366.869 43.2967 370.382 46.13C374.009 48.85 379.222 50.55 386.022 51.23L407.272 53.44C417.812 54.5733 425.972 57.86 431.752 63.3C437.532 68.74 440.422 75.71 440.422 84.21C440.422 88.4033 439.459 92.54 437.532 96.62C435.719 100.7 432.942 104.327 429.202 107.5C425.462 110.673 420.759 113.28 415.092 115.32C409.539 117.247 403.079 118.21 395.712 118.21C388.232 118.21 381.715 117.36 376.162 115.66C370.609 113.847 365.849 111.523 361.882 108.69C358.029 105.743 354.855 102.457 352.362 98.83C349.869 95.2033 347.999 91.5767 346.752 87.95H363.412ZM468.176 17.4V52.42H528.186V66.7H468.176V101.72H529.376V116H452.876V3.11999H529.376V17.4H468.176ZM628.159 0.909992C636.319 0.909992 643.912 2.43999 650.939 5.49999C658.079 8.44666 664.256 12.5267 669.469 17.74C674.682 22.9533 678.762 29.1867 681.709 36.44C684.656 43.58 686.129 51.2867 686.129 59.56C686.129 67.9467 684.656 75.71 681.709 82.85C678.762 89.99 674.682 96.1667 669.469 101.38C664.256 106.593 658.079 110.73 650.939 113.79C643.912 116.737 636.319 118.21 628.159 118.21C619.999 118.21 612.349 116.737 605.209 113.79C598.182 110.73 592.062 106.593 586.849 101.38C581.636 96.1667 577.556 89.99 574.609 82.85C571.662 75.71 570.189 67.9467 570.189 59.56C570.189 51.2867 571.662 43.58 574.609 36.44C577.556 29.1867 581.636 22.9533 586.849 17.74C592.062 12.5267 598.182 8.44666 605.209 5.49999C612.349 2.43999 619.999 0.909992 628.159 0.909992ZM628.159 15.19C622.039 15.19 616.372 16.3233 611.159 18.59C606.059 20.7433 601.582 23.8033 597.729 27.77C593.876 31.7367 590.872 36.44 588.719 41.88C586.566 47.32 585.489 53.2133 585.489 59.56C585.489 65.9067 586.566 71.8 588.719 77.24C590.872 82.68 593.876 87.3833 597.729 91.35C601.582 95.3167 606.059 98.4333 611.159 100.7C616.372 102.853 622.039 103.93 628.159 103.93C634.279 103.93 639.889 102.853 644.989 100.7C650.202 98.4333 654.736 95.3167 658.589 91.35C662.442 87.3833 665.446 82.68 667.599 77.24C669.752 71.8 670.829 65.9067 670.829 59.56C670.829 53.2133 669.752 47.32 667.599 41.88C665.446 36.44 662.442 31.7367 658.589 27.77C654.736 23.8033 650.202 20.7433 644.989 18.59C639.889 16.3233 634.279 15.19 628.159 15.19ZM715.107 17.4V52.42H775.117V66.7H715.107V116H699.807V3.11999H776.307V17.4H715.107Z" fill="black"/>
</svg>
