<svg width="785" height="127" viewBox="0 0 785 127" fill="none" xmlns="http://www.w3.org/2000/svg">
<g filter="url(#filter0_d_1989_1705)">
<path d="M85.71 116V66.7H19.75V116H4.45V3.11999H19.75V52.42H85.71V3.11999H101.01V116H85.71ZM172.628 0.909992C180.788 0.909992 188.381 2.43999 195.408 5.49999C202.548 8.44666 208.724 12.5267 213.938 17.74C219.151 22.9533 223.231 29.1867 226.178 36.44C229.124 43.58 230.598 51.2867 230.598 59.56C230.598 67.9467 229.124 75.71 226.178 82.85C223.231 89.99 219.151 96.1667 213.938 101.38C208.724 106.593 202.548 110.73 195.408 113.79C188.381 116.737 180.788 118.21 172.628 118.21C164.468 118.21 156.818 116.737 149.678 113.79C142.651 110.73 136.531 106.593 131.318 101.38C126.104 96.1667 122.024 89.99 119.078 82.85C116.131 75.71 114.658 67.9467 114.658 59.56C114.658 51.2867 116.131 43.58 119.078 36.44C122.024 29.1867 126.104 22.9533 131.318 17.74C136.531 12.5267 142.651 8.44666 149.678 5.49999C156.818 2.43999 164.468 0.909992 172.628 0.909992ZM172.628 15.19C166.508 15.19 160.841 16.3233 155.628 18.59C150.528 20.7433 146.051 23.8033 142.198 27.77C138.344 31.7367 135.341 36.44 133.188 41.88C131.034 47.32 129.958 53.2133 129.958 59.56C129.958 65.9067 131.034 71.8 133.188 77.24C135.341 82.68 138.344 87.3833 142.198 91.35C146.051 95.3167 150.528 98.4333 155.628 100.7C160.841 102.853 166.508 103.93 172.628 103.93C178.748 103.93 184.358 102.853 189.458 100.7C194.671 98.4333 199.204 95.3167 203.058 91.35C206.911 87.3833 209.914 82.68 212.068 77.24C214.221 71.8 215.298 65.9067 215.298 59.56C215.298 53.2133 214.221 47.32 212.068 41.88C209.914 36.44 206.911 31.7367 203.058 27.77C199.204 23.8033 194.671 20.7433 189.458 18.59C184.358 16.3233 178.748 15.19 172.628 15.19ZM243.426 3.11999H258.726V69.25C258.726 80.9233 261.673 89.65 267.566 95.43C273.573 101.097 281.846 103.93 292.386 103.93C302.926 103.93 311.143 101.097 317.036 95.43C323.043 89.65 326.046 80.9233 326.046 69.25V3.11999H341.346V69.25C341.346 77.07 340.156 84.04 337.776 90.16C335.51 96.28 332.223 101.437 327.916 105.63C323.723 109.71 318.566 112.827 312.446 114.98C306.44 117.133 299.753 118.21 292.386 118.21C285.02 118.21 278.276 117.133 272.156 114.98C266.15 112.827 260.993 109.71 256.686 105.63C252.493 101.437 249.206 96.28 246.826 90.16C244.56 84.04 243.426 77.07 243.426 69.25V3.11999ZM367.412 87.95C370.019 92.8233 374.155 96.7333 379.822 99.68C385.602 102.513 392.232 103.93 399.712 103.93C403.905 103.93 407.815 103.477 411.442 102.57C415.069 101.55 418.185 100.247 420.792 98.66C423.399 96.96 425.439 94.9767 426.912 92.71C428.385 90.33 429.122 87.78 429.122 85.06C429.122 79.62 427.139 75.54 423.172 72.82C419.319 69.9867 413.312 68.1167 405.152 67.21L385.432 65.17C374.212 64.0367 366.109 60.6933 361.122 55.14C356.249 49.4733 353.812 42.6733 353.812 34.74C353.812 29.7533 354.832 25.22 356.872 21.14C358.912 16.9467 361.802 13.3767 365.542 10.43C369.282 7.37 373.815 5.04666 379.142 3.45999C384.582 1.75999 390.645 0.909992 397.332 0.909992C404.245 0.909992 410.365 1.87333 415.692 3.8C421.132 5.61333 425.779 7.99333 429.632 10.94C433.599 13.7733 436.829 17.0033 439.322 20.63C441.815 24.2567 443.685 27.77 444.932 31.17H428.272C426.005 26.41 422.039 22.5567 416.372 19.61C410.819 16.6633 404.302 15.19 396.822 15.19C387.982 15.19 381.125 17.06 376.252 20.8C371.492 24.54 369.112 28.96 369.112 34.06C369.112 39.2733 370.869 43.2967 374.382 46.13C378.009 48.85 383.222 50.55 390.022 51.23L411.272 53.44C421.812 54.5733 429.972 57.86 435.752 63.3C441.532 68.74 444.422 75.71 444.422 84.21C444.422 88.4033 443.459 92.54 441.532 96.62C439.719 100.7 436.942 104.327 433.202 107.5C429.462 110.673 424.759 113.28 419.092 115.32C413.539 117.247 407.079 118.21 399.712 118.21C392.232 118.21 385.715 117.36 380.162 115.66C374.609 113.847 369.849 111.523 365.882 108.69C362.029 105.743 358.855 102.457 356.362 98.83C353.869 95.2033 351.999 91.5767 350.752 87.95H367.412ZM472.176 17.4V52.42H532.186V66.7H472.176V101.72H533.376V116H456.876V3.11999H533.376V17.4H472.176ZM632.159 0.909992C640.319 0.909992 647.912 2.43999 654.939 5.49999C662.079 8.44666 668.256 12.5267 673.469 17.74C678.682 22.9533 682.762 29.1867 685.709 36.44C688.656 43.58 690.129 51.2867 690.129 59.56C690.129 67.9467 688.656 75.71 685.709 82.85C682.762 89.99 678.682 96.1667 673.469 101.38C668.256 106.593 662.079 110.73 654.939 113.79C647.912 116.737 640.319 118.21 632.159 118.21C623.999 118.21 616.349 116.737 609.209 113.79C602.182 110.73 596.062 106.593 590.849 101.38C585.636 96.1667 581.556 89.99 578.609 82.85C575.662 75.71 574.189 67.9467 574.189 59.56C574.189 51.2867 575.662 43.58 578.609 36.44C581.556 29.1867 585.636 22.9533 590.849 17.74C596.062 12.5267 602.182 8.44666 609.209 5.49999C616.349 2.43999 623.999 0.909992 632.159 0.909992ZM632.159 15.19C626.039 15.19 620.372 16.3233 615.159 18.59C610.059 20.7433 605.582 23.8033 601.729 27.77C597.876 31.7367 594.872 36.44 592.719 41.88C590.566 47.32 589.489 53.2133 589.489 59.56C589.489 65.9067 590.566 71.8 592.719 77.24C594.872 82.68 597.876 87.3833 601.729 91.35C605.582 95.3167 610.059 98.4333 615.159 100.7C620.372 102.853 626.039 103.93 632.159 103.93C638.279 103.93 643.889 102.853 648.989 100.7C654.202 98.4333 658.736 95.3167 662.589 91.35C666.442 87.3833 669.446 82.68 671.599 77.24C673.752 71.8 674.829 65.9067 674.829 59.56C674.829 53.2133 673.752 47.32 671.599 41.88C669.446 36.44 666.442 31.7367 662.589 27.77C658.736 23.8033 654.202 20.7433 648.989 18.59C643.889 16.3233 638.279 15.19 632.159 15.19ZM719.107 17.4V52.42H779.117V66.7H719.107V116H703.807V3.11999H780.307V17.4H719.107Z" fill="black"/>
</g>
<defs>
<filter id="filter0_d_1989_1705" x="0.450195" y="0.910156" width="783.857" height="125.3" filterUnits="userSpaceOnUse" color-interpolation-filters="sRGB">
<feFlood flood-opacity="0" result="BackgroundImageFix"/>
<feColorMatrix in="SourceAlpha" type="matrix" values="0 0 0 0 0 0 0 0 0 0 0 0 0 0 0 0 0 0 127 0" result="hardAlpha"/>
<feOffset dy="4"/>
<feGaussianBlur stdDeviation="2"/>
<feComposite in2="hardAlpha" operator="out"/>
<feColorMatrix type="matrix" values="0 0 0 0 0 0 0 0 0 0 0 0 0 0 0 0 0 0 0.25 0"/>
<feBlend mode="normal" in2="BackgroundImageFix" result="effect1_dropShadow_1989_1705"/>
<feBlend mode="normal" in="SourceGraphic" in2="effect1_dropShadow_1989_1705" result="shape"/>
</filter>
</defs>
</svg>
