<svg width="929" height="119" viewBox="0 0 929 119" fill="none" xmlns="http://www.w3.org/2000/svg">
<path d="M91.4 36.27C91.4 41.5967 90.4933 46.3567 88.68 50.55C86.98 54.63 84.5433 58.0867 81.37 60.92C78.1967 63.64 74.4 65.7367 69.98 67.21C65.56 68.6833 60.6867 69.42 55.36 69.42H15.75V116H0.45V3.11999H55.36C60.6867 3.11999 65.56 3.85666 69.98 5.33C74.4 6.80333 78.1967 8.95666 81.37 11.79C84.5433 14.51 86.98 17.9667 88.68 22.16C90.4933 26.24 91.4 30.9433 91.4 36.27ZM76.1 36.27C76.1 30.15 74.1733 25.5033 70.32 22.33C66.4667 19.0433 61.48 17.4 55.36 17.4H15.75V55.14H55.36C61.48 55.14 66.4667 53.5533 70.32 50.38C74.1733 47.0933 76.1 42.39 76.1 36.27ZM185.437 116V66.7H119.477V116H104.177V3.11999H119.477V52.42H185.437V3.11999H200.737V116H185.437ZM222.544 116H206.734L256.374 3.11999H273.034L322.504 116H306.184L294.794 89.82H233.934L222.544 116ZM264.364 19.78L240.054 75.71H288.674L264.364 19.78ZM429.717 3.11999V116H412.547L343.697 24.88V116H328.397V3.11999H345.567L414.417 94.24V3.11999H429.717ZM518.643 3.11999C528.503 3.11999 537.23 4.64999 544.823 7.71C552.53 10.6567 558.99 14.68 564.203 19.78C569.53 24.88 573.553 30.8867 576.273 37.8C579.107 44.6 580.523 51.8533 580.523 59.56C580.523 67.2667 579.107 74.5767 576.273 81.49C573.553 88.29 569.53 94.24 564.203 99.34C558.99 104.44 552.53 108.52 544.823 111.58C537.23 114.527 528.503 116 518.643 116H480.733V3.11999H518.643ZM565.223 59.56C565.223 53.3267 564.147 47.66 561.993 42.56C559.953 37.3467 556.95 32.87 552.983 29.13C549.13 25.39 544.37 22.5 538.703 20.46C533.15 18.42 526.803 17.4 519.663 17.4H496.033V101.72H519.663C526.803 101.72 533.15 100.7 538.703 98.66C544.37 96.62 549.13 93.73 552.983 89.99C556.95 86.25 559.953 81.83 561.993 76.73C564.147 71.5167 565.223 65.7933 565.223 59.56ZM595.449 116H579.639L629.279 3.11999H645.939L695.409 116H679.089L667.699 89.82H606.839L595.449 116ZM637.269 19.78L612.959 75.71H661.579L637.269 19.78ZM802.622 3.11999V116H785.452L716.602 24.88V116H701.302V3.11999H718.472L787.322 94.24V3.11999H802.622ZM874.128 15.19C868.008 15.19 862.341 16.3233 857.128 18.59C852.028 20.7433 847.551 23.8033 843.698 27.77C839.844 31.7367 836.841 36.44 834.688 41.88C832.534 47.32 831.458 53.2133 831.458 59.56C831.458 65.9067 832.534 71.8 834.688 77.24C836.841 82.68 839.788 87.3833 843.528 91.35C847.381 95.3167 851.914 98.4333 857.128 100.7C862.454 102.853 868.178 103.93 874.298 103.93C879.398 103.93 884.044 103.137 888.238 101.55C892.544 99.9633 896.284 97.7533 899.458 94.92C902.744 92.0867 905.464 88.6867 907.618 84.72C909.884 80.7533 911.528 76.39 912.548 71.63H871.918V57.35H928.868C928.868 66.53 927.451 74.86 924.618 82.34C921.784 89.82 917.874 96.2233 912.888 101.55C908.014 106.877 902.291 111.013 895.718 113.96C889.144 116.793 882.174 118.21 874.808 118.21C866.534 118.21 858.828 116.737 851.688 113.79C844.548 110.73 838.314 106.593 832.988 101.38C827.774 96.1667 823.638 89.99 820.578 82.85C817.631 75.71 816.158 67.9467 816.158 59.56C816.158 51.2867 817.631 43.58 820.578 36.44C823.524 29.1867 827.604 22.9533 832.818 17.74C838.031 12.5267 844.151 8.44666 851.178 5.49999C858.318 2.43999 865.968 0.909992 874.128 0.909992C879.794 0.909992 885.121 1.64666 890.108 3.11999C895.208 4.59333 899.854 6.69 904.048 9.40999C908.354 12.0167 912.208 15.19 915.608 18.93C919.008 22.67 921.841 26.75 924.108 31.17H906.598C903.198 26.41 898.721 22.5567 893.168 19.61C887.614 16.6633 881.268 15.19 874.128 15.19Z" fill="black"/>
</svg>
