<svg width="574" height="119" viewBox="0 0 574 119" fill="none" xmlns="http://www.w3.org/2000/svg">
<path d="M81.5108 116V66.7H15.5508V116H0.250781V3.11999H15.5508V52.42H81.5108V3.11999H96.8108V116H81.5108ZM168.429 0.909992C176.589 0.909992 184.182 2.43999 191.209 5.49999C198.349 8.44666 204.525 12.5267 209.739 17.74C214.952 22.9533 219.032 29.1867 221.979 36.44C224.925 43.58 226.399 51.2867 226.399 59.56C226.399 67.9467 224.925 75.71 221.979 82.85C219.032 89.99 214.952 96.1667 209.739 101.38C204.525 106.593 198.349 110.73 191.209 113.79C184.182 116.737 176.589 118.21 168.429 118.21C160.269 118.21 152.619 116.737 145.479 113.79C138.452 110.73 132.332 106.593 127.119 101.38C121.905 96.1667 117.825 89.99 114.879 82.85C111.932 75.71 110.459 67.9467 110.459 59.56C110.459 51.2867 111.932 43.58 114.879 36.44C117.825 29.1867 121.905 22.9533 127.119 17.74C132.332 12.5267 138.452 8.44666 145.479 5.49999C152.619 2.43999 160.269 0.909992 168.429 0.909992ZM168.429 15.19C162.309 15.19 156.642 16.3233 151.429 18.59C146.329 20.7433 141.852 23.8033 137.999 27.77C134.145 31.7367 131.142 36.44 128.989 41.88C126.835 47.32 125.759 53.2133 125.759 59.56C125.759 65.9067 126.835 71.8 128.989 77.24C131.142 82.68 134.145 87.3833 137.999 91.35C141.852 95.3167 146.329 98.4333 151.429 100.7C156.642 102.853 162.309 103.93 168.429 103.93C174.549 103.93 180.159 102.853 185.259 100.7C190.472 98.4333 195.005 95.3167 198.859 91.35C202.712 87.3833 205.715 82.68 207.869 77.24C210.022 71.8 211.099 65.9067 211.099 59.56C211.099 53.2133 210.022 47.32 207.869 41.88C205.715 36.44 202.712 31.7367 198.859 27.77C195.005 23.8033 190.472 20.7433 185.259 18.59C180.159 16.3233 174.549 15.19 168.429 15.19ZM239.943 116H224.133L273.773 3.11999H290.433L339.903 116H323.583L312.193 89.82H251.333L239.943 116ZM281.763 19.78L257.453 75.71H306.073L281.763 19.78ZM447.116 3.11999V116H429.946L361.096 24.88V116H345.796V3.11999H362.966L431.816 94.24V3.11999H447.116ZM518.622 15.19C512.502 15.19 506.835 16.3233 501.622 18.59C496.522 20.7433 492.045 23.8033 488.192 27.77C484.339 31.7367 481.335 36.44 479.182 41.88C477.029 47.32 475.952 53.2133 475.952 59.56C475.952 65.9067 477.029 71.8 479.182 77.24C481.335 82.68 484.282 87.3833 488.022 91.35C491.875 95.3167 496.409 98.4333 501.622 100.7C506.949 102.853 512.672 103.93 518.792 103.93C523.892 103.93 528.539 103.137 532.732 101.55C537.039 99.9633 540.779 97.7533 543.952 94.92C547.239 92.0867 549.959 88.6867 552.112 84.72C554.379 80.7533 556.022 76.39 557.042 71.63H516.412V57.35H573.362C573.362 66.53 571.945 74.86 569.112 82.34C566.279 89.82 562.369 96.2233 557.382 101.55C552.509 106.877 546.785 111.013 540.212 113.96C533.639 116.793 526.669 118.21 519.302 118.21C511.029 118.21 503.322 116.737 496.182 113.79C489.042 110.73 482.809 106.593 477.482 101.38C472.269 96.1667 468.132 89.99 465.072 82.85C462.125 75.71 460.652 67.9467 460.652 59.56C460.652 51.2867 462.125 43.58 465.072 36.44C468.019 29.1867 472.099 22.9533 477.312 17.74C482.525 12.5267 488.645 8.44666 495.672 5.49999C502.812 2.43999 510.462 0.909992 518.622 0.909992C524.289 0.909992 529.615 1.64666 534.602 3.11999C539.702 4.59333 544.349 6.69 548.542 9.40999C552.849 12.0167 556.702 15.19 560.102 18.93C563.502 22.67 566.335 26.75 568.602 31.17H551.092C547.692 26.41 543.215 22.5567 537.662 19.61C532.109 16.6633 525.762 15.19 518.622 15.19Z" fill="black"/>
</svg>
