<svg width="138" height="112" viewBox="0 0 138 112" fill="none" xmlns="http://www.w3.org/2000/svg">
<path d="M14.89 21V12.3H3.25V21H0.55V1.08H3.25V9.78H14.89V1.08H17.59V21H14.89ZM30.2284 0.689999C31.6684 0.689999 33.0084 0.959999 34.2484 1.5C35.5084 2.02 36.5984 2.74 37.5184 3.66C38.4384 4.58 39.1584 5.68 39.6784 6.96C40.1984 8.22 40.4584 9.58 40.4584 11.04C40.4584 12.52 40.1984 13.89 39.6784 15.15C39.1584 16.41 38.4384 17.5 37.5184 18.42C36.5984 19.34 35.5084 20.07 34.2484 20.61C33.0084 21.13 31.6684 21.39 30.2284 21.39C28.7884 21.39 27.4384 21.13 26.1784 20.61C24.9384 20.07 23.8584 19.34 22.9384 18.42C22.0184 17.5 21.2984 16.41 20.7784 15.15C20.2584 13.89 19.9984 12.52 19.9984 11.04C19.9984 9.58 20.2584 8.22 20.7784 6.96C21.2984 5.68 22.0184 4.58 22.9384 3.66C23.8584 2.74 24.9384 2.02 26.1784 1.5C27.4384 0.959999 28.7884 0.689999 30.2284 0.689999ZM30.2284 3.21C29.1484 3.21 28.1484 3.41 27.2284 3.81C26.3284 4.19 25.5384 4.73 24.8584 5.43C24.1784 6.13 23.6484 6.96 23.2684 7.92C22.8884 8.88 22.6984 9.92 22.6984 11.04C22.6984 12.16 22.8884 13.2 23.2684 14.16C23.6484 15.12 24.1784 15.95 24.8584 16.65C25.5384 17.35 26.3284 17.9 27.2284 18.3C28.1484 18.68 29.1484 18.87 30.2284 18.87C31.3084 18.87 32.2984 18.68 33.1984 18.3C34.1184 17.9 34.9184 17.35 35.5984 16.65C36.2784 15.95 36.8084 15.12 37.1884 14.16C37.5684 13.2 37.7584 12.16 37.7584 11.04C37.7584 9.92 37.5684 8.88 37.1884 7.92C36.8084 6.96 36.2784 6.13 35.5984 5.43C34.9184 4.73 34.1184 4.19 33.1984 3.81C32.2984 3.41 31.3084 3.21 30.2284 3.21ZM42.7223 1.08H45.4223V12.75C45.4223 14.81 45.9423 16.35 46.9823 17.37C48.0423 18.37 49.5023 18.87 51.3623 18.87C53.2223 18.87 54.6723 18.37 55.7123 17.37C56.7723 16.35 57.3023 14.81 57.3023 12.75V1.08H60.0023V12.75C60.0023 14.13 59.7923 15.36 59.3723 16.44C58.9723 17.52 58.3923 18.43 57.6323 19.17C56.8923 19.89 55.9823 20.44 54.9023 20.82C53.8423 21.2 52.6623 21.39 51.3623 21.39C50.0623 21.39 48.8723 21.2 47.7923 20.82C46.7323 20.44 45.8223 19.89 45.0623 19.17C44.3223 18.43 43.7423 17.52 43.3223 16.44C42.9223 15.36 42.7223 14.13 42.7223 12.75V1.08ZM64.6021 16.05C65.0621 16.91 65.7921 17.6 66.7921 18.12C67.8121 18.62 68.9821 18.87 70.3021 18.87C71.0421 18.87 71.7321 18.79 72.3721 18.63C73.0121 18.45 73.5621 18.22 74.0221 17.94C74.4821 17.64 74.8421 17.29 75.1021 16.89C75.3621 16.47 75.4921 16.02 75.4921 15.54C75.4921 14.58 75.1421 13.86 74.4421 13.38C73.7621 12.88 72.7021 12.55 71.2621 12.39L67.7821 12.03C65.8021 11.83 64.3721 11.24 63.4921 10.26C62.6321 9.26 62.2021 8.06 62.2021 6.66C62.2021 5.78 62.3821 4.98 62.7421 4.26C63.1021 3.52 63.6121 2.89 64.2721 2.37C64.9321 1.83 65.7321 1.42 66.6721 1.14C67.6321 0.839998 68.7021 0.689999 69.8821 0.689999C71.1021 0.689999 72.1821 0.859999 73.1221 1.2C74.0821 1.52 74.9021 1.94 75.5821 2.46C76.2821 2.96 76.8521 3.53 77.2921 4.17C77.7321 4.81 78.0621 5.43 78.2821 6.03H75.3421C74.9421 5.19 74.2421 4.51 73.2421 3.99C72.2621 3.47 71.1121 3.21 69.7921 3.21C68.2321 3.21 67.0221 3.54 66.1621 4.2C65.3221 4.86 64.9021 5.64 64.9021 6.54C64.9021 7.46 65.2121 8.17 65.8321 8.67C66.4721 9.15 67.3921 9.45 68.5921 9.57L72.3421 9.96C74.2021 10.16 75.6421 10.74 76.6621 11.7C77.6821 12.66 78.1921 13.89 78.1921 15.39C78.1921 16.13 78.0221 16.86 77.6821 17.58C77.3621 18.3 76.8721 18.94 76.2121 19.5C75.5521 20.06 74.7221 20.52 73.7221 20.88C72.7421 21.22 71.6021 21.39 70.3021 21.39C68.9821 21.39 67.8321 21.24 66.8521 20.94C65.8721 20.62 65.0321 20.21 64.3321 19.71C63.6521 19.19 63.0921 18.61 62.6521 17.97C62.2121 17.33 61.8821 16.69 61.6621 16.05H64.6021ZM83.0898 3.6V9.78H93.6798V12.3H83.0898V18.48H93.8898V21H80.3898V1.08H93.8898V3.6H83.0898ZM111.322 0.689999C112.762 0.689999 114.102 0.959999 115.342 1.5C116.602 2.02 117.692 2.74 118.612 3.66C119.532 4.58 120.252 5.68 120.772 6.96C121.292 8.22 121.552 9.58 121.552 11.04C121.552 12.52 121.292 13.89 120.772 15.15C120.252 16.41 119.532 17.5 118.612 18.42C117.692 19.34 116.602 20.07 115.342 20.61C114.102 21.13 112.762 21.39 111.322 21.39C109.882 21.39 108.532 21.13 107.272 20.61C106.032 20.07 104.952 19.34 104.032 18.42C103.112 17.5 102.392 16.41 101.872 15.15C101.352 13.89 101.092 12.52 101.092 11.04C101.092 9.58 101.352 8.22 101.872 6.96C102.392 5.68 103.112 4.58 104.032 3.66C104.952 2.74 106.032 2.02 107.272 1.5C108.532 0.959999 109.882 0.689999 111.322 0.689999ZM111.322 3.21C110.242 3.21 109.242 3.41 108.322 3.81C107.422 4.19 106.632 4.73 105.952 5.43C105.272 6.13 104.742 6.96 104.362 7.92C103.982 8.88 103.792 9.92 103.792 11.04C103.792 12.16 103.982 13.2 104.362 14.16C104.742 15.12 105.272 15.95 105.952 16.65C106.632 17.35 107.422 17.9 108.322 18.3C109.242 18.68 110.242 18.87 111.322 18.87C112.402 18.87 113.392 18.68 114.292 18.3C115.212 17.9 116.012 17.35 116.692 16.65C117.372 15.95 117.902 15.12 118.282 14.16C118.662 13.2 118.852 12.16 118.852 11.04C118.852 9.92 118.662 8.88 118.282 7.92C117.902 6.96 117.372 6.13 116.692 5.43C116.012 4.73 115.212 4.19 114.292 3.81C113.392 3.41 112.402 3.21 111.322 3.21ZM126.666 3.6V9.78H137.256V12.3H126.666V21H123.966V1.08H137.466V3.6H126.666ZM16.6 36.93C16.6 37.87 16.44 38.71 16.12 39.45C15.82 40.17 15.39 40.78 14.83 41.28C14.27 41.76 13.6 42.13 12.82 42.39C12.04 42.65 11.18 42.78 10.24 42.78H3.25V51H0.55V31.08H10.24C11.18 31.08 12.04 31.21 12.82 31.47C13.6 31.73 14.27 32.11 14.83 32.61C15.39 33.09 15.82 33.7 16.12 34.44C16.44 35.16 16.6 35.99 16.6 36.93ZM13.9 36.93C13.9 35.85 13.56 35.03 12.88 34.47C12.2 33.89 11.32 33.6 10.24 33.6H3.25V40.26H10.24C11.32 40.26 12.2 39.98 12.88 39.42C13.56 38.84 13.9 38.01 13.9 36.93ZM33.1947 51V42.3H21.5547V51H18.8547V31.08H21.5547V39.78H33.1947V31.08H35.8947V51H33.1947ZM39.7431 51H36.9531L45.7131 31.08H48.6531L57.3831 51H54.5031L52.4931 46.38H41.7531L39.7431 51ZM47.1231 34.02L42.8331 43.89H51.4131L47.1231 34.02ZM76.303 31.08V51H73.273L61.123 34.92V51H58.423V31.08H61.453L73.603 47.16V31.08H76.303ZM7.24 61.08C8.98 61.08 10.52 61.35 11.86 61.89C13.22 62.41 14.36 63.12 15.28 64.02C16.22 64.92 16.93 65.98 17.41 67.2C17.91 68.4 18.16 69.68 18.16 71.04C18.16 72.4 17.91 73.69 17.41 74.91C16.93 76.11 16.22 77.16 15.28 78.06C14.36 78.96 13.22 79.68 11.86 80.22C10.52 80.74 8.98 81 7.24 81H0.55V61.08H7.24ZM15.46 71.04C15.46 69.94 15.27 68.94 14.89 68.04C14.53 67.12 14 66.33 13.3 65.67C12.62 65.01 11.78 64.5 10.78 64.14C9.8 63.78 8.68 63.6 7.42 63.6H3.25V78.48H7.42C8.68 78.48 9.8 78.3 10.78 77.94C11.78 77.58 12.62 77.07 13.3 76.41C14 75.75 14.53 74.97 14.89 74.07C15.27 73.15 15.46 72.14 15.46 71.04ZM20.7939 81H18.0039L26.7639 61.08H29.7039L38.4339 81H35.5539L33.5439 76.38H22.8039L20.7939 81ZM28.1739 64.02L23.8839 73.89H32.4639L28.1739 64.02ZM57.3538 61.08V81H54.3238L42.1738 64.92V81H39.4738V61.08H42.5038L54.6538 77.16V61.08H57.3538ZM69.9726 63.21C68.8926 63.21 67.8926 63.41 66.9726 63.81C66.0726 64.19 65.2826 64.73 64.6026 65.43C63.9226 66.13 63.3926 66.96 63.0126 67.92C62.6326 68.88 62.4426 69.92 62.4426 71.04C62.4426 72.16 62.6326 73.2 63.0126 74.16C63.3926 75.12 63.9126 75.95 64.5726 76.65C65.2526 77.35 66.0526 77.9 66.9726 78.3C67.9126 78.68 68.9226 78.87 70.0026 78.87C70.9026 78.87 71.7226 78.73 72.4626 78.45C73.2226 78.17 73.8826 77.78 74.4426 77.28C75.0226 76.78 75.5026 76.18 75.8826 75.48C76.2826 74.78 76.5726 74.01 76.7526 73.17H69.5826V70.65H79.6326C79.6326 72.27 79.3826 73.74 78.8826 75.06C78.3826 76.38 77.6926 77.51 76.8126 78.45C75.9526 79.39 74.9426 80.12 73.7826 80.64C72.6226 81.14 71.3926 81.39 70.0926 81.39C68.6326 81.39 67.2726 81.13 66.0126 80.61C64.7526 80.07 63.6526 79.34 62.7126 78.42C61.7926 77.5 61.0626 76.41 60.5226 75.15C60.0026 73.89 59.7426 72.52 59.7426 71.04C59.7426 69.58 60.0026 68.22 60.5226 66.96C61.0426 65.68 61.7626 64.58 62.6826 63.66C63.6026 62.74 64.6826 62.02 65.9226 61.5C67.1826 60.96 68.5326 60.69 69.9726 60.69C70.9726 60.69 71.9126 60.82 72.7926 61.08C73.6926 61.34 74.5126 61.71 75.2526 62.19C76.0126 62.65 76.6926 63.21 77.2926 63.87C77.8926 64.53 78.3926 65.25 78.7926 66.03H75.7026C75.1026 65.19 74.3126 64.51 73.3326 63.99C72.3526 63.47 71.2326 63.21 69.9726 63.21ZM14.89 111V102.3H3.25V111H0.55V91.08H3.25V99.78H14.89V91.08H17.59V111H14.89ZM30.2284 90.69C31.6684 90.69 33.0084 90.96 34.2484 91.5C35.5084 92.02 36.5984 92.74 37.5184 93.66C38.4384 94.58 39.1584 95.68 39.6784 96.96C40.1984 98.22 40.4584 99.58 40.4584 101.04C40.4584 102.52 40.1984 103.89 39.6784 105.15C39.1584 106.41 38.4384 107.5 37.5184 108.42C36.5984 109.34 35.5084 110.07 34.2484 110.61C33.0084 111.13 31.6684 111.39 30.2284 111.39C28.7884 111.39 27.4384 111.13 26.1784 110.61C24.9384 110.07 23.8584 109.34 22.9384 108.42C22.0184 107.5 21.2984 106.41 20.7784 105.15C20.2584 103.89 19.9984 102.52 19.9984 101.04C19.9984 99.58 20.2584 98.22 20.7784 96.96C21.2984 95.68 22.0184 94.58 22.9384 93.66C23.8584 92.74 24.9384 92.02 26.1784 91.5C27.4384 90.96 28.7884 90.69 30.2284 90.69ZM30.2284 93.21C29.1484 93.21 28.1484 93.41 27.2284 93.81C26.3284 94.19 25.5384 94.73 24.8584 95.43C24.1784 96.13 23.6484 96.96 23.2684 97.92C22.8884 98.88 22.6984 99.92 22.6984 101.04C22.6984 102.16 22.8884 103.2 23.2684 104.16C23.6484 105.12 24.1784 105.95 24.8584 106.65C25.5384 107.35 26.3284 107.9 27.2284 108.3C28.1484 108.68 29.1484 108.87 30.2284 108.87C31.3084 108.87 32.2984 108.68 33.1984 108.3C34.1184 107.9 34.9184 107.35 35.5984 106.65C36.2784 105.95 36.8084 105.12 37.1884 104.16C37.5684 103.2 37.7584 102.16 37.7584 101.04C37.7584 99.92 37.5684 98.88 37.1884 97.92C36.8084 96.96 36.2784 96.13 35.5984 95.43C34.9184 94.73 34.1184 94.19 33.1984 93.81C32.2984 93.41 31.3084 93.21 30.2284 93.21ZM42.8486 111H40.0586L48.8186 91.08H51.7586L60.4886 111H57.6086L55.5986 106.38H44.8586L42.8486 111ZM50.2286 94.02L45.9386 103.89H54.5186L50.2286 94.02ZM79.4085 91.08V111H76.3785L64.2285 94.92V111H61.5285V91.08H64.5585L76.7085 107.16V91.08H79.4085ZM92.0273 93.21C90.9473 93.21 89.9473 93.41 89.0273 93.81C88.1273 94.19 87.3373 94.73 86.6573 95.43C85.9773 96.13 85.4473 96.96 85.0673 97.92C84.6873 98.88 84.4973 99.92 84.4973 101.04C84.4973 102.16 84.6873 103.2 85.0673 104.16C85.4473 105.12 85.9673 105.95 86.6273 106.65C87.3073 107.35 88.1073 107.9 89.0273 108.3C89.9673 108.68 90.9773 108.87 92.0573 108.87C92.9573 108.87 93.7773 108.73 94.5173 108.45C95.2773 108.17 95.9373 107.78 96.4973 107.28C97.0773 106.78 97.5573 106.18 97.9373 105.48C98.3373 104.78 98.6273 104.01 98.8073 103.17H91.6373V100.65H101.687C101.687 102.27 101.437 103.74 100.937 105.06C100.437 106.38 99.7473 107.51 98.8673 108.45C98.0073 109.39 96.9973 110.12 95.8373 110.64C94.6773 111.14 93.4473 111.39 92.1473 111.39C90.6873 111.39 89.3273 111.13 88.0673 110.61C86.8073 110.07 85.7073 109.34 84.7673 108.42C83.8473 107.5 83.1173 106.41 82.5773 105.15C82.0573 103.89 81.7973 102.52 81.7973 101.04C81.7973 99.58 82.0573 98.22 82.5773 96.96C83.0973 95.68 83.8173 94.58 84.7373 93.66C85.6573 92.74 86.7373 92.02 87.9773 91.5C89.2373 90.96 90.5873 90.69 92.0273 90.69C93.0273 90.69 93.9673 90.82 94.8473 91.08C95.7473 91.34 96.5673 91.71 97.3073 92.19C98.0673 92.65 98.7473 93.21 99.3473 93.87C99.9473 94.53 100.447 95.25 100.847 96.03H97.7573C97.1573 95.19 96.3673 94.51 95.3873 93.99C94.4073 93.47 93.2873 93.21 92.0273 93.21Z" fill="black"/>
</svg>
