<svg width="102" height="28" viewBox="0 0 102 28" fill="none" xmlns="http://www.w3.org/2000/svg">
<path d="M2.34184 11.746L1.36119 14H0L4.27385 4.28138H5.70822L9.96744 14H8.56233L7.58169 11.746H2.34184ZM7.05478 10.5312L4.96176 5.71576L2.86875 10.5312H7.05478ZM12.5239 4.28138V12.7705H17.793V14H11.2066V4.28138H12.5239ZM20.7998 4.28138V12.7705H26.0689V14H19.4825V4.28138H20.7998ZM37.6658 4.28138H38.9831V14H37.5048L31.577 6.15485V14H30.2598V4.28138H31.738L37.6658 12.1265V4.28138ZM48.0522 5.51085H42.7831V8.52596H47.9498V9.75542H42.7831V12.7705H48.0522V14H41.4658V4.28138H48.0522V5.51085ZM49.1442 4.28138H50.564L53.2863 12.3022L55.9648 4.28138H57.5017L60.2387 12.2875L62.9318 4.28138H64.3369L61.029 14H59.4922L56.7259 5.83285L54.0182 14H52.4813L49.1442 4.28138ZM64.8436 11.585H66.2779C66.7317 12.4193 67.7709 12.9608 69.0589 12.9608C70.5225 12.9608 71.591 12.2729 71.591 11.3362C71.591 10.3994 70.9323 9.96033 69.5272 9.79933L67.8294 9.6237C65.8974 9.43342 65.107 8.36496 65.107 7.00377C65.107 5.2913 66.556 4.09111 68.854 4.09111C71.2543 4.09111 72.5131 5.51085 72.9522 6.6964H71.5178C71.1226 5.87676 70.0834 5.32057 68.81 5.32057C67.2878 5.32057 66.4243 6.06703 66.4243 6.94522C66.4243 7.83805 67.0683 8.30641 68.2246 8.42351L70.0541 8.61378C71.8544 8.80405 72.9083 9.81397 72.9083 11.263C72.9083 12.712 71.6056 14.1903 69.0589 14.1903C66.4975 14.1903 65.2827 12.8437 64.8436 11.585Z" fill="black"/>
<path d="M88.1481 14.3653L97.2468 5.91351M97.2468 5.91351L96.722 14.4511M97.2468 5.91351L89.1784 5.35817" stroke="black" stroke-width="0.915443" stroke-linecap="round" stroke-linejoin="round"/>
<line y1="20.0735" x2="97.4919" y2="20.0735" stroke="black" stroke-width="0.731823"/>
</svg>
