<svg width="10" height="10" viewBox="0 0 10 10" fill="none" xmlns="http://www.w3.org/2000/svg">
<path id="Vector" d="M9.24154 2.44898H7.21368V2.34694C7.21368 1.72449 6.97968 1.12754 6.56316 0.687402C6.14665 0.247266 5.58173 0 4.99268 0C4.40364 0 3.83872 0.247266 3.4222 0.687402C3.00569 1.12754 2.77169 1.72449 2.77169 2.34694V2.44898H0.743826C0.564551 2.44898 0.39262 2.52423 0.265854 2.65819C0.139088 2.79214 0.0678711 2.97382 0.0678711 3.16327V9.28571C0.0678711 9.47515 0.139088 9.65684 0.265854 9.79079C0.39262 9.92475 0.564551 10 0.743826 10H9.24154C9.42082 10 9.59275 9.92475 9.71951 9.79079C9.84628 9.65684 9.9175 9.47515 9.9175 9.28571V3.16327C9.9175 2.97382 9.84628 2.79214 9.71951 2.65819C9.59275 2.52423 9.42082 2.44898 9.24154 2.44898ZM3.35108 2.34694C3.35108 1.88687 3.52403 1.44564 3.83189 1.12033C4.13975 0.795007 4.5573 0.612245 4.99268 0.612245C5.42806 0.612245 5.84561 0.795007 6.15347 1.12033C6.46133 1.44564 6.63429 1.88687 6.63429 2.34694V2.44898H3.35108V2.34694ZM9.33811 9.28571C9.33811 9.31278 9.32793 9.33873 9.30982 9.35787C9.29171 9.377 9.26715 9.38776 9.24154 9.38776H0.743826C0.718215 9.38776 0.693653 9.377 0.675544 9.35787C0.657434 9.33873 0.647261 9.31278 0.647261 9.28571V3.16327C0.647261 3.1362 0.657434 3.11025 0.675544 3.09111C0.693653 3.07198 0.718215 3.06122 0.743826 3.06122H2.77169V3.97959C2.77169 4.06078 2.80221 4.13864 2.85654 4.19605C2.91087 4.25346 2.98455 4.28571 3.06138 4.28571C3.13822 4.28571 3.2119 4.25346 3.26623 4.19605C3.32056 4.13864 3.35108 4.06078 3.35108 3.97959V3.06122H6.63429V3.97959C6.63429 4.06078 6.66481 4.13864 6.71914 4.19605C6.77347 4.25346 6.84715 4.28571 6.92398 4.28571C7.00081 4.28571 7.0745 4.25346 7.12883 4.19605C7.18316 4.13864 7.21368 4.06078 7.21368 3.97959V3.06122H9.24154C9.26715 3.06122 9.29171 3.07198 9.30982 3.09111C9.32793 3.11025 9.33811 3.1362 9.33811 3.16327V9.28571Z" fill="black"/>
</svg>
