<svg width="29" height="29" viewBox="0 0 29 29" fill="none" xmlns="http://www.w3.org/2000/svg">
<g id="Edit_light">
<path id="Rectangle 1" d="M21.8672 7.025L11.566 17.3261C11.2873 17.6048 11.1479 17.7442 11.052 17.9136C10.9561 18.083 10.9083 18.2742 10.8127 18.6566L9.86265 22.457C9.73341 22.9739 9.66879 23.2324 9.8121 23.3757C9.95542 23.519 10.2139 23.4544 10.7309 23.3252L14.5313 22.3751C14.9137 22.2795 15.1049 22.2317 15.2742 22.1358C15.4436 22.0399 15.583 21.9005 15.8617 21.6218L26.1628 11.3207C27.1174 10.3661 27.5947 9.88878 27.5947 9.29567C27.5947 8.70256 27.1174 8.22527 26.1628 7.27067L25.9172 7.025C24.9626 6.07041 24.4853 5.59311 23.8922 5.59311C23.299 5.59311 22.8217 6.07041 21.8672 7.025Z" fill="#717171"/>
</g>
</svg>
