<svg width="1247" height="486" viewBox="0 0 1247 486" fill="none" xmlns="http://www.w3.org/2000/svg">
<path d="M106.4 251.27C106.4 256.597 105.493 261.357 103.68 265.55C101.98 269.63 99.5433 273.087 96.37 275.92C93.1967 278.64 89.4 280.737 84.98 282.21C80.56 283.683 75.6867 284.42 70.36 284.42H30.75V331H15.45V218.12H70.36C75.6867 218.12 80.56 218.857 84.98 220.33C89.4 221.803 93.1967 223.957 96.37 226.79C99.5433 229.51 101.98 232.967 103.68 237.16C105.493 241.24 106.4 245.943 106.4 251.27ZM91.1 251.27C91.1 245.15 89.1733 240.503 85.32 237.33C81.4667 234.043 76.48 232.4 70.36 232.4H30.75V270.14H70.36C76.48 270.14 81.4667 268.553 85.32 265.38C89.1733 262.093 91.1 257.39 91.1 251.27ZM200.437 331V281.7H134.477V331H119.177V218.12H134.477V267.42H200.437V218.12H215.737V331H200.437ZM237.544 331H221.734L271.374 218.12H288.034L337.504 331H321.184L309.794 304.82H248.934L237.544 331ZM279.364 234.78L255.054 290.71H303.674L279.364 234.78ZM444.717 218.12V331H427.547L358.697 239.88V331H343.397V218.12H360.567L429.417 309.24V218.12H444.717ZM533.643 218.12C543.503 218.12 552.23 219.65 559.823 222.71C567.53 225.657 573.99 229.68 579.203 234.78C584.53 239.88 588.553 245.887 591.273 252.8C594.107 259.6 595.523 266.853 595.523 274.56C595.523 282.267 594.107 289.577 591.273 296.49C588.553 303.29 584.53 309.24 579.203 314.34C573.99 319.44 567.53 323.52 559.823 326.58C552.23 329.527 543.503 331 533.643 331H495.733V218.12H533.643ZM580.223 274.56C580.223 268.327 579.147 262.66 576.993 257.56C574.953 252.347 571.95 247.87 567.983 244.13C564.13 240.39 559.37 237.5 553.703 235.46C548.15 233.42 541.803 232.4 534.663 232.4H511.033V316.72H534.663C541.803 316.72 548.15 315.7 553.703 313.66C559.37 311.62 564.13 308.73 567.983 304.99C571.95 301.25 574.953 296.83 576.993 291.73C579.147 286.517 580.223 280.793 580.223 274.56ZM610.449 331H594.639L644.279 218.12H660.939L710.409 331H694.089L682.699 304.82H621.839L610.449 331ZM652.269 234.78L627.959 290.71H676.579L652.269 234.78ZM817.622 218.12V331H800.452L731.602 239.88V331H716.302V218.12H733.472L802.322 309.24V218.12H817.622ZM889.128 230.19C883.008 230.19 877.341 231.323 872.128 233.59C867.028 235.743 862.551 238.803 858.698 242.77C854.844 246.737 851.841 251.44 849.688 256.88C847.534 262.32 846.458 268.213 846.458 274.56C846.458 280.907 847.534 286.8 849.688 292.24C851.841 297.68 854.788 302.383 858.528 306.35C862.381 310.317 866.914 313.433 872.128 315.7C877.454 317.853 883.178 318.93 889.298 318.93C894.398 318.93 899.044 318.137 903.238 316.55C907.544 314.963 911.284 312.753 914.458 309.92C917.744 307.087 920.464 303.687 922.618 299.72C924.884 295.753 926.528 291.39 927.548 286.63H886.918V272.35H943.868C943.868 281.53 942.451 289.86 939.618 297.34C936.784 304.82 932.874 311.223 927.888 316.55C923.014 321.877 917.291 326.013 910.718 328.96C904.144 331.793 897.174 333.21 889.808 333.21C881.534 333.21 873.828 331.737 866.688 328.79C859.548 325.73 853.314 321.593 847.988 316.38C842.774 311.167 838.638 304.99 835.578 297.85C832.631 290.71 831.158 282.947 831.158 274.56C831.158 266.287 832.631 258.58 835.578 251.44C838.524 244.187 842.604 237.953 847.818 232.74C853.031 227.527 859.151 223.447 866.178 220.5C873.318 217.44 880.968 215.91 889.128 215.91C894.794 215.91 900.121 216.647 905.108 218.12C910.208 219.593 914.854 221.69 919.048 224.41C923.354 227.017 927.208 230.19 930.608 233.93C934.008 237.67 936.841 241.75 939.108 246.17H921.598C918.198 241.41 913.721 237.557 908.168 234.61C902.614 231.663 896.268 230.19 889.128 230.19Z" fill="black"/>
<path d="M640.511 483V433.7H574.551V483H559.251V370.12H574.551V419.42H640.511V370.12H655.811V483H640.511ZM727.429 367.91C735.589 367.91 743.182 369.44 750.209 372.5C757.349 375.447 763.525 379.527 768.739 384.74C773.952 389.953 778.032 396.187 780.979 403.44C783.925 410.58 785.399 418.287 785.399 426.56C785.399 434.947 783.925 442.71 780.979 449.85C778.032 456.99 773.952 463.167 768.739 468.38C763.525 473.593 757.349 477.73 750.209 480.79C743.182 483.737 735.589 485.21 727.429 485.21C719.269 485.21 711.619 483.737 704.479 480.79C697.452 477.73 691.332 473.593 686.119 468.38C680.905 463.167 676.825 456.99 673.879 449.85C670.932 442.71 669.459 434.947 669.459 426.56C669.459 418.287 670.932 410.58 673.879 403.44C676.825 396.187 680.905 389.953 686.119 384.74C691.332 379.527 697.452 375.447 704.479 372.5C711.619 369.44 719.269 367.91 727.429 367.91ZM727.429 382.19C721.309 382.19 715.642 383.323 710.429 385.59C705.329 387.743 700.852 390.803 696.999 394.77C693.145 398.737 690.142 403.44 687.989 408.88C685.835 414.32 684.759 420.213 684.759 426.56C684.759 432.907 685.835 438.8 687.989 444.24C690.142 449.68 693.145 454.383 696.999 458.35C700.852 462.317 705.329 465.433 710.429 467.7C715.642 469.853 721.309 470.93 727.429 470.93C733.549 470.93 739.159 469.853 744.259 467.7C749.472 465.433 754.005 462.317 757.859 458.35C761.712 454.383 764.715 449.68 766.869 444.24C769.022 438.8 770.099 432.907 770.099 426.56C770.099 420.213 769.022 414.32 766.869 408.88C764.715 403.44 761.712 398.737 757.859 394.77C754.005 390.803 749.472 387.743 744.259 385.59C739.159 383.323 733.549 382.19 727.429 382.19ZM798.943 483H783.133L832.773 370.12H849.433L898.903 483H882.583L871.193 456.82H810.333L798.943 483ZM840.763 386.78L816.453 442.71H865.073L840.763 386.78ZM1006.12 370.12V483H988.946L920.096 391.88V483H904.796V370.12H921.966L990.816 461.24V370.12H1006.12ZM1077.62 382.19C1071.5 382.19 1065.84 383.323 1060.62 385.59C1055.52 387.743 1051.05 390.803 1047.19 394.77C1043.34 398.737 1040.34 403.44 1038.18 408.88C1036.03 414.32 1034.95 420.213 1034.95 426.56C1034.95 432.907 1036.03 438.8 1038.18 444.24C1040.34 449.68 1043.28 454.383 1047.02 458.35C1050.88 462.317 1055.41 465.433 1060.62 467.7C1065.95 469.853 1071.67 470.93 1077.79 470.93C1082.89 470.93 1087.54 470.137 1091.73 468.55C1096.04 466.963 1099.78 464.753 1102.95 461.92C1106.24 459.087 1108.96 455.687 1111.11 451.72C1113.38 447.753 1115.02 443.39 1116.04 438.63H1075.41V424.35H1132.36C1132.36 433.53 1130.95 441.86 1128.11 449.34C1125.28 456.82 1121.37 463.223 1116.38 468.55C1111.51 473.877 1105.79 478.013 1099.21 480.96C1092.64 483.793 1085.67 485.21 1078.3 485.21C1070.03 485.21 1062.32 483.737 1055.18 480.79C1048.04 477.73 1041.81 473.593 1036.48 468.38C1031.27 463.167 1027.13 456.99 1024.07 449.85C1021.13 442.71 1019.65 434.947 1019.65 426.56C1019.65 418.287 1021.13 410.58 1024.07 403.44C1027.02 396.187 1031.1 389.953 1036.31 384.74C1041.53 379.527 1047.65 375.447 1054.67 372.5C1061.81 369.44 1069.46 367.91 1077.62 367.91C1083.29 367.91 1088.62 368.647 1093.6 370.12C1098.7 371.593 1103.35 373.69 1107.54 376.41C1111.85 379.017 1115.7 382.19 1119.1 385.93C1122.5 389.67 1125.34 393.75 1127.6 398.17H1110.09C1106.69 393.41 1102.22 389.557 1096.66 386.61C1091.11 383.663 1084.76 382.19 1077.62 382.19Z" fill="black"/>
<path d="M95.71 178V128.7H29.75V178H14.45V65.12H29.75V114.42H95.71V65.12H111.01V178H95.71ZM182.628 62.91C190.788 62.91 198.381 64.44 205.408 67.5C212.548 70.4467 218.724 74.5267 223.938 79.74C229.151 84.9533 233.231 91.1867 236.178 98.44C239.124 105.58 240.598 113.287 240.598 121.56C240.598 129.947 239.124 137.71 236.178 144.85C233.231 151.99 229.151 158.167 223.938 163.38C218.724 168.593 212.548 172.73 205.408 175.79C198.381 178.737 190.788 180.21 182.628 180.21C174.468 180.21 166.818 178.737 159.678 175.79C152.651 172.73 146.531 168.593 141.318 163.38C136.104 158.167 132.024 151.99 129.078 144.85C126.131 137.71 124.658 129.947 124.658 121.56C124.658 113.287 126.131 105.58 129.078 98.44C132.024 91.1867 136.104 84.9533 141.318 79.74C146.531 74.5267 152.651 70.4467 159.678 67.5C166.818 64.44 174.468 62.91 182.628 62.91ZM182.628 77.19C176.508 77.19 170.841 78.3233 165.628 80.59C160.528 82.7433 156.051 85.8033 152.198 89.77C148.344 93.7367 145.341 98.44 143.188 103.88C141.034 109.32 139.958 115.213 139.958 121.56C139.958 127.907 141.034 133.8 143.188 139.24C145.341 144.68 148.344 149.383 152.198 153.35C156.051 157.317 160.528 160.433 165.628 162.7C170.841 164.853 176.508 165.93 182.628 165.93C188.748 165.93 194.358 164.853 199.458 162.7C204.671 160.433 209.204 157.317 213.058 153.35C216.911 149.383 219.914 144.68 222.068 139.24C224.221 133.8 225.298 127.907 225.298 121.56C225.298 115.213 224.221 109.32 222.068 103.88C219.914 98.44 216.911 93.7367 213.058 89.77C209.204 85.8033 204.671 82.7433 199.458 80.59C194.358 78.3233 188.748 77.19 182.628 77.19ZM253.426 65.12H268.726V131.25C268.726 142.923 271.673 151.65 277.566 157.43C283.573 163.097 291.846 165.93 302.386 165.93C312.926 165.93 321.143 163.097 327.036 157.43C333.043 151.65 336.046 142.923 336.046 131.25V65.12H351.346V131.25C351.346 139.07 350.156 146.04 347.776 152.16C345.51 158.28 342.223 163.437 337.916 167.63C333.723 171.71 328.566 174.827 322.446 176.98C316.44 179.133 309.753 180.21 302.386 180.21C295.02 180.21 288.276 179.133 282.156 176.98C276.15 174.827 270.993 171.71 266.686 167.63C262.493 163.437 259.206 158.28 256.826 152.16C254.56 146.04 253.426 139.07 253.426 131.25V65.12ZM377.412 149.95C380.019 154.823 384.155 158.733 389.822 161.68C395.602 164.513 402.232 165.93 409.712 165.93C413.905 165.93 417.815 165.477 421.442 164.57C425.069 163.55 428.185 162.247 430.792 160.66C433.399 158.96 435.439 156.977 436.912 154.71C438.385 152.33 439.122 149.78 439.122 147.06C439.122 141.62 437.139 137.54 433.172 134.82C429.319 131.987 423.312 130.117 415.152 129.21L395.432 127.17C384.212 126.037 376.109 122.693 371.122 117.14C366.249 111.473 363.812 104.673 363.812 96.74C363.812 91.7533 364.832 87.22 366.872 83.14C368.912 78.9467 371.802 75.3767 375.542 72.43C379.282 69.37 383.815 67.0467 389.142 65.46C394.582 63.76 400.645 62.91 407.332 62.91C414.245 62.91 420.365 63.8733 425.692 65.8C431.132 67.6133 435.779 69.9933 439.632 72.94C443.599 75.7733 446.829 79.0033 449.322 82.63C451.815 86.2567 453.685 89.77 454.932 93.17H438.272C436.005 88.41 432.039 84.5567 426.372 81.61C420.819 78.6633 414.302 77.19 406.822 77.19C397.982 77.19 391.125 79.06 386.252 82.8C381.492 86.54 379.112 90.96 379.112 96.06C379.112 101.273 380.869 105.297 384.382 108.13C388.009 110.85 393.222 112.55 400.022 113.23L421.272 115.44C431.812 116.573 439.972 119.86 445.752 125.3C451.532 130.74 454.422 137.71 454.422 146.21C454.422 150.403 453.459 154.54 451.532 158.62C449.719 162.7 446.942 166.327 443.202 169.5C439.462 172.673 434.759 175.28 429.092 177.32C423.539 179.247 417.079 180.21 409.712 180.21C402.232 180.21 395.715 179.36 390.162 177.66C384.609 175.847 379.849 173.523 375.882 170.69C372.029 167.743 368.855 164.457 366.362 160.83C363.869 157.203 361.999 153.577 360.752 149.95H377.412ZM482.176 79.4V114.42H542.186V128.7H482.176V163.72H543.376V178H466.876V65.12H543.376V79.4H482.176ZM642.159 62.91C650.319 62.91 657.912 64.44 664.939 67.5C672.079 70.4467 678.256 74.5267 683.469 79.74C688.682 84.9533 692.762 91.1867 695.709 98.44C698.656 105.58 700.129 113.287 700.129 121.56C700.129 129.947 698.656 137.71 695.709 144.85C692.762 151.99 688.682 158.167 683.469 163.38C678.256 168.593 672.079 172.73 664.939 175.79C657.912 178.737 650.319 180.21 642.159 180.21C633.999 180.21 626.349 178.737 619.209 175.79C612.182 172.73 606.062 168.593 600.849 163.38C595.636 158.167 591.556 151.99 588.609 144.85C585.662 137.71 584.189 129.947 584.189 121.56C584.189 113.287 585.662 105.58 588.609 98.44C591.556 91.1867 595.636 84.9533 600.849 79.74C606.062 74.5267 612.182 70.4467 619.209 67.5C626.349 64.44 633.999 62.91 642.159 62.91ZM642.159 77.19C636.039 77.19 630.372 78.3233 625.159 80.59C620.059 82.7433 615.582 85.8033 611.729 89.77C607.876 93.7367 604.872 98.44 602.719 103.88C600.566 109.32 599.489 115.213 599.489 121.56C599.489 127.907 600.566 133.8 602.719 139.24C604.872 144.68 607.876 149.383 611.729 153.35C615.582 157.317 620.059 160.433 625.159 162.7C630.372 164.853 636.039 165.93 642.159 165.93C648.279 165.93 653.889 164.853 658.989 162.7C664.202 160.433 668.736 157.317 672.589 153.35C676.442 149.383 679.446 144.68 681.599 139.24C683.752 133.8 684.829 127.907 684.829 121.56C684.829 115.213 683.752 109.32 681.599 103.88C679.446 98.44 676.442 93.7367 672.589 89.77C668.736 85.8033 664.202 82.7433 658.989 80.59C653.889 78.3233 648.279 77.19 642.159 77.19ZM729.107 79.4V114.42H789.117V128.7H729.107V178H713.807V65.12H790.307V79.4H729.107Z" fill="black"/>
</svg>
