<?xml version="1.0" standalone="no"?>
<!DOCTYPE svg PUBLIC "-//W3C//DTD SVG 20010904//EN"
 "http://www.w3.org/TR/2001/REC-SVG-20010904/DTD/svg10.dtd">
<svg version="1.0" xmlns="http://www.w3.org/2000/svg"
 width="1123.000000pt" height="423.000000pt" viewBox="0 0 1123.000000 423.000000"
 preserveAspectRatio="xMidYMid meet">

<g transform="translate(0.000000,423.000000) scale(0.100000,-0.100000)"
fill="#000000" stroke="none">
<path d="M1638 4218 c-191 -22 -361 -143 -443 -313 -133 -277 -45 -603 207
-765 282 -183 687 -69 827 231 203 435 -122 902 -591 847z m254 -180 c326
-155 328 -641 3 -803 -57 -28 -67 -30 -180 -30 -114 0 -123 2 -185 31 -87 42
-155 111 -199 204 -35 74 -36 77 -36 200 0 119 1 128 31 190 40 85 108 159
182 198 80 43 122 52 224 48 75 -3 98 -8 160 -38z"/>
<path d="M3885 4218 c-161 -16 -283 -95 -338 -217 -51 -114 -8 -286 89 -350
67 -44 120 -58 304 -81 182 -22 220 -30 267 -59 46 -28 65 -64 66 -119 1 -121
-107 -192 -293 -192 -138 0 -245 44 -299 125 l-24 35 -79 0 -80 0 7 -27 c9
-38 70 -127 113 -164 50 -44 163 -94 243 -108 314 -53 585 116 566 355 -8 110
-68 192 -173 241 -61 28 -112 38 -299 58 -159 17 -216 39 -252 94 -27 40 -30
108 -9 150 21 39 77 86 123 102 23 9 80 14 143 14 97 0 110 -2 171 -31 44 -21
79 -47 105 -78 l38 -46 79 0 c77 0 78 0 71 23 -16 51 -81 132 -142 177 -110
81 -243 114 -397 98z"/>
<path d="M6245 4219 c-228 -24 -419 -176 -486 -388 -29 -91 -36 -245 -15 -333
72 -308 376 -500 688 -434 371 79 562 490 392 844 -100 209 -339 337 -579 311z
m250 -183 c88 -44 154 -112 199 -206 29 -62 31 -71 31 -190 0 -123 -1 -126
-36 -200 -44 -92 -110 -159 -198 -203 -63 -31 -71 -32 -186 -32 -113 0 -124 2
-180 29 -264 130 -327 512 -118 722 91 90 188 126 326 120 77 -3 98 -8 162
-40z"/>
<path d="M30 3635 l0 -565 75 0 75 0 0 250 0 250 330 0 330 0 2 -247 3 -248
75 0 75 0 3 563 2 562 -80 0 -80 0 0 -245 0 -245 -330 0 -330 0 0 245 0 245
-75 0 -75 0 0 -565z"/>
<path d="M2420 3838 c0 -395 6 -451 55 -548 52 -102 145 -179 262 -216 80 -24
209 -29 294 -10 179 40 279 125 341 292 21 56 22 77 26 452 l3 392 -75 0 -76
0 0 -318 c0 -175 -5 -355 -10 -401 -16 -127 -58 -194 -152 -246 -51 -29 -58
-30 -178 -30 -116 0 -129 2 -175 27 -93 49 -140 122 -155 241 -5 39 -10 219
-10 400 l0 327 -75 0 -75 0 0 -362z"/>
<path d="M4552 3638 l3 -563 380 0 380 0 3 73 3 72 -306 0 -305 0 0 175 0 175
300 0 300 0 0 70 0 70 -300 0 -300 0 0 175 0 175 305 0 305 0 0 70 0 70 -385
0 -385 0 2 -562z"/>
<path d="M7022 3638 l3 -563 75 0 75 0 3 248 2 247 300 0 300 0 0 70 0 70
-300 0 -300 0 0 175 0 175 305 0 305 0 0 70 0 70 -385 0 -385 0 2 -562z"/>
<path d="M8715 2689 c-227 -23 -419 -176 -486 -388 -29 -92 -36 -244 -15 -335
61 -257 299 -445 567 -446 77 0 203 34 267 73 70 42 159 137 200 214 39 74 72
197 72 270 l0 53 -285 0 -285 0 0 -70 0 -70 205 0 205 0 -6 -27 c-24 -103
-117 -220 -209 -264 -44 -20 -65 -23 -171 -24 -117 0 -122 1 -187 34 -302 153
-315 614 -23 785 156 91 371 67 492 -55 l48 -49 83 0 c46 0 83 4 83 9 0 4 -12
26 -26 47 -114 171 -318 264 -529 243z"/>
<path d="M40 2106 l0 -566 75 0 75 0 0 235 0 235 234 0 c261 0 322 11 404 70
101 73 146 226 106 360 -30 101 -79 156 -180 202 -47 22 -60 23 -381 26 l-333
3 0 -565z m622 414 c81 -23 131 -91 131 -180 0 -58 -11 -89 -47 -128 -48 -53
-64 -56 -318 -60 l-238 -4 0 191 0 191 218 0 c119 0 234 -5 254 -10z"/>
<path d="M1080 2105 l0 -565 75 0 75 0 0 250 0 250 330 0 330 0 0 -250 0 -250
75 0 75 0 0 565 0 565 -75 0 -75 0 0 -245 0 -245 -330 0 -330 0 0 245 0 245
-75 0 -75 0 0 -565z"/>
<path d="M2573 2613 c-158 -357 -463 -1056 -463 -1064 0 -6 30 -9 76 -7 l76 3
55 128 56 127 307 0 306 0 56 -127 55 -128 68 -3 c37 -2 74 -1 81 2 9 4 -4 44
-50 148 -34 79 -145 331 -246 561 l-183 417 -84 0 -84 0 -26 -57z m231 -393
l115 -265 -236 -3 c-130 -1 -237 -1 -239 1 -2 2 49 125 114 274 64 149 120
268 124 265 3 -4 58 -126 122 -272z"/>
<path d="M3320 2105 l0 -565 75 0 75 0 2 456 3 457 344 -457 344 -456 84 0 83
0 0 565 0 565 -75 0 -75 0 -2 -451 -3 -452 -340 452 -340 451 -87 0 -88 0 0
-565z"/>
<path d="M4842 2108 l3 -563 250 1 c207 0 261 3 314 18 312 86 487 371 416
675 -39 162 -138 287 -286 360 -125 61 -185 71 -462 71 l-237 0 2 -562z m492
412 c78 -13 174 -59 230 -110 92 -85 141 -239 118 -372 -25 -142 -103 -245
-232 -307 l-75 -36 -187 -3 -188 -4 0 421 0 421 138 0 c75 0 163 -4 196 -10z"/>
<path d="M6321 2653 c-24 -46 -481 -1093 -481 -1103 0 -7 25 -10 76 -8 l75 3
56 128 56 127 306 0 307 0 55 -127 55 -128 77 0 c42 0 78 4 78 8 1 4 -108 258
-242 563 l-243 554 -82 0 c-69 0 -85 -3 -93 -17z m212 -433 l114 -265 -235 -3
c-129 -1 -237 -1 -238 1 -2 2 49 125 114 274 64 149 120 268 124 265 3 -4 58
-126 121 -272z"/>
<path d="M7050 2105 l0 -565 75 0 75 0 2 455 3 455 344 -455 344 -455 84 0 83
0 0 565 0 565 -75 0 -75 0 -2 -451 -3 -452 -340 451 -340 451 -87 1 -88 0 0
-565z"/>
<path d="M7090 1169 c-243 -26 -443 -209 -495 -454 -90 -425 268 -788 690
-700 164 34 314 148 388 295 167 333 5 732 -338 835 -92 27 -153 33 -245 24z
m249 -179 c266 -123 332 -508 122 -718 -29 -29 -80 -67 -114 -85 -60 -31 -66
-32 -187 -32 -119 0 -128 1 -184 30 -32 16 -83 54 -113 84 -206 202 -152 585
99 712 81 41 120 49 219 45 73 -3 98 -9 158 -36z"/>
<path d="M10588 1168 c-405 -49 -626 -486 -435 -863 44 -88 156 -196 249 -240
231 -110 470 -75 634 92 101 102 172 274 174 421 l0 32 -285 0 -285 0 0 -70 0
-70 201 0 202 0 -7 -32 c-19 -98 -111 -213 -205 -257 -50 -23 -68 -26 -171
-26 -108 0 -119 2 -180 31 -89 42 -153 107 -198 202 -37 76 -37 79 -37 202 0
119 1 128 31 190 70 146 198 237 350 247 134 9 257 -36 333 -123 30 -34 31
-34 116 -34 l86 0 -23 41 c-32 58 -120 143 -188 183 -83 49 -136 64 -270 80
-14 1 -55 -1 -92 -6z"/>
<path d="M5480 585 l0 -565 75 0 75 0 0 250 0 250 330 0 330 0 2 -248 3 -247
73 -3 72 -3 0 566 0 565 -75 0 -75 0 0 -245 0 -245 -330 0 -330 0 0 245 0 245
-75 0 -75 0 0 -565z"/>
<path d="M7972 603 c-132 -301 -244 -556 -248 -566 -6 -16 0 -18 72 -15 l79 3
55 125 56 125 308 0 309 0 49 -115 c28 -63 55 -121 60 -127 12 -14 158 -19
158 -5 0 4 -110 257 -243 562 l-244 555 -85 3 -85 3 -241 -548z m443 104 c64
-148 115 -271 112 -273 -2 -2 -110 -3 -239 -2 l-234 3 103 235 c56 129 109
252 118 274 9 21 18 37 20 35 2 -2 56 -125 120 -272z"/>
<path d="M8932 588 l3 -563 75 0 75 0 5 449 5 449 340 -449 340 -449 85 0 85
0 3 563 2 562 -80 0 -80 0 -2 -448 -3 -448 -339 448 -338 448 -89 0 -89 0 2
-562z"/>
</g>
</svg>
