<svg width="121" height="38" viewBox="0 0 121 38" fill="none" xmlns="http://www.w3.org/2000/svg">
<g clip-path="url(#clip0_2139_1644)">
<path d="M84.393 5.59961H82.1167V16.9299H84.393V5.59961Z" fill="black"/>
<path d="M38.8833 5.59961H36.607V16.9299H38.8833V5.59961Z" fill="black"/>
<path d="M84.393 5.59961H82.1167V16.9299H84.393V5.59961Z" fill="black"/>
<path d="M63.8928 10.1348H38.8833V12.4008H63.8928V10.1348Z" fill="black"/>
<path d="M82.1134 10.1348H73.5028V12.4008H82.1134V10.1348Z" fill="black"/>
<path d="M60.5 0.501953C50.4488 0.501953 42.2995 5.32193 42.2995 11.2666C42.2995 11.6481 42.3329 12.0264 42.3997 12.4013H43.5797C43.4894 12.0297 43.4393 11.6515 43.4393 11.2666C43.4393 6.88507 49.5462 3.33369 57.0839 3.33369C64.6215 3.33369 70.7284 6.88507 70.7284 11.2666C70.7284 15.6481 64.6215 19.1994 57.0839 19.1994C51.6421 19.1994 46.9457 17.3451 44.7563 14.6673H43.2287C45.6354 18.9484 52.4577 22.0345 60.5 22.0345C70.5513 22.0345 78.7006 17.2145 78.7006 11.2699C78.7006 5.32527 70.5513 0.501953 60.5 0.501953Z" fill="black"/>
<path d="M21.8794 29.3916H19.8872L17.1563 37.3312H18.3496L19.1953 34.7839H23.1396L23.9852 37.3312H25.1785L22.4476 29.3916H21.876H21.8794ZM19.573 33.6593L20.6159 30.5196H21.7256L22.7685 33.6593H19.573Z" fill="#151517"/>
<path d="M32.3618 35.5906L28.5646 29.405L28.5579 29.3949V29.3916L28.5546 29.3949H27.4114V29.3916H26.3017V29.3949V30.5196V37.3345H27.4114V30.5196H27.9128L32.0844 37.3345H32.3618H33.4716V29.3916H32.3618V35.5906Z" fill="#151517"/>
<path d="M6.1156 29.3916H0.5V37.3312H1.60975V33.3112H6.1156C7.11838 33.3112 7.9273 32.4342 7.9273 31.3497C7.9273 30.2652 7.11504 29.3916 6.1156 29.3916ZM6.21922 32.1932C6.18579 32.1966 6.14903 32.1999 6.1156 32.1999H1.60975V30.4962H6.1156C6.55014 30.4962 6.90446 30.8778 6.90446 31.3464C6.90446 31.7782 6.60696 32.1363 6.21922 32.1899V32.1932Z" fill="#151517"/>
<path d="M99.7323 29.3916H97.7435L95.0125 37.3312H96.2059L97.0515 34.7839H100.996L101.842 37.3312H103.035L100.304 29.3916H99.729H99.7323ZM97.4259 33.6593L98.4688 30.5196H99.5786L100.621 33.6593H97.4259Z" fill="#151517"/>
<path d="M51.5251 29.3916H49.5329L46.802 37.3312H47.9953L48.841 34.7839H52.7852L53.6309 37.3312H54.8242L52.0933 29.3916H51.5217H51.5251ZM49.2187 33.6593L50.2616 30.5196H51.3713L52.4142 33.6593H49.2187Z" fill="#151517"/>
<path d="M62.178 35.5906L58.3808 29.405L58.3741 29.3949L58.3708 29.3916V29.3949H57.2276V29.3916H56.1178V29.3949V30.5196V37.3345H57.2276V30.5196H57.7256L61.9006 37.3345H62.178H63.2877V29.3916H62.178V35.5906Z" fill="#151517"/>
<path d="M110.238 35.5906L106.441 29.405L106.438 29.3949H106.434V29.3916V29.3949H105.288V29.3916H104.181V37.3345H105.288V30.5196H105.789L109.964 37.3345H110.238H111.348V29.3916H110.238V35.5906Z" fill="#151517"/>
<path d="M90.2426 29.2275C87.2811 29.2275 85.9708 31.0785 85.9708 33.3647C85.9708 35.6508 87.2811 37.5018 90.2426 37.5018C93.2042 37.5018 94.5145 35.6508 94.5145 33.3647C94.5145 31.0785 93.2042 29.2275 90.2426 29.2275ZM90.2426 36.4207C88.0532 36.4207 87.0839 35.0517 87.0839 33.3613C87.0839 31.671 88.0532 30.302 90.2426 30.302C92.4321 30.302 93.4014 31.671 93.4014 33.3613C93.4014 35.0517 92.4321 36.4207 90.2426 36.4207Z" fill="#151517"/>
<path d="M116.713 36.3537C114.734 36.3537 113.808 35.0149 113.808 33.3647C113.808 31.7145 114.734 30.3756 116.713 30.3756C118.013 30.3756 118.855 30.9514 119.283 31.8149L120.5 31.7882C120.019 30.2853 118.782 29.2275 116.713 29.2275C113.975 29.2275 112.695 31.0785 112.695 33.3647C112.695 35.6508 113.975 37.5018 116.713 37.5018C118.077 37.5018 119.143 36.819 119.708 35.5973L119.945 37.3378H120.5V33.368H119.39C119.39 35.0182 118.538 36.3571 116.713 36.3571V36.3537Z" fill="#151517"/>
<path d="M68.6493 30.3727C69.9496 30.3727 70.7919 30.9484 71.2198 31.812L72.4365 31.7852C71.9552 30.2823 70.7184 29.2246 68.6493 29.2246C65.9117 29.2246 64.6315 31.0756 64.6315 33.3618C64.6315 35.6479 65.9117 37.4989 68.6493 37.4989C70.0131 37.4989 71.0794 36.8161 71.6443 35.5943L71.8816 37.3349H72.4365V33.3651H71.3267C71.3267 35.0153 70.4744 36.3542 68.6493 36.3542C66.6705 36.3542 65.7446 35.0153 65.7446 33.3651C65.7446 31.7149 66.6705 30.376 68.6493 30.376V30.3727Z" fill="#151517"/>
<path d="M42.2493 29.3916H38.91V37.3312H42.2493C44.8766 37.3312 46.1067 35.5538 46.1067 33.3614C46.1067 31.169 44.8766 29.3916 42.2493 29.3916ZM42.2493 36.2065H40.0198V30.5163H42.2493C44.1312 30.5163 45.0137 31.7915 45.0137 33.3614C45.0137 34.9312 44.1312 36.2065 42.2493 36.2065Z" fill="#151517"/>
<path d="M15.144 29.4023V32.1404H10.4978V29.4023H9.39471V37.3486H10.4978V33.265H15.144V37.3486H16.2471V29.4023H15.144Z" fill="#151517"/>
<path d="M83.4671 29.4023V32.1404H78.8242V29.4023H77.7212V37.3486H78.8242V33.265H83.4671V37.3486H84.5702V29.4023H83.4671Z" fill="#151517"/>
</g>
<defs>
<clipPath id="clip0_2139_1644">
<rect width="120" height="37" fill="white" transform="translate(0.5 0.501953)"/>
</clipPath>
</defs>
</svg>
