<svg width="46" height="22" viewBox="0 0 46 22" fill="none" xmlns="http://www.w3.org/2000/svg">
<path d="M45.3079 5.63342H43.1517V16.3699H45.3079V5.63342Z" fill="white"/>
<path d="M2.15616 5.63342H0V16.3699H2.15616V5.63342Z" fill="white"/>
<path d="M45.3079 5.63342H43.1517V16.3699H45.3079V5.63342Z" fill="white"/>
<path d="M25.8735 9.92798H2.15576V12.0753H25.8735V9.92798Z" fill="white"/>
<path d="M43.1514 9.92798H34.9827V12.0753H43.1514V9.92798Z" fill="white"/>
<path d="M22.6631 0.806763C13.1646 0.806763 5.40437 5.3769 5.40437 11.0017C5.40257 11.3618 5.43437 11.7212 5.49935 12.0753H6.62018C6.53279 11.7241 6.48814 11.3636 6.4872 11.0017C6.4872 6.85911 12.2718 3.48614 19.4242 3.48614C26.5765 3.48614 32.3611 6.85911 32.3611 11.0017C32.3611 15.1443 26.567 18.5173 19.4431 18.5173C14.276 18.5173 9.82117 16.7595 7.7505 14.2227H6.27823C8.56737 18.2797 15.0358 21.1966 22.6631 21.1966C32.1616 21.1966 39.9124 16.636 39.9124 11.0017C39.9124 5.3674 32.1901 0.806763 22.6631 0.806763Z" fill="white"/>
</svg>
