<svg width="74" height="19" viewBox="0 0 74 19" fill="none" xmlns="http://www.w3.org/2000/svg">
<path d="M6.2 5.31C6.2 6.5 5.42 7.18 4.29 7.26L6.38 10H5.26L3.17 7.26H1.75V10H0.85V3.36H4.08C5.33 3.36 6.2 4.06 6.2 5.31ZM5.3 5.31C5.3 4.59 4.8 4.2 4.08 4.2H1.75V6.42H4.08C4.8 6.42 5.3 6.03 5.3 5.31ZM11.9809 4.2H8.38086V6.26H11.9109V7.1H8.38086V9.16H11.9809V10H7.48086V3.36H11.9809V4.2ZM14.227 8.46L13.557 10H12.627L15.547 3.36H16.527L19.437 10H18.477L17.807 8.46H14.227ZM17.447 7.63L16.017 4.34L14.587 7.63H17.447ZM20.2836 3.36H22.5136C24.8236 3.36 26.1536 4.87 26.1536 6.68C26.1536 8.49 24.8236 10 22.5136 10H20.2836V3.36ZM25.2536 6.68C25.2536 5.21 24.2436 4.2 22.5736 4.2H21.1836V9.16H22.5736C24.2436 9.16 25.2536 8.15 25.2536 6.68ZM34.8163 3.36H35.7163V10H34.7063L30.6563 4.64V10H29.7563V3.36H30.7663L34.8163 8.72V3.36ZM40.4225 3.23C42.3525 3.23 43.8325 4.72 43.8325 6.68C43.8325 8.64 42.3525 10.13 40.4225 10.13C38.4925 10.13 37.0125 8.64 37.0125 6.68C37.0125 4.72 38.4925 3.23 40.4225 3.23ZM40.4225 4.07C38.9925 4.07 37.9125 5.18 37.9125 6.68C37.9125 8.18 38.9925 9.29 40.4225 9.29C41.8525 9.29 42.9325 8.18 42.9325 6.68C42.9325 5.18 41.8525 4.07 40.4225 4.07ZM44.3871 3.36H45.3571L47.2171 8.84L49.0471 3.36H50.0971L51.9671 8.83L53.8071 3.36H54.7671L52.5071 10H51.4571L49.5671 4.42L47.7171 10H46.6671L44.3871 3.36Z" fill="black"/>
<path d="M63.727 9.81518L70.3049 4.04072M70.3049 4.04072L69.9255 9.8738M70.3049 4.04072L64.4718 3.6613" stroke="black" stroke-width="0.625453" stroke-linecap="round" stroke-linejoin="round"/>
<line x1="2.18557e-08" y1="13.7146" x2="71" y2="13.7146" stroke="black" stroke-width="0.5"/>
</svg>
