<?xml version="1.0" standalone="no"?>
<!DOCTYPE svg PUBLIC "-//W3C//DTD SVG 20010904//EN"
 "http://www.w3.org/TR/2001/REC-SVG-20010904/DTD/svg10.dtd">
<svg version="1.0" xmlns="http://www.w3.org/2000/svg"
 width="4393.000000pt" height="4759.000000pt" viewBox="0 0 4393.000000 4759.000000"
 preserveAspectRatio="xMidYMid meet">

<g transform="translate(0.000000,4759.000000) scale(0.100000,-0.100000)"
fill="#000000" stroke="none">
<path d="M21715 45295 c-140 -20 -234 -42 -349 -82 -195 -68 -333 -150 -442
-264 -73 -77 -104 -124 -134 -207 l-23 -62 -113 0 -114 0 0 145 0 145 -75 0
-75 0 0 -375 0 -375 75 0 75 0 0 150 0 150 825 0 825 0 0 80 0 80 -666 0 -666
0 7 28 c17 71 100 166 202 233 221 145 555 208 873 164 154 -21 251 -49 377
-111 305 -148 405 -389 250 -601 -97 -131 -284 -233 -522 -285 -117 -25 -368
-35 -490 -19 -247 33 -467 125 -585 245 -40 42 -48 46 -92 46 -26 0 -48 -4
-48 -9 0 -24 103 -141 172 -196 147 -116 343 -200 587 -252 116 -25 145 -27
366 -28 257 0 308 6 504 56 175 45 343 122 459 212 117 90 219 229 238 326 l7
31 113 0 114 0 0 -150 0 -150 80 0 80 0 0 375 0 375 -80 0 -80 0 0 -145 0
-145 -114 0 -114 0 -7 33 c-16 72 -79 171 -160 252 -160 158 -395 264 -710
321 -126 22 -440 27 -570 9z"/>
<path d="M22371 43384 c-58 -30 -103 -87 -122 -159 -16 -56 -5 -174 20 -223
26 -50 89 -105 140 -120 103 -31 221 -2 264 64 28 43 37 43 37 0 0 -47 9 -66
31 -66 18 0 19 9 19 130 l0 130 -40 0 c-37 0 -40 -2 -40 -28 0 -37 -39 -111
-71 -135 -39 -28 -96 -37 -154 -25 -101 21 -159 124 -134 241 32 147 223 197
324 85 34 -37 56 -45 89 -32 23 9 20 26 -15 73 -45 62 -112 91 -215 91 -67 0
-89 -4 -133 -26z"/>
<path d="M23808 43396 c-58 -23 -94 -54 -125 -110 -25 -46 -28 -60 -28 -146 0
-102 11 -137 64 -193 53 -58 95 -72 211 -72 122 0 164 16 223 85 46 54 61 111
55 210 -6 99 -39 159 -112 205 -45 27 -57 30 -150 32 -68 2 -113 -2 -138 -11z
m249 -88 c130 -86 96 -316 -52 -357 -128 -35 -239 16 -271 125 -25 85 -6 161
53 215 40 38 78 49 159 46 57 -2 78 -7 111 -29z"/>
<path d="M25555 43391 c-50 -22 -108 -86 -126 -137 -7 -22 -13 -73 -13 -114 0
-162 84 -257 237 -268 86 -6 144 15 191 69 l34 40 7 -50 c6 -41 11 -51 26 -51
18 0 19 9 19 130 l0 130 -35 0 c-30 0 -35 -4 -41 -27 -21 -97 -61 -146 -131
-161 -128 -29 -233 56 -233 187 1 95 41 159 117 187 79 28 156 11 212 -47 37
-37 61 -46 95 -33 14 5 13 10 -4 44 -22 43 -70 87 -117 107 -49 20 -189 17
-238 -6z"/>
<path d="M18010 43140 l0 -260 35 0 35 0 0 129 0 129 168 4 c192 4 210 10 238
84 21 56 8 110 -37 148 l-31 26 -204 0 -204 0 0 -260z m409 159 c13 -24 13
-29 -2 -53 l-17 -26 -160 0 -160 0 0 55 0 55 162 -2 162 -3 15 -26z"/>
<path d="M18590 43140 l0 -260 40 0 40 0 0 135 0 135 150 0 150 0 0 -135 0
-135 40 0 40 0 0 260 0 260 -40 0 -40 0 0 -90 0 -90 -150 0 -150 0 0 90 0 90
-40 0 -40 0 0 -260z"/>
<path d="M19196 43148 c-47 -139 -86 -256 -86 -260 0 -5 17 -8 38 -8 l38 0 28
85 27 85 129 0 129 0 27 -85 28 -85 43 0 42 0 -33 93 c-18 50 -59 167 -91 260
l-57 167 -88 0 -87 0 -87 -252z m242 84 c18 -54 32 -101 32 -105 0 -4 -45 -7
-100 -7 -55 0 -100 4 -100 8 0 11 57 179 65 192 3 5 21 10 38 10 32 0 33 -1
65 -98z"/>
<path d="M19710 43140 l0 -260 35 0 35 0 2 222 c3 189 5 223 18 225 10 2 60
-71 151 -219 l135 -223 47 -3 47 -3 0 260 0 261 -35 0 -35 0 -2 -197 -3 -198
-120 197 -120 197 -77 1 -78 0 0 -260z"/>
<path d="M20540 43139 l0 -261 158 4 c157 3 159 3 208 33 71 45 108 120 109
224 0 120 -41 196 -129 237 -46 22 -64 24 -198 24 l-148 0 0 -261z m320 165
c90 -52 110 -214 37 -292 -39 -42 -77 -55 -179 -60 l-98 -5 0 193 0 192 103
-4 c80 -3 110 -8 137 -24z"/>
<path d="M21221 43343 c-11 -32 -52 -149 -90 -260 l-70 -203 42 0 43 0 28 85
27 85 128 0 127 0 28 -85 27 -85 40 0 c21 0 39 3 39 7 0 5 -39 122 -87 260
l-88 253 -86 0 -87 0 -21 -57z m170 -101 c16 -46 31 -92 34 -103 6 -18 0 -19
-94 -19 -56 0 -101 3 -101 7 0 4 15 51 32 105 l33 99 34 -3 c34 -3 35 -5 62
-86z"/>
<path d="M21680 43140 l0 -260 35 0 35 0 0 226 c0 209 1 225 18 222 10 -2 72
-92 152 -223 l135 -220 48 -3 47 -3 0 260 0 261 -35 0 -35 0 0 -197 c0 -108
-3 -193 -7 -189 -5 4 -60 91 -124 194 l-115 187 -77 3 -77 3 0 -261z"/>
<path d="M23100 43140 l0 -260 40 0 40 0 0 135 0 135 150 0 150 0 0 -135 0
-135 40 0 40 0 0 260 0 260 -40 0 -40 0 0 -90 0 -90 -150 0 -150 0 0 90 0 90
-40 0 -40 0 0 -260z"/>
<path d="M24336 43148 c-47 -139 -86 -256 -86 -260 0 -5 17 -8 38 -8 l38 0 28
85 27 85 129 0 129 0 27 -85 28 -85 43 0 42 0 -33 93 c-18 50 -59 167 -91 260
l-57 167 -88 0 -87 0 -87 -252z m242 84 c18 -54 32 -101 32 -105 0 -4 -45 -7
-100 -7 -55 0 -100 4 -100 8 0 11 57 179 65 192 3 5 21 10 38 10 32 0 33 -1
65 -98z"/>
<path d="M24850 43140 l0 -260 35 0 35 0 2 222 c3 189 5 223 18 226 10 2 60
-71 154 -223 l138 -225 44 0 44 0 0 260 0 260 -35 0 -35 0 -2 -197 -3 -196
-120 196 -120 197 -77 0 -78 0 0 -260z"/>
<path d="M18772 39746 c-252 -82 -274 -449 -34 -559 36 -16 66 -22 127 -22 97
0 153 23 214 85 138 143 92 403 -87 482 -59 26 -162 33 -220 14z m149 -97
c101 -34 157 -164 113 -267 -64 -155 -264 -160 -335 -7 -71 153 68 325 222
274z"/>
<path d="M22655 39747 c-96 -32 -140 -93 -133 -182 8 -101 60 -137 220 -155
101 -10 125 -21 134 -55 8 -33 1 -50 -30 -70 -57 -37 -163 -27 -208 20 -19 21
-32 25 -81 25 l-58 0 17 -32 c41 -82 111 -126 212 -135 76 -6 133 6 183 40
102 69 106 197 9 269 -25 18 -88 32 -193 44 -65 6 -97 29 -97 67 0 79 149 103
224 36 28 -24 42 -29 85 -29 37 0 51 4 51 14 0 28 -65 99 -113 124 -58 30
-161 39 -222 19z"/>
<path d="M17930 39700 l0 -50 95 0 95 0 0 -240 0 -240 55 0 55 0 0 240 0 240
95 0 95 0 0 50 0 50 -245 0 -245 0 0 -50z"/>
<path d="M19360 39460 l0 -290 55 0 55 0 0 110 0 110 103 0 c127 0 171 12 218
59 90 90 47 256 -76 290 -22 6 -111 11 -197 11 l-158 0 0 -290z m341 161 c35
-36 37 -61 5 -98 -23 -27 -28 -28 -130 -31 l-106 -4 0 81 0 81 101 0 c98 0
101 -1 130 -29z"/>
<path d="M20290 39460 l0 -290 55 0 55 0 2 191 3 190 110 -185 c60 -102 112
-186 115 -186 3 0 55 84 115 188 l110 187 3 -192 2 -193 55 0 55 0 0 290 0
291 -62 -3 -62 -3 -101 -173 c-56 -95 -106 -176 -111 -181 -5 -6 -50 63 -114
174 l-105 184 -62 1 -63 0 0 -290z"/>
<path d="M21200 39460 l0 -290 200 0 200 0 0 50 0 50 -145 0 -145 0 0 70 0 70
140 0 140 0 0 50 0 50 -140 0 -140 0 0 70 0 70 145 0 145 0 0 50 0 50 -200 0
-200 0 0 -290z"/>
<path d="M21810 39460 l0 -290 55 0 55 0 2 201 3 200 140 -200 140 -200 63 -1
62 0 0 290 0 290 -55 0 -55 0 -2 -202 -3 -202 -141 200 -141 199 -62 3 -61 3
0 -291z"/>
<path d="M23122 39738 c3 -7 47 -138 97 -290 l93 -278 58 0 59 0 61 193 c81
255 74 242 92 182 9 -27 39 -123 68 -213 l53 -163 60 3 60 3 94 280 c51 154
93 283 93 288 0 4 -26 7 -57 5 l-57 -3 -65 -197 c-36 -109 -68 -198 -72 -198
-3 0 -34 90 -70 200 l-64 200 -60 0 -61 0 -64 -205 c-35 -112 -66 -202 -69
-199 -3 3 -36 94 -72 202 l-66 197 -58 3 c-44 2 -56 0 -53 -10z"/>
<path d="M24180 39460 l0 -290 200 0 200 0 0 50 0 50 -145 0 -145 0 0 70 0 70
140 0 140 0 0 50 0 50 -140 0 -140 0 0 70 0 70 145 0 145 0 0 50 0 50 -200 0
-200 0 0 -290z"/>
<path d="M24961 39728 c-5 -13 -55 -129 -111 -258 -56 -129 -108 -250 -115
-267 l-14 -33 58 0 58 0 28 65 27 65 132 0 132 0 28 -65 28 -65 59 0 c32 0 59
1 59 3 0 1 -56 130 -123 287 l-124 285 -56 3 c-52 3 -58 1 -66 -20z m140 -305
c8 -23 8 -23 -76 -23 -47 0 -85 2 -85 4 0 2 14 35 31 73 17 37 36 79 41 93 10
24 12 21 45 -50 19 -41 39 -85 44 -97z"/>
<path d="M25490 39460 l0 -290 55 0 55 0 0 111 0 110 121 -110 122 -111 76 0
76 1 -115 109 c-83 79 -109 109 -95 110 84 1 167 65 180 138 11 69 -3 122 -44
163 -50 50 -91 59 -273 59 l-158 0 0 -290z m341 161 c35 -36 37 -61 5 -98 -23
-27 -28 -28 -130 -31 l-106 -4 0 81 0 81 101 0 c98 0 101 -1 130 -29z"/>
<path d="M1530 37040 l0 -1050 5135 0 5135 0 0 1050 0 1050 -5135 0 -5135 0 0
-1050z m4414 196 c31 -13 76 -59 76 -77 0 -15 -63 -10 -84 6 -29 22 -93 19
-105 -4 -14 -26 4 -39 65 -47 87 -12 124 -42 124 -101 0 -114 -202 -142 -263
-35 l-19 32 40 0 c23 0 45 -6 52 -15 17 -20 93 -20 110 1 21 24 -8 44 -81 54
-75 11 -109 40 -109 93 0 83 102 132 194 93z m1080 0 c31 -13 76 -59 76 -77 0
-15 -63 -10 -84 6 -29 22 -93 19 -105 -4 -14 -26 4 -39 65 -47 87 -12 124 -42
124 -101 0 -114 -202 -142 -263 -35 l-19 32 40 0 c23 0 45 -6 52 -15 17 -20
93 -20 110 1 21 24 -8 44 -81 54 -75 11 -109 40 -109 93 0 83 102 132 194 93z
m-1420 -150 c36 -85 66 -157 66 -160 0 -3 -16 -6 -35 -6 -31 0 -38 5 -52 35
-17 35 -17 35 -84 35 l-67 0 -12 -35 c-11 -32 -15 -35 -51 -35 -22 0 -38 3
-36 8 3 4 30 68 62 142 76 179 70 170 109 170 l34 0 66 -154z m586 -6 l0 -160
-35 0 -35 0 0 160 0 160 35 0 35 0 0 -160z m364 6 c36 -85 66 -157 66 -160 0
-3 -16 -6 -35 -6 -31 0 -38 5 -52 35 -17 35 -17 35 -84 35 l-67 0 -12 -35
c-11 -32 -15 -35 -51 -35 -22 0 -38 3 -36 8 3 4 30 68 62 142 76 179 70 170
109 170 l34 0 66 -154z m726 -6 l0 -160 -35 0 -35 0 0 160 0 160 35 0 35 0 0
-160z m360 124 c0 -31 -11 -48 -81 -125 l-81 -89 81 0 81 0 0 -35 0 -35 -130
0 -130 0 0 33 c0 26 16 49 82 122 l82 90 -82 3 -82 3 0 34 0 35 130 0 130 0 0
-36z m330 1 l0 -35 -75 0 -75 0 0 -30 0 -30 75 0 75 0 0 -35 0 -35 -75 0 c-73
0 -75 -1 -75 -25 0 -24 2 -25 75 -25 l75 0 0 -35 0 -35 -110 0 -110 0 0 160 0
160 110 0 110 0 0 -35z"/>
<path d="M5486 37102 c-21 -41 -21 -42 14 -42 33 0 37 12 16 49 l-14 25 -16
-32z"/>
<path d="M6436 37102 c-21 -41 -21 -42 14 -42 33 0 37 12 16 49 l-14 25 -16
-32z"/>
<path d="M11840 37040 l0 -1050 5133 2 5132 3 3 1048 2 1047 -5135 0 -5135 0
0 -1050z m4416 291 c35 -16 84 -66 84 -85 0 -14 -79 -4 -115 14 -25 13 -49 18
-65 15 -60 -15 -100 -89 -80 -149 23 -72 82 -99 145 -66 36 18 115 28 115 14
0 -19 -49 -69 -84 -85 -85 -38 -184 -11 -234 64 -23 34 -27 52 -27 107 0 55 4
73 27 107 50 75 149 103 234 64z m1234 -3 c25 -13 53 -37 63 -55 l19 -33 -45
0 c-26 0 -49 6 -56 14 -29 35 -121 25 -121 -13 0 -26 22 -37 93 -45 98 -12
145 -73 113 -149 -19 -47 -54 -68 -123 -74 -71 -6 -137 24 -166 75 l-19 32 43
0 c26 0 50 -7 61 -17 19 -17 94 -23 116 -9 18 11 14 44 -5 54 -10 5 -42 12
-72 16 -78 10 -108 29 -122 75 -10 33 -9 45 7 78 35 71 129 94 214 51z m-958
-60 l3 -73 75 0 75 0 3 73 3 72 39 0 40 0 0 -180 0 -180 -40 0 -40 0 0 70 0
70 -80 0 -80 0 0 -70 0 -70 -40 0 -40 0 0 180 0 180 40 0 39 0 3 -72z m618 37
l0 -34 -82 -3 -83 -3 0 -35 0 -35 83 -3 82 -3 0 -34 0 -35 -86 0 -85 0 3 -32
3 -33 83 -3 82 -3 0 -34 0 -35 -125 0 -125 0 0 180 0 180 125 0 125 0 0 -35z
m810 0 l0 -35 -55 0 -55 0 0 -145 0 -145 -40 0 -39 0 -3 143 -3 142 -57 3 -58
3 0 34 0 35 155 0 155 0 0 -35z m-1144 -474 c35 -16 84 -66 84 -85 0 -14 -79
-4 -115 14 -25 13 -49 18 -65 15 -60 -15 -100 -89 -80 -149 23 -72 82 -99 145
-66 36 18 115 28 115 14 0 -19 -49 -69 -84 -85 -85 -38 -184 -11 -234 64 -23
34 -27 52 -27 107 0 55 4 73 27 107 50 75 149 103 234 64z m-354 -48 c-23 -49
-27 -71 -26 -138 0 -78 3 -87 52 -188 2 -5 -11 -7 -29 -5 -90 9 -128 211 -64
339 23 44 29 49 60 49 l34 0 -27 -57z m638 -69 c30 -69 57 -127 61 -130 4 -2
33 55 64 126 l58 130 44 0 43 0 0 -180 0 -180 -40 0 -39 0 -3 92 -3 93 -40
-93 -39 -93 -45 3 -45 3 -36 82 c-20 46 -40 86 -43 90 -4 3 -7 -35 -7 -85 l0
-92 -40 0 -40 0 0 180 0 180 48 0 47 0 55 -126z m477 69 c39 -86 39 -187 -2
-268 -26 -53 -34 -60 -62 -63 -18 -2 -33 -1 -33 1 0 3 12 31 27 63 39 82 39
184 1 267 l-27 57 35 0 c33 0 37 -3 61 -57z"/>
<path d="M22140 37040 l0 -1050 5135 0 5135 0 0 1050 0 1050 -5135 0 -5135 0
0 -1050z m5584 306 c31 -13 76 -59 76 -77 0 -15 -63 -10 -84 6 -29 22 -93 19
-105 -4 -14 -26 4 -39 65 -47 87 -12 124 -42 124 -101 0 -114 -202 -142 -263
-35 l-19 32 40 0 c23 0 45 -6 52 -15 17 -20 93 -20 110 1 21 24 -8 44 -81 54
-75 11 -109 40 -109 93 0 83 102 132 194 93z m-1233 -96 c18 -55 36 -96 40
-92 3 4 19 49 34 100 l28 92 38 0 37 0 32 -100 c17 -55 32 -100 35 -100 2 0
18 45 36 100 l33 100 37 0 36 0 -51 -160 -51 -161 -39 3 -40 3 -31 104 c-18
57 -34 100 -37 95 -2 -5 -18 -53 -34 -107 l-29 -98 -40 3 -39 3 -48 150 c-26
83 -48 153 -48 158 0 4 15 7 34 7 l35 0 32 -100z m713 -54 c36 -85 66 -157 66
-160 0 -3 -16 -6 -35 -6 -31 0 -38 5 -52 35 -17 35 -17 35 -84 35 l-67 0 -12
-35 c-11 -32 -15 -35 -51 -35 -22 0 -38 3 -36 8 3 4 30 68 62 142 76 179 70
170 109 170 l34 0 66 -154z m226 -6 l0 -160 -35 0 -35 0 0 160 0 160 35 0 35
0 0 -160z m720 125 l0 -35 -50 0 -50 0 0 -125 0 -125 -35 0 -35 0 0 125 0 125
-50 0 -50 0 0 35 0 35 135 0 135 0 0 -35z m-1398 -442 c-23 -49 -27 -71 -26
-138 0 -78 3 -87 52 -188 2 -5 -11 -7 -29 -5 -90 9 -128 211 -64 339 23 44 29
49 60 49 l34 0 -27 -57z m1115 0 c39 -86 39 -187 -2 -268 -26 -53 -34 -60 -62
-63 -18 -2 -33 -1 -33 1 0 3 12 31 27 63 39 82 39 184 1 267 l-27 57 35 0 c33
0 37 -3 61 -57z m-761 28 c35 -16 84 -66 84 -85 0 -14 -79 -4 -115 14 -63 33
-122 6 -145 -66 -20 -60 20 -134 80 -149 16 -3 40 2 65 15 36 18 115 28 115
14 0 -19 -49 -69 -84 -85 -85 -38 -184 -11 -234 64 -23 34 -27 52 -27 107 0
55 4 73 27 107 50 75 149 103 234 64z m284 -117 c30 -69 57 -127 61 -130 4 -2
33 55 64 126 l58 130 44 0 43 0 0 -180 0 -180 -40 0 -39 0 -3 92 -3 93 -40
-93 -39 -93 -45 3 -45 3 -36 82 c-20 46 -40 86 -43 90 -4 3 -7 -35 -7 -85 l0
-92 -40 0 -40 0 0 180 0 180 48 0 47 0 55 -126z"/>
<path d="M27086 37212 c-21 -41 -21 -42 14 -42 33 0 37 12 16 49 l-14 25 -16
-32z"/>
<path d="M32440 37040 l0 -1050 5135 0 5135 0 0 1050 0 1050 -5135 0 -5135 0
0 -1050z m4790 245 l0 -65 70 0 70 0 0 65 0 65 35 0 35 0 0 -160 0 -160 -35 0
-35 0 0 60 0 60 -70 0 -70 0 0 -60 0 -60 -35 0 -35 0 0 160 0 160 35 0 35 0 0
-65z m400 -95 l0 -160 -35 0 -35 0 0 160 0 160 35 0 35 0 0 -160z m329 149
c33 -12 61 -52 61 -89 0 -37 -28 -77 -61 -89 -18 -6 -56 -11 -85 -11 l-54 0 0
-60 0 -60 -35 0 -35 0 0 160 0 160 89 0 c48 0 102 -5 120 -11z m-897 -466
c-23 -49 -27 -71 -26 -138 0 -78 3 -87 52 -188 2 -5 -11 -7 -29 -5 -90 9 -128
211 -64 339 23 44 29 49 60 49 l34 0 -27 -57z m1105 0 c39 -86 39 -187 -2
-268 -26 -53 -34 -60 -62 -63 -18 -2 -33 -1 -33 1 0 3 12 31 27 63 39 82 39
184 1 267 l-27 57 35 0 c33 0 37 -3 61 -57z m-761 28 c35 -16 84 -66 84 -85 0
-14 -79 -4 -115 14 -63 33 -122 6 -145 -66 -20 -60 20 -134 80 -149 16 -3 40
2 65 15 36 18 115 28 115 14 0 -19 -49 -69 -84 -85 -85 -38 -184 -11 -234 64
-23 34 -27 52 -27 107 0 55 4 73 27 107 50 75 149 103 234 64z m284 -117 c30
-69 57 -127 61 -130 4 -2 33 55 64 126 l58 130 44 0 43 0 0 -180 0 -180 -40 0
-39 0 -3 92 -3 93 -40 -93 -39 -93 -45 3 -45 3 -36 82 c-20 46 -40 86 -43 90
-4 3 -7 -35 -7 -85 l0 -92 -40 0 -40 0 0 180 0 180 48 0 47 0 55 -126z"/>
<path d="M37820 37250 l0 -31 58 3 c53 3 57 5 57 28 0 23 -4 25 -57 28 l-58 3
0 -31z"/>
<path d="M6600 33109 c-64 -26 -94 -91 -69 -150 15 -37 75 -68 132 -69 48 0
77 -15 77 -39 0 -37 -91 -44 -133 -11 -26 20 -81 27 -91 11 -10 -15 38 -75 74
-93 42 -21 118 -23 163 -4 50 21 72 52 72 101 0 68 -58 115 -140 115 -20 0
-45 5 -56 10 -23 13 -25 46 -3 54 28 11 80 6 100 -9 10 -8 39 -15 62 -15 l44
0 -19 32 c-37 64 -139 96 -213 67z"/>
<path d="M16163 33105 c-33 -14 -63 -59 -63 -95 0 -12 7 -35 16 -51 14 -28 14
-32 -1 -49 -9 -10 -17 -34 -18 -53 -3 -124 196 -163 269 -52 19 30 14 87 -11
115 -13 15 -13 19 -1 29 39 33 19 117 -36 151 -39 23 -108 26 -155 5z m115
-77 c19 -19 14 -37 -12 -49 -36 -17 -76 -4 -76 25 0 12 3 26 7 29 11 12 68 8
81 -5z m7 -173 c0 -29 -2 -30 -44 -30 -51 0 -74 22 -51 50 9 11 26 15 54 13
38 -3 41 -5 41 -33z"/>
<path d="M16572 33100 c-46 -29 -72 -89 -72 -173 0 -77 15 -121 55 -157 23
-21 36 -25 92 -25 62 0 66 2 99 37 28 31 34 46 34 82 0 77 -66 132 -147 123
-47 -5 -56 8 -25 36 21 19 57 22 67 7 3 -5 29 -10 56 -10 l50 0 -16 30 c-34
66 -127 90 -193 50z m119 -211 c18 -35 -3 -69 -44 -69 -38 0 -57 15 -57 45 0
30 19 45 57 45 23 0 36 -6 44 -21z"/>
<path d="M17210 33102 c-65 -32 -86 -116 -45 -179 23 -34 80 -56 132 -50 47 5
50 2 27 -31 -16 -23 -58 -30 -69 -12 -3 6 -29 10 -56 10 l-50 0 16 -30 c21
-40 71 -70 118 -70 93 0 142 66 142 195 0 58 -5 89 -18 113 -36 67 -124 91
-197 54z m118 -74 c7 -7 12 -21 12 -33 0 -30 -19 -45 -55 -45 -36 0 -55 15
-55 45 0 30 19 45 55 45 17 0 36 -5 43 -12z"/>
<path d="M17621 33103 c-52 -27 -81 -90 -81 -173 0 -125 62 -196 163 -187 83
7 137 81 137 187 0 106 -54 180 -137 187 -33 3 -58 -1 -82 -14z m116 -93 c7
-14 13 -50 13 -80 0 -73 -17 -104 -57 -108 -45 -4 -66 31 -66 108 0 77 21 112
66 108 22 -2 35 -11 44 -28z"/>
<path d="M26905 33110 c-27 -11 -71 -60 -80 -87 -6 -21 -3 -23 37 -23 32 0 46
5 56 20 17 27 68 27 82 -1 16 -28 -3 -55 -95 -131 -68 -58 -74 -66 -75 -100
l0 -38 136 0 135 0 -3 38 -3 37 -68 3 -68 3 47 39 c25 21 55 51 65 67 22 32
24 87 6 123 -23 47 -115 74 -172 50z"/>
<path d="M27872 33100 c-46 -29 -72 -89 -72 -173 0 -77 15 -121 55 -157 23
-21 36 -25 92 -25 62 0 66 2 99 37 28 31 34 46 34 82 0 77 -66 132 -147 123
-47 -5 -56 8 -25 36 21 19 57 22 67 7 3 -5 29 -10 56 -10 l50 0 -16 30 c-34
66 -127 90 -193 50z m119 -211 c18 -35 -3 -69 -44 -69 -38 0 -57 15 -57 45 0
30 19 45 57 45 23 0 36 -6 44 -21z"/>
<path d="M36783 33105 c-33 -14 -63 -59 -63 -95 0 -12 7 -35 16 -51 14 -28 14
-32 -1 -49 -9 -10 -17 -34 -18 -53 -3 -124 196 -163 269 -52 19 30 14 87 -11
115 -13 15 -13 19 -1 29 39 33 19 117 -36 151 -39 23 -108 26 -155 5z m115
-77 c19 -19 14 -37 -12 -49 -36 -17 -76 -4 -76 25 0 12 3 26 7 29 11 12 68 8
81 -5z m7 -173 c0 -29 -2 -30 -44 -30 -51 0 -74 22 -51 50 9 11 26 15 54 13
38 -3 41 -5 41 -33z"/>
<path d="M37183 33105 c-33 -14 -63 -59 -63 -95 0 -12 7 -35 16 -51 14 -28 14
-32 -1 -49 -9 -10 -17 -34 -18 -53 -3 -124 196 -163 269 -52 19 30 14 87 -11
115 -13 15 -13 19 -1 29 39 33 19 117 -36 151 -39 23 -108 26 -155 5z m115
-77 c19 -19 14 -37 -12 -49 -36 -17 -76 -4 -76 25 0 12 3 26 7 29 11 12 68 8
81 -5z m7 -173 c0 -29 -2 -30 -44 -30 -51 0 -74 22 -51 50 9 11 26 15 54 13
38 -3 41 -5 41 -33z"/>
<path d="M37840 33102 c-65 -32 -86 -116 -45 -179 23 -34 80 -56 132 -50 47 5
50 2 27 -31 -16 -23 -58 -30 -69 -12 -3 6 -29 10 -56 10 l-50 0 16 -30 c21
-40 71 -70 118 -70 93 0 142 66 142 195 0 58 -5 89 -18 113 -36 67 -124 91
-197 54z m118 -74 c7 -7 12 -21 12 -33 0 -30 -19 -45 -55 -45 -36 0 -55 15
-55 45 0 30 19 45 55 45 17 0 36 -5 43 -12z"/>
<path d="M38245 33110 c-27 -11 -71 -60 -80 -87 -6 -21 -3 -23 37 -23 32 0 46
5 56 20 17 27 68 27 82 -1 16 -28 -3 -55 -95 -131 -68 -58 -74 -66 -75 -100
l0 -38 136 0 135 0 -3 38 -3 37 -68 3 -68 3 47 39 c25 21 55 51 65 67 22 32
24 87 6 123 -23 47 -115 74 -172 50z"/>
<path d="M26470 33070 l0 -39 84 -3 84 -3 -79 -133 c-43 -73 -79 -135 -79
-138 0 -2 20 -4 45 -4 l44 0 86 143 c66 111 85 151 85 180 l0 37 -135 0 -135
0 0 -40z"/>
<path d="M27440 33070 l0 -39 84 -3 84 -3 -79 -133 c-43 -73 -79 -135 -79
-138 0 -2 20 -4 45 -4 l44 0 86 143 c66 111 85 151 85 180 l0 37 -135 0 -135
0 0 -40z"/>
<path d="M16890 32890 l0 -40 75 0 75 0 0 40 0 40 -75 0 -75 0 0 -40z"/>
<path d="M27210 32890 l0 -40 75 0 75 0 0 40 0 40 -75 0 -75 0 0 -40z"/>
<path d="M37510 32890 l0 -40 75 0 75 0 0 40 0 40 -75 0 -75 0 0 -40z"/>
<path d="M16163 30974 c-43 -21 -66 -60 -66 -109 0 -79 66 -133 149 -121 47 6
49 5 34 -24 -17 -32 -43 -41 -74 -24 -36 18 -96 19 -96 0 0 -7 11 -25 25 -40
65 -70 168 -58 215 27 33 57 35 185 5 237 -37 63 -123 88 -192 54z m115 -77
c21 -17 10 -60 -19 -76 -24 -13 -29 -13 -53 2 -32 22 -34 60 -4 81 22 16 51
13 76 -7z"/>
<path d="M16570 30972 c-51 -28 -75 -82 -75 -172 0 -56 5 -85 21 -114 37 -72
129 -98 194 -53 55 37 75 81 75 167 0 58 -5 83 -21 110 -43 74 -123 99 -194
62z m104 -75 c67 -67 20 -247 -54 -207 -26 14 -50 67 -50 110 0 57 37 118 73
120 4 0 18 -11 31 -23z"/>
<path d="M17233 30974 c-43 -21 -66 -60 -66 -109 0 -79 66 -133 149 -121 47 6
49 5 34 -24 -17 -32 -43 -41 -74 -24 -36 18 -96 19 -96 0 0 -7 11 -25 25 -40
65 -70 168 -58 215 27 33 57 35 185 5 237 -37 63 -123 88 -192 54z m115 -77
c21 -17 10 -60 -19 -76 -24 -13 -29 -13 -53 2 -32 22 -34 60 -4 81 22 16 51
13 76 -7z"/>
<path d="M26854 30976 c-47 -21 -76 -76 -82 -154 -6 -86 10 -144 48 -176 89
-74 230 -20 230 89 0 77 -75 135 -156 122 -42 -7 -46 12 -7 42 24 20 28 20 49
6 30 -19 104 -20 104 -1 0 7 -11 25 -25 40 -43 46 -101 58 -161 32z m104 -208
c6 -6 12 -21 12 -33 0 -25 -14 -39 -47 -49 -30 -9 -74 32 -66 62 9 37 65 48
101 20z"/>
<path d="M27492 30973 c-34 -17 -62 -58 -62 -92 0 -26 21 -71 32 -71 5 0 0
-12 -11 -26 -13 -17 -21 -41 -21 -66 0 -107 179 -147 254 -57 31 36 33 73 7
115 -16 26 -17 33 -5 49 19 26 18 85 -2 114 -34 48 -129 65 -192 34z m102 -63
c46 -17 27 -70 -25 -70 -37 0 -62 25 -49 50 9 17 24 27 42 29 4 1 18 -3 32 -9z
m23 -167 c26 -34 -24 -71 -72 -53 -37 14 -43 39 -15 62 27 21 67 17 87 -9z"/>
<path d="M27900 30972 c-51 -28 -75 -82 -75 -172 0 -56 5 -85 21 -114 37 -72
129 -98 194 -53 55 37 75 81 75 167 0 58 -5 83 -21 110 -43 74 -123 99 -194
62z m104 -75 c67 -67 20 -247 -54 -207 -26 14 -50 67 -50 110 0 57 37 118 73
120 4 0 18 -11 31 -23z"/>
<path d="M36793 30974 c-43 -21 -66 -60 -66 -109 0 -79 66 -133 149 -121 47 6
49 5 34 -24 -17 -32 -43 -41 -74 -24 -36 18 -96 19 -96 0 0 -7 11 -25 25 -40
65 -70 168 -58 215 27 33 57 35 185 5 237 -37 63 -123 88 -192 54z m115 -77
c21 -17 10 -60 -19 -76 -24 -13 -29 -13 -53 2 -32 22 -34 60 -4 81 22 16 51
13 76 -7z"/>
<path d="M37182 30970 c-29 -18 -72 -73 -72 -92 0 -5 18 -8 40 -8 28 0 46 7
64 25 30 30 37 31 67 6 20 -16 21 -21 10 -47 -6 -16 -47 -58 -91 -94 -73 -60
-79 -68 -80 -102 l0 -38 135 0 135 0 0 35 0 35 -70 0 c-38 0 -70 3 -70 8 1 4
23 25 50 47 53 43 80 87 80 130 0 91 -113 146 -198 95z"/>
<path d="M37823 30974 c-43 -21 -66 -60 -66 -109 0 -79 66 -133 149 -121 47 6
49 5 34 -24 -17 -32 -43 -41 -74 -24 -36 18 -96 19 -96 0 0 -7 11 -25 25 -40
65 -70 168 -58 215 27 33 57 35 185 5 237 -37 63 -123 88 -192 54z m115 -77
c21 -17 10 -60 -19 -76 -24 -13 -29 -13 -53 2 -32 22 -34 60 -4 81 22 16 51
13 76 -7z"/>
<path d="M38234 30976 c-47 -21 -76 -76 -82 -154 -6 -86 10 -144 48 -176 89
-74 230 -20 230 89 0 77 -75 135 -156 122 -42 -7 -46 12 -7 42 24 20 28 20 49
6 30 -19 104 -20 104 -1 0 7 -11 25 -25 40 -43 46 -101 58 -161 32z m104 -208
c6 -6 12 -21 12 -33 0 -25 -14 -39 -47 -49 -30 -9 -74 32 -66 62 9 37 65 48
101 20z"/>
<path d="M6460 30800 l0 -180 40 0 40 0 0 92 c0 50 3 88 7 85 3 -4 23 -44 43
-90 l36 -82 45 -3 45 -3 39 93 40 93 3 -93 3 -92 39 0 40 0 0 180 0 180 -43 0
-44 0 -58 -130 c-31 -71 -60 -128 -64 -126 -4 3 -31 61 -61 130 l-55 126 -47
0 -48 0 0 -180z"/>
<path d="M17625 30874 c-69 -86 -85 -112 -85 -140 l0 -34 90 0 90 0 0 -40 c0
-40 0 -40 39 -40 39 0 40 1 43 38 3 32 7 37 31 40 24 3 27 8 27 38 0 31 -2 34
-30 34 -28 0 -30 3 -30 35 0 34 -1 35 -40 35 -39 0 -40 -1 -40 -35 0 -34 -1
-35 -42 -35 -38 0 -40 1 -26 18 76 91 148 181 148 186 0 3 -20 6 -45 6 l-44 0
-86 -106z"/>
<path d="M26420 30945 l0 -35 86 0 c101 0 101 12 10 -139 -98 -164 -94 -151
-43 -151 l44 0 87 144 c65 110 86 153 86 180 l0 36 -135 0 -135 0 0 -35z"/>
<path d="M16910 30760 l0 -40 75 0 75 0 0 40 0 40 -75 0 -75 0 0 -40z"/>
<path d="M27160 30760 l0 -40 75 0 75 0 0 40 0 40 -75 0 -75 0 0 -40z"/>
<path d="M37490 30760 l0 -40 75 0 75 0 0 40 0 40 -75 0 -75 0 0 -40z"/>
<path d="M16170 28842 c-65 -32 -86 -116 -45 -179 23 -34 80 -56 132 -50 47 5
50 2 27 -31 -16 -23 -58 -30 -69 -12 -3 6 -29 10 -56 10 l-50 0 16 -30 c21
-40 71 -70 118 -70 93 0 142 66 142 195 0 58 -5 89 -18 113 -36 67 -124 91
-197 54z m118 -74 c7 -7 12 -21 12 -33 0 -30 -19 -45 -55 -45 -36 0 -55 15
-55 45 0 30 19 45 55 45 17 0 36 -5 43 -12z"/>
<path d="M17220 28842 c-65 -32 -86 -116 -45 -179 23 -34 80 -56 132 -50 47 5
50 2 27 -31 -16 -23 -58 -30 -69 -12 -3 6 -29 10 -56 10 l-50 0 16 -30 c21
-40 71 -70 118 -70 93 0 142 66 142 195 0 58 -5 89 -18 113 -36 67 -124 91
-197 54z m118 -74 c7 -7 12 -21 12 -33 0 -30 -19 -45 -55 -45 -36 0 -55 15
-55 45 0 30 19 45 55 45 17 0 36 -5 43 -12z"/>
<path d="M17613 28845 c-33 -14 -63 -59 -63 -95 0 -12 7 -35 16 -51 14 -28 14
-32 -1 -49 -9 -10 -17 -34 -18 -53 -3 -124 196 -163 269 -52 19 30 14 87 -11
115 -13 15 -13 19 -1 29 39 33 19 117 -36 151 -39 23 -108 26 -155 5z m115
-77 c19 -19 14 -37 -12 -49 -36 -17 -76 -4 -76 25 0 12 3 26 7 29 11 12 68 8
81 -5z m7 -173 c0 -29 -2 -30 -44 -30 -51 0 -74 22 -51 50 9 11 26 15 54 13
38 -3 41 -5 41 -33z"/>
<path d="M26463 28845 c-33 -14 -63 -59 -63 -95 0 -12 7 -35 16 -51 14 -28 14
-32 -1 -49 -9 -10 -17 -34 -18 -53 -3 -124 196 -163 269 -52 19 30 14 87 -11
115 -13 15 -13 19 -1 29 39 33 19 117 -36 151 -39 23 -108 26 -155 5z m115
-77 c19 -19 14 -37 -12 -49 -36 -17 -76 -4 -76 25 0 12 3 26 7 29 11 12 68 8
81 -5z m7 -173 c0 -29 -2 -30 -44 -30 -51 0 -74 22 -51 50 9 11 26 15 54 13
38 -3 41 -5 41 -33z"/>
<path d="M26881 28843 c-52 -27 -81 -90 -81 -173 0 -125 62 -196 163 -187 83
7 137 81 137 187 0 106 -54 180 -137 187 -33 3 -58 -1 -82 -14z m116 -93 c7
-14 13 -50 13 -80 0 -73 -17 -104 -57 -108 -45 -4 -66 31 -66 108 0 77 21 112
66 108 22 -2 35 -11 44 -28z"/>
<path d="M27533 28845 c-33 -14 -63 -59 -63 -95 0 -12 7 -35 16 -51 14 -28 14
-32 -1 -49 -9 -10 -17 -34 -18 -53 -3 -124 196 -163 269 -52 19 30 14 87 -11
115 -13 15 -13 19 -1 29 39 33 19 117 -36 151 -39 23 -108 26 -155 5z m115
-77 c19 -19 14 -37 -12 -49 -36 -17 -76 -4 -76 25 0 12 3 26 7 29 11 12 68 8
81 -5z m7 -173 c0 -29 -2 -30 -44 -30 -51 0 -74 22 -51 50 9 11 26 15 54 13
38 -3 41 -5 41 -33z"/>
<path d="M36620 28842 c-65 -32 -86 -116 -45 -179 23 -34 80 -56 132 -50 47 5
50 2 27 -31 -16 -23 -58 -30 -69 -12 -3 6 -29 10 -56 10 l-50 0 16 -30 c21
-40 71 -70 118 -70 93 0 142 66 142 195 0 58 -5 89 -18 113 -36 67 -124 91
-197 54z m118 -74 c7 -7 12 -21 12 -33 0 -30 -19 -45 -55 -45 -36 0 -55 15
-55 45 0 30 19 45 55 45 17 0 36 -5 43 -12z"/>
<path d="M37022 28840 c-46 -29 -72 -89 -72 -173 0 -77 15 -121 55 -157 23
-21 36 -25 92 -25 62 0 66 2 99 37 28 31 34 46 34 82 0 77 -66 132 -147 123
-47 -5 -56 8 -25 36 21 19 57 22 67 7 3 -5 29 -10 56 -10 l50 0 -16 30 c-34
66 -127 90 -193 50z m119 -211 c18 -35 -3 -69 -44 -69 -38 0 -57 15 -57 45 0
30 19 45 57 45 23 0 36 -6 44 -21z"/>
<path d="M37961 28843 c-52 -27 -81 -90 -81 -173 0 -125 62 -196 163 -187 83
7 137 81 137 187 0 106 -54 180 -137 187 -33 3 -58 -1 -82 -14z m116 -93 c7
-14 13 -50 13 -80 0 -73 -17 -104 -57 -108 -45 -4 -66 31 -66 108 0 77 21 112
66 108 22 -2 35 -11 44 -28z"/>
<path d="M38381 28843 c-52 -27 -81 -90 -81 -173 0 -125 62 -196 163 -187 83
7 137 81 137 187 0 106 -54 180 -137 187 -33 3 -58 -1 -82 -14z m116 -93 c7
-14 13 -50 13 -80 0 -73 -17 -104 -57 -108 -45 -4 -66 31 -66 108 0 77 21 112
66 108 22 -2 35 -11 44 -28z"/>
<path d="M6550 28670 l0 -180 131 0 130 0 -3 38 -3 37 -87 3 -88 3 0 139 0
140 -40 0 -40 0 0 -180z"/>
<path d="M16576 28746 c-77 -93 -86 -109 -86 -145 l0 -41 90 0 90 0 0 -35 c0
-34 1 -35 40 -35 39 0 40 1 40 34 0 30 3 35 28 38 23 3 27 8 30 41 3 35 2 37
-27 37 -29 0 -31 3 -31 35 0 34 -1 35 -40 35 -39 0 -40 -1 -40 -35 0 -34 -1
-35 -42 -35 -38 0 -40 1 -26 18 56 65 148 181 148 186 0 3 -20 6 -44 6 -44 0
-45 -1 -130 -104z"/>
<path d="M27936 28746 c-77 -93 -86 -109 -86 -145 l0 -41 90 0 90 0 0 -35 c0
-34 1 -35 40 -35 39 0 40 1 40 34 0 30 3 35 28 38 23 3 27 8 30 41 3 35 2 37
-27 37 -29 0 -31 3 -31 35 0 34 -1 35 -40 35 -39 0 -40 -1 -40 -35 0 -34 -1
-35 -42 -35 -38 0 -40 1 -26 18 56 65 148 181 148 186 0 3 -20 6 -44 6 -44 0
-45 -1 -130 -104z"/>
<path d="M37627 28817 c-33 -29 -37 -37 -37 -80 l0 -48 35 27 35 26 0 -126 0
-126 45 0 45 0 0 180 0 180 -42 0 c-34 -1 -51 -8 -81 -33z"/>
<path d="M16900 28630 l0 -40 75 0 75 0 0 40 0 40 -75 0 -75 0 0 -40z"/>
<path d="M27210 28630 l0 -40 75 0 75 0 0 40 0 40 -75 0 -75 0 0 -40z"/>
<path d="M37340 28630 l0 -40 75 0 75 0 0 40 0 40 -75 0 -75 0 0 -40z"/>
<path d="M16033 26574 c-43 -21 -66 -60 -66 -109 0 -79 66 -133 149 -121 47 6
49 5 34 -24 -17 -32 -43 -41 -74 -24 -36 18 -96 19 -96 0 0 -7 11 -25 25 -40
65 -70 168 -58 215 27 33 57 35 185 5 237 -37 63 -123 88 -192 54z m115 -77
c21 -17 10 -60 -19 -76 -24 -13 -29 -13 -53 2 -32 22 -34 60 -4 81 22 16 51
13 76 -7z"/>
<path d="M16422 26573 c-34 -17 -62 -58 -62 -92 0 -26 21 -71 32 -71 5 0 0
-12 -11 -26 -13 -17 -21 -41 -21 -66 0 -107 179 -147 254 -57 31 36 33 73 7
115 -16 26 -17 33 -5 49 19 26 18 85 -2 114 -34 48 -129 65 -192 34z m102 -63
c46 -17 27 -70 -25 -70 -37 0 -62 25 -49 50 9 17 24 27 42 29 4 1 18 -3 32 -9z
m23 -167 c26 -34 -24 -71 -72 -53 -37 14 -43 39 -15 62 27 21 67 17 87 -9z"/>
<path d="M17380 26572 c-51 -28 -75 -82 -75 -172 0 -56 5 -85 21 -114 37 -72
129 -98 194 -53 55 37 75 81 75 167 0 58 -5 83 -21 110 -43 74 -123 99 -194
62z m104 -75 c67 -67 20 -247 -54 -207 -26 14 -50 67 -50 110 0 57 37 118 73
120 4 0 18 -11 31 -23z"/>
<path d="M17772 26570 c-29 -18 -72 -73 -72 -92 0 -5 18 -8 40 -8 28 0 46 7
64 25 30 30 37 31 67 6 20 -16 21 -21 10 -47 -6 -16 -47 -58 -91 -94 -73 -60
-79 -68 -80 -102 l0 -38 135 0 135 0 0 35 0 35 -70 0 c-38 0 -70 3 -70 8 1 4
23 25 50 47 53 43 80 87 80 130 0 91 -113 146 -198 95z"/>
<path d="M26472 26573 c-34 -17 -62 -58 -62 -92 0 -26 21 -71 32 -71 5 0 0
-12 -11 -26 -13 -17 -21 -41 -21 -66 0 -107 179 -147 254 -57 31 36 33 73 7
115 -16 26 -17 33 -5 49 19 26 18 85 -2 114 -34 48 -129 65 -192 34z m102 -63
c46 -17 27 -70 -25 -70 -37 0 -62 25 -49 50 9 17 24 27 42 29 4 1 18 -3 32 -9z
m23 -167 c26 -34 -24 -71 -72 -53 -37 14 -43 39 -15 62 27 21 67 17 87 -9z"/>
<path d="M27522 26573 c-34 -17 -62 -58 -62 -92 0 -26 21 -71 32 -71 5 0 0
-12 -11 -26 -13 -17 -21 -41 -21 -66 0 -107 179 -147 254 -57 31 36 33 73 7
115 -16 26 -17 33 -5 49 19 26 18 85 -2 114 -34 48 -129 65 -192 34z m102 -63
c46 -17 27 -70 -25 -70 -37 0 -62 25 -49 50 9 17 24 27 42 29 4 1 18 -3 32 -9z
m23 -167 c26 -34 -24 -71 -72 -53 -37 14 -43 39 -15 62 27 21 67 17 87 -9z"/>
<path d="M27922 26573 c-34 -17 -62 -58 -62 -92 0 -26 21 -71 32 -71 5 0 0
-12 -11 -26 -13 -17 -21 -41 -21 -66 0 -107 179 -147 254 -57 31 36 33 73 7
115 -16 26 -17 33 -5 49 19 26 18 85 -2 114 -34 48 -129 65 -192 34z m102 -63
c46 -17 27 -70 -25 -70 -37 0 -62 25 -49 50 9 17 24 27 42 29 4 1 18 -3 32 -9z
m23 -167 c26 -34 -24 -71 -72 -53 -37 14 -43 39 -15 62 27 21 67 17 87 -9z"/>
<path d="M36770 26572 c-51 -28 -75 -82 -75 -172 0 -56 5 -85 21 -114 37 -72
129 -98 194 -53 55 37 75 81 75 167 0 58 -5 83 -21 110 -43 74 -123 99 -194
62z m104 -75 c67 -67 20 -247 -54 -207 -26 14 -50 67 -50 110 0 57 37 118 73
120 4 0 18 -11 31 -23z"/>
<path d="M37180 26572 c-51 -28 -75 -82 -75 -172 0 -56 5 -85 21 -114 37 -72
129 -98 194 -53 55 37 75 81 75 167 0 58 -5 83 -21 110 -43 74 -123 99 -194
62z m104 -75 c67 -67 20 -247 -54 -207 -26 14 -50 67 -50 110 0 57 37 118 73
120 4 0 18 -11 31 -23z"/>
<path d="M38140 26572 c-51 -28 -75 -82 -75 -172 0 -56 5 -85 21 -114 37 -72
129 -98 194 -53 55 37 75 81 75 167 0 58 -5 83 -21 110 -43 74 -123 99 -194
62z m104 -75 c67 -67 20 -247 -54 -207 -26 14 -50 67 -50 110 0 57 37 118 73
120 4 0 18 -11 31 -23z"/>
<path d="M6381 26489 l62 -90 -62 -90 -62 -89 45 0 c43 0 46 2 83 55 21 30 40
55 43 55 3 -1 22 -25 43 -55 36 -53 40 -55 82 -55 25 0 45 2 45 5 0 2 -27 43
-61 89 -38 54 -58 90 -53 98 4 7 29 42 54 78 68 95 67 90 17 90 -43 0 -46 -2
-82 -55 -21 -30 -41 -53 -44 -50 -4 2 -23 26 -41 54 -34 49 -37 51 -83 51
l-48 0 62 -91z"/>
<path d="M6760 26400 l0 -180 125 0 125 0 0 35 0 34 -82 3 -83 3 -3 143 -3
142 -39 0 -40 0 0 -180z"/>
<path d="M17048 26546 c-34 -29 -38 -38 -38 -80 l0 -48 40 32 40 32 0 -131 0
-131 40 0 40 0 0 180 0 180 -42 0 c-34 -1 -51 -8 -80 -34z"/>
<path d="M26875 26474 c-69 -86 -85 -112 -85 -140 l0 -34 90 0 90 0 0 -40 c0
-40 0 -40 39 -40 39 0 40 1 43 38 3 32 7 37 31 40 24 3 27 8 27 38 0 31 -2 34
-30 34 -28 0 -30 3 -30 35 0 34 -1 35 -40 35 -39 0 -40 -1 -40 -35 0 -34 -1
-35 -42 -35 -38 0 -40 1 -26 18 76 91 148 181 148 186 0 3 -20 6 -45 6 l-44 0
-86 -106z"/>
<path d="M36428 26546 c-34 -29 -38 -38 -38 -80 l0 -48 40 32 40 32 0 -131 0
-131 40 0 40 0 0 180 0 180 -42 0 c-34 -1 -51 -8 -80 -34z"/>
<path d="M37798 26546 c-34 -29 -38 -38 -38 -80 l0 -48 40 32 40 32 0 -131 0
-131 40 0 40 0 0 180 0 180 -42 0 c-34 -1 -51 -8 -80 -34z"/>
<path d="M38535 26474 c-69 -86 -85 -112 -85 -140 l0 -34 90 0 90 0 0 -40 c0
-40 0 -40 39 -40 39 0 40 1 43 38 3 32 7 37 31 40 24 3 27 8 27 38 0 31 -2 34
-30 34 -28 0 -30 3 -30 35 0 34 -1 35 -40 35 -39 0 -40 -1 -40 -35 0 -34 -1
-35 -42 -35 -38 0 -40 1 -26 18 76 91 148 181 148 186 0 3 -20 6 -45 6 l-44 0
-86 -106z"/>
<path d="M16750 26360 l0 -40 75 0 75 0 0 40 0 40 -75 0 -75 0 0 -40z"/>
<path d="M27200 26360 l0 -40 75 0 75 0 0 40 0 40 -75 0 -75 0 0 -40z"/>
<path d="M37510 26360 l0 -40 75 0 75 0 0 40 0 40 -75 0 -75 0 0 -40z"/>
<path d="M6225 24520 c-27 -11 -71 -60 -80 -87 -6 -21 -3 -23 37 -23 32 0 46
5 56 20 17 27 68 27 82 -1 16 -28 -3 -55 -95 -131 -68 -58 -74 -66 -75 -100
l0 -38 136 0 135 0 -3 38 -3 37 -68 3 -68 3 47 39 c25 21 55 51 65 67 22 32
24 87 6 123 -23 47 -115 74 -172 50z"/>
<path d="M16181 24513 c-52 -27 -81 -90 -81 -173 0 -125 62 -196 163 -187 83
7 137 81 137 187 0 106 -54 180 -137 187 -33 3 -58 -1 -82 -14z m116 -93 c7
-14 13 -50 13 -80 0 -73 -17 -104 -57 -108 -45 -4 -66 31 -66 108 0 77 21 112
66 108 22 -2 35 -11 44 -28z"/>
<path d="M16585 24520 c-27 -11 -71 -60 -80 -87 -6 -21 -3 -23 37 -23 32 0 46
5 56 20 17 27 68 27 82 -1 16 -28 -3 -55 -95 -131 -68 -58 -74 -66 -75 -100
l0 -38 136 0 135 0 -3 38 -3 37 -68 3 -68 3 47 39 c25 21 55 51 65 67 22 32
24 87 6 123 -23 47 -115 74 -172 50z"/>
<path d="M17521 24513 c-52 -27 -81 -90 -81 -173 0 -125 62 -196 163 -187 83
7 137 81 137 187 0 106 -54 180 -137 187 -33 3 -58 -1 -82 -14z m116 -93 c7
-14 13 -50 13 -80 0 -73 -17 -104 -57 -108 -45 -4 -66 31 -66 108 0 77 21 112
66 108 22 -2 35 -11 44 -28z"/>
<path d="M17922 24510 c-46 -29 -72 -89 -72 -173 0 -77 15 -121 55 -157 23
-21 36 -25 92 -25 62 0 66 2 99 37 28 31 34 46 34 82 0 77 -66 132 -147 123
-47 -5 -56 8 -25 36 21 19 57 22 67 7 3 -5 29 -10 56 -10 l50 0 -16 30 c-34
66 -127 90 -193 50z m119 -211 c18 -35 -3 -69 -44 -69 -38 0 -57 15 -57 45 0
30 19 45 57 45 23 0 36 -6 44 -21z"/>
<path d="M26483 24515 c-33 -14 -63 -59 -63 -95 0 -12 7 -35 16 -51 14 -28 14
-32 -1 -49 -9 -10 -17 -34 -18 -53 -3 -124 196 -163 269 -52 19 30 14 87 -11
115 -13 15 -13 19 -1 29 39 33 19 117 -36 151 -39 23 -108 26 -155 5z m115
-77 c19 -19 14 -37 -12 -49 -36 -17 -76 -4 -76 25 0 12 3 26 7 29 11 12 68 8
81 -5z m7 -173 c0 -29 -2 -30 -44 -30 -51 0 -74 22 -51 50 9 11 26 15 54 13
38 -3 41 -5 41 -33z"/>
<path d="M26883 24515 c-33 -14 -63 -59 -63 -95 0 -12 7 -35 16 -51 14 -28 14
-32 -1 -49 -9 -10 -17 -34 -18 -53 -3 -124 196 -163 269 -52 19 30 14 87 -11
115 -13 15 -13 19 -1 29 39 33 19 117 -36 151 -39 23 -108 26 -155 5z m115
-77 c19 -19 14 -37 -12 -49 -36 -17 -76 -4 -76 25 0 12 3 26 7 29 11 12 68 8
81 -5z m7 -173 c0 -29 -2 -30 -44 -30 -51 0 -74 22 -51 50 9 11 26 15 54 13
38 -3 41 -5 41 -33z"/>
<path d="M27530 24512 c-65 -32 -86 -116 -45 -179 23 -34 80 -56 132 -50 47 5
50 2 27 -31 -16 -23 -58 -30 -69 -12 -3 6 -29 10 -56 10 l-50 0 16 -30 c21
-40 71 -70 118 -70 93 0 142 66 142 195 0 58 -5 89 -18 113 -36 67 -124 91
-197 54z m118 -74 c7 -7 12 -21 12 -33 0 -30 -19 -45 -55 -45 -36 0 -55 15
-55 45 0 30 19 45 55 45 17 0 36 -5 43 -12z"/>
<path d="M27935 24520 c-27 -11 -71 -60 -80 -87 -6 -21 -3 -23 37 -23 32 0 46
5 56 20 17 27 68 27 82 -1 16 -28 -3 -55 -95 -131 -68 -58 -74 -66 -75 -100
l0 -38 136 0 135 0 -3 38 -3 37 -68 3 -68 3 47 39 c25 21 55 51 65 67 22 32
24 87 6 123 -23 47 -115 74 -172 50z"/>
<path d="M36771 24513 c-52 -27 -81 -90 -81 -173 0 -125 62 -196 163 -187 83
7 137 81 137 187 0 106 -54 180 -137 187 -33 3 -58 -1 -82 -14z m116 -93 c7
-14 13 -50 13 -80 0 -73 -17 -104 -57 -108 -45 -4 -66 31 -66 108 0 77 21 112
66 108 22 -2 35 -11 44 -28z"/>
<path d="M38131 24513 c-52 -27 -81 -90 -81 -173 0 -125 62 -196 163 -187 83
7 137 81 137 187 0 106 -54 180 -137 187 -33 3 -58 -1 -82 -14z m116 -93 c7
-14 13 -50 13 -80 0 -73 -17 -104 -57 -108 -45 -4 -66 31 -66 108 0 77 21 112
66 108 22 -2 35 -11 44 -28z"/>
<path d="M38523 24515 c-33 -14 -63 -59 -63 -95 0 -12 7 -35 16 -51 14 -28 14
-32 -1 -49 -9 -10 -17 -34 -18 -53 -3 -124 196 -163 269 -52 19 30 14 87 -11
115 -13 15 -13 19 -1 29 39 33 19 117 -36 151 -39 23 -108 26 -155 5z m115
-77 c19 -19 14 -37 -12 -49 -36 -17 -76 -4 -76 25 0 12 3 26 7 29 11 12 68 8
81 -5z m7 -173 c0 -29 -2 -30 -44 -30 -51 0 -74 22 -51 50 9 11 26 15 54 13
38 -3 41 -5 41 -33z"/>
<path d="M6506 24508 c4 -7 32 -48 62 -91 l54 -77 -49 -70 c-26 -39 -54 -79
-62 -90 -13 -19 -11 -20 32 -20 44 0 47 2 86 56 l40 56 31 -44 c18 -24 34 -49
37 -55 5 -13 103 -19 103 -7 0 3 -27 44 -60 90 l-61 85 61 85 c33 46 60 87 60
89 0 3 -20 5 -44 5 -43 0 -46 -2 -84 -56 l-40 -56 -38 56 c-36 55 -37 56 -86
56 -37 0 -47 -3 -42 -12z"/>
<path d="M6950 24340 l0 -180 131 0 130 0 -3 38 -3 37 -87 3 -88 3 0 139 0
140 -40 0 -40 0 0 -180z"/>
<path d="M15847 24487 c-33 -29 -37 -37 -37 -80 l0 -48 35 27 35 26 0 -126 0
-126 45 0 45 0 0 180 0 180 -42 0 c-34 -1 -51 -8 -81 -33z"/>
<path d="M17177 24487 c-33 -29 -37 -37 -37 -80 l0 -48 35 27 35 26 0 -126 0
-126 45 0 45 0 0 180 0 180 -42 0 c-34 -1 -51 -8 -81 -33z"/>
<path d="M36437 24487 c-33 -29 -37 -37 -37 -80 l0 -48 35 27 35 26 0 -126 0
-126 45 0 45 0 0 180 0 180 -42 0 c-34 -1 -51 -8 -81 -33z"/>
<path d="M37176 24416 c-77 -93 -86 -109 -86 -145 l0 -41 90 0 90 0 0 -35 c0
-34 1 -35 40 -35 39 0 40 1 40 34 0 30 3 35 28 38 23 3 27 8 30 41 3 35 2 37
-27 37 -29 0 -31 3 -31 35 0 34 -1 35 -40 35 -39 0 -40 -1 -40 -35 0 -34 -1
-35 -42 -35 -38 0 -40 1 -26 18 56 65 148 181 148 186 0 3 -20 6 -44 6 -44 0
-45 -1 -130 -104z"/>
<path d="M37797 24487 c-33 -29 -37 -37 -37 -80 l0 -48 35 27 35 26 0 -126 0
-126 45 0 45 0 0 180 0 180 -42 0 c-34 -1 -51 -8 -81 -33z"/>
<path d="M16890 24300 l0 -40 75 0 75 0 0 40 0 40 -75 0 -75 0 0 -40z"/>
<path d="M27210 24300 l0 -40 75 0 75 0 0 40 0 40 -75 0 -75 0 0 -40z"/>
<path d="M37500 24300 l0 -40 75 0 75 0 0 40 0 40 -75 0 -75 0 0 -40z"/>
<path d="M17682 20816 c-252 -82 -274 -449 -34 -559 36 -16 66 -22 127 -22 97
0 153 23 214 85 138 143 92 403 -87 482 -59 26 -162 33 -220 14z m149 -97
c101 -34 157 -164 113 -267 -64 -155 -264 -160 -335 -7 -71 153 68 325 222
274z"/>
<path d="M19662 20816 c-252 -82 -274 -449 -34 -559 36 -16 66 -22 127 -22 97
0 153 23 214 85 138 143 92 403 -87 482 -59 26 -162 33 -220 14z m149 -97
c101 -34 157 -164 113 -267 -64 -155 -264 -160 -335 -7 -71 153 68 325 222
274z"/>
<path d="M23785 20817 c-96 -32 -140 -93 -133 -182 8 -101 60 -137 220 -155
101 -10 125 -21 134 -55 8 -33 1 -50 -30 -70 -57 -37 -163 -27 -208 20 -19 21
-32 25 -81 25 l-58 0 17 -32 c41 -82 111 -126 212 -135 76 -6 133 6 183 40
102 69 106 197 9 269 -25 18 -88 32 -193 44 -65 6 -97 29 -97 67 0 79 149 103
224 36 28 -24 42 -29 85 -29 37 0 51 4 51 14 0 28 -65 99 -113 124 -58 30
-161 39 -222 19z"/>
<path d="M16850 20530 l0 -292 168 4 c147 3 171 5 202 24 89 52 109 175 39
245 -20 20 -20 22 -4 31 46 26 60 143 22 198 -44 66 -72 75 -259 78 l-168 4 0
-292z m319 166 c30 -27 27 -70 -5 -95 -23 -18 -41 -21 -115 -21 l-89 0 0 71 0
71 94 -4 c75 -2 98 -7 115 -22z m0 -240 c12 -11 21 -31 21 -46 0 -49 -31 -65
-136 -68 l-94 -4 0 72 0 72 94 -4 c75 -2 98 -7 115 -22z"/>
<path d="M18210 20770 l0 -50 95 0 95 0 0 -240 0 -240 55 0 55 0 0 240 0 240
95 0 95 0 0 50 0 50 -245 0 -245 0 0 -50z"/>
<path d="M18830 20770 l0 -50 95 0 95 0 0 -240 0 -240 55 0 55 0 0 240 0 240
95 0 95 0 0 50 0 50 -245 0 -245 0 0 -50z"/>
<path d="M20250 20530 l0 -290 55 0 55 0 2 191 3 190 110 -185 c60 -102 112
-186 115 -186 3 0 55 84 115 188 l110 187 3 -192 2 -193 55 0 55 0 0 290 0
291 -62 -3 -62 -3 -101 -173 c-56 -95 -106 -176 -111 -181 -5 -6 -50 63 -114
174 l-105 184 -62 1 -63 0 0 -290z"/>
<path d="M21420 20530 l0 -290 55 0 55 0 2 191 3 190 110 -185 c60 -102 112
-186 115 -186 3 0 55 84 115 188 l110 187 3 -192 2 -193 55 0 55 0 0 290 0
291 -62 -3 -62 -3 -101 -173 c-56 -95 -106 -176 -111 -181 -5 -6 -50 63 -114
174 l-105 184 -62 1 -63 0 0 -290z"/>
<path d="M22330 20530 l0 -290 200 0 200 0 0 50 0 50 -145 0 -145 0 0 70 0 70
140 0 140 0 0 50 0 50 -140 0 -140 0 0 70 0 70 145 0 145 0 0 50 0 50 -200 0
-200 0 0 -290z"/>
<path d="M22940 20530 l0 -290 55 0 55 0 2 201 3 200 140 -200 140 -200 63 -1
62 0 0 290 0 290 -55 0 -55 0 -2 -202 -3 -202 -141 200 -141 199 -62 3 -61 3
0 -291z"/>
<path d="M24252 20808 c3 -7 47 -138 97 -290 l93 -278 58 0 59 0 61 193 c81
255 74 242 92 182 9 -27 39 -123 68 -213 l53 -163 60 3 60 3 94 280 c51 154
93 283 93 288 0 4 -26 7 -57 5 l-57 -3 -65 -197 c-36 -109 -68 -198 -72 -198
-3 0 -34 90 -70 200 l-64 200 -60 0 -61 0 -64 -205 c-35 -112 -66 -202 -69
-199 -3 3 -36 94 -72 202 l-66 197 -58 3 c-44 2 -56 0 -53 -10z"/>
<path d="M25310 20530 l0 -290 200 0 200 0 0 50 0 50 -145 0 -145 0 0 70 0 70
140 0 140 0 0 50 0 50 -140 0 -140 0 0 70 0 70 145 0 145 0 0 50 0 50 -200 0
-200 0 0 -290z"/>
<path d="M26091 20798 c-5 -13 -55 -129 -111 -258 -56 -129 -108 -250 -115
-267 l-14 -33 58 0 58 0 28 65 27 65 132 0 132 0 28 -65 28 -65 59 0 c32 0 59
1 59 3 0 1 -56 130 -123 287 l-124 285 -56 3 c-52 3 -58 1 -66 -20z m140 -305
c8 -23 8 -23 -76 -23 -47 0 -85 2 -85 4 0 2 14 35 31 73 17 37 36 79 41 93 10
24 12 21 45 -50 19 -41 39 -85 44 -97z"/>
<path d="M26620 20530 l0 -290 55 0 55 0 0 111 0 110 121 -110 122 -111 76 0
76 1 -115 109 c-83 79 -109 109 -95 110 84 1 167 65 180 138 11 69 -3 122 -44
163 -50 50 -91 59 -273 59 l-158 0 0 -290z m341 161 c35 -36 37 -61 5 -98 -23
-27 -28 -28 -130 -31 l-106 -4 0 81 0 81 101 0 c98 0 101 -1 130 -29z"/>
<path d="M1530 18110 l0 -1050 3420 0 3420 0 0 1050 0 1050 -3420 0 -3420 0 0
-1050z m2694 196 c31 -13 76 -59 76 -77 0 -15 -63 -10 -84 6 -29 22 -93 19
-105 -4 -14 -26 4 -39 65 -47 87 -12 124 -42 124 -101 0 -114 -202 -142 -263
-35 l-19 32 40 0 c23 0 45 -6 52 -15 17 -20 93 -20 110 1 21 24 -8 44 -81 54
-75 11 -109 40 -109 93 0 83 102 132 194 93z m1090 0 c31 -13 76 -59 76 -77 0
-15 -63 -10 -84 6 -29 22 -93 19 -105 -4 -14 -26 4 -39 65 -47 87 -12 124 -42
124 -101 0 -114 -202 -142 -263 -35 l-19 32 40 0 c23 0 45 -6 52 -15 17 -20
93 -20 110 1 21 24 -8 44 -81 54 -75 11 -109 40 -109 93 0 83 102 132 194 93z
m-1420 -150 c36 -85 66 -157 66 -160 0 -3 -16 -6 -35 -6 -31 0 -38 5 -52 35
-17 35 -17 35 -84 35 l-67 0 -12 -35 c-11 -32 -15 -35 -51 -35 -22 0 -38 3
-36 8 3 4 30 68 62 142 76 179 70 170 109 170 l34 0 66 -154z m586 -6 l0 -160
-35 0 -35 0 0 160 0 160 35 0 35 0 0 -160z m354 6 c36 -85 66 -157 66 -160 0
-3 -16 -6 -35 -6 -31 0 -38 5 -52 35 -17 35 -17 35 -84 35 l-67 0 -12 -35
c-11 -32 -15 -35 -51 -35 -22 0 -38 3 -36 8 3 4 30 68 62 142 76 179 70 170
109 170 l34 0 66 -154z m726 -6 l0 -160 -35 0 -35 0 0 160 0 160 35 0 35 0 0
-160z m360 124 c0 -31 -11 -48 -81 -125 l-81 -89 81 0 81 0 0 -35 0 -35 -130
0 -130 0 0 33 c0 26 16 49 82 122 l82 90 -82 3 -82 3 0 34 0 35 130 0 130 0 0
-36z m340 1 l0 -35 -75 0 -75 0 0 -30 0 -30 75 0 75 0 0 -35 0 -35 -75 0 c-73
0 -75 -1 -75 -25 0 -24 2 -25 75 -25 l75 0 0 -35 0 -35 -110 0 -110 0 0 160 0
160 110 0 110 0 0 -35z"/>
<path d="M3776 18172 c-21 -41 -21 -42 14 -42 33 0 37 12 16 49 l-14 25 -16
-32z"/>
<path d="M4716 18172 c-21 -41 -21 -42 14 -42 33 0 37 12 16 49 l-14 25 -16
-32z"/>
<path d="M8400 18110 l0 -1050 3420 0 3420 0 0 1050 0 1050 -3420 0 -3420 0 0
-1050z m3474 196 c31 -13 76 -59 76 -77 0 -15 -63 -10 -84 6 -29 22 -93 19
-105 -4 -14 -26 4 -39 65 -47 87 -12 124 -42 124 -101 0 -114 -202 -142 -263
-35 l-19 32 40 0 c23 0 45 -6 52 -15 17 -20 93 -20 110 1 21 24 -8 44 -81 54
-75 11 -109 40 -109 93 0 83 102 132 194 93z m-824 -31 l0 -35 -75 0 -75 0 0
-30 0 -30 75 0 75 0 0 -35 0 -35 -75 0 c-73 0 -75 -1 -75 -25 0 -24 2 -25 75
-25 l75 0 0 -35 0 -35 -110 0 -110 0 0 160 0 160 110 0 110 0 0 -35z m180 -77
c0 -127 9 -148 66 -148 53 0 64 26 64 152 l0 108 35 0 35 0 0 -124 c0 -111 -2
-126 -22 -151 -63 -81 -199 -70 -239 19 -14 32 -19 66 -19 149 l0 107 40 0 40
0 0 -112z m900 -48 l0 -160 -35 0 -35 0 0 160 0 160 35 0 35 0 0 -160z m360
124 c0 -31 -11 -48 -81 -125 l-81 -89 81 0 81 0 0 -35 0 -35 -130 0 -130 0 0
33 c0 26 16 49 82 122 l82 90 -82 3 -82 3 0 34 0 35 130 0 130 0 0 -36z m330
1 l0 -35 -75 0 -75 0 0 -30 0 -30 75 0 75 0 0 -35 0 -35 -75 0 c-73 0 -75 -1
-75 -25 0 -24 2 -25 75 -25 l75 0 0 -35 0 -35 -110 0 -110 0 0 160 0 160 110
0 110 0 0 -35z"/>
<path d="M15270 18110 l0 -1050 3418 2 3417 3 3 1048 2 1047 -3420 0 -3420 0
0 -1050z m2984 196 c31 -13 76 -59 76 -77 0 -15 -63 -10 -84 6 -29 22 -93 19
-105 -4 -14 -26 4 -39 65 -47 87 -12 124 -42 124 -101 0 -114 -202 -142 -263
-35 l-19 32 40 0 c23 0 45 -6 52 -15 17 -20 93 -20 110 1 21 24 -8 44 -81 54
-75 11 -109 40 -109 93 0 83 102 132 194 93z m500 0 c31 -13 76 -59 76 -77 0
-15 -63 -10 -84 6 -29 22 -93 19 -105 -4 -14 -26 4 -39 65 -47 87 -12 124 -42
124 -101 0 -114 -202 -142 -263 -35 l-19 32 40 0 c23 0 45 -6 52 -15 17 -20
93 -20 110 1 21 24 -8 44 -81 54 -75 11 -109 40 -109 93 0 83 102 132 194 93z
m-994 -108 c0 -127 9 -148 66 -148 53 0 64 26 64 152 l0 108 35 0 35 0 0 -124
c0 -111 -2 -126 -22 -151 -63 -81 -199 -70 -239 19 -14 32 -19 66 -19 149 l0
107 40 0 40 0 0 -112z m1250 -48 l0 -160 -35 0 -35 0 0 160 0 160 35 0 35 0 0
-160z m360 124 c0 -31 -11 -48 -81 -125 l-81 -89 81 0 81 0 0 -35 0 -35 -130
0 -130 0 0 33 c0 26 16 49 82 122 l82 90 -82 3 -82 3 0 34 0 35 130 0 130 0 0
-36z m330 1 l0 -35 -75 0 -75 0 0 -30 0 -30 75 0 75 0 0 -35 0 -35 -75 0 c-73
0 -75 -1 -75 -25 0 -24 2 -25 75 -25 l75 0 0 -35 0 -35 -110 0 -110 0 0 160 0
160 110 0 110 0 0 -35z"/>
<path d="M22140 18110 l0 -1050 3415 0 3415 0 0 1050 0 1050 -3415 0 -3415 0
0 -1050z m3484 196 c31 -13 76 -59 76 -77 0 -15 -63 -10 -84 6 -29 22 -93 19
-105 -4 -14 -26 4 -39 65 -47 87 -12 124 -42 124 -101 0 -114 -202 -142 -263
-35 l-19 32 40 0 c23 0 45 -6 52 -15 17 -20 93 -20 110 1 21 24 -8 44 -81 54
-75 11 -109 40 -109 93 0 83 102 132 194 93z m-1004 -108 c0 -127 9 -148 66
-148 53 0 64 26 64 152 l0 108 35 0 35 0 0 -124 c0 -111 -2 -126 -22 -151 -63
-81 -199 -70 -239 19 -14 32 -19 66 -19 149 l0 107 40 0 40 0 0 -112z m390 51
l0 -62 58 62 c55 60 59 63 99 59 l42 -3 -70 -77 -71 -78 71 -77 70 -78 -45 -3
c-44 -3 -48 -1 -99 55 l-54 58 -1 -57 0 -58 -35 0 -35 0 0 160 0 160 35 0 35
0 0 -61z m870 -99 l0 -160 -35 0 -35 0 0 160 0 160 35 0 35 0 0 -160z m360
124 c0 -31 -11 -48 -81 -125 l-81 -89 81 0 81 0 0 -35 0 -35 -130 0 -130 0 0
33 c0 26 16 49 82 122 l82 90 -82 3 -82 3 0 34 0 35 130 0 130 0 0 -36z m330
1 l0 -35 -75 0 -75 0 0 -30 0 -30 75 0 75 0 0 -35 0 -35 -75 0 c-73 0 -75 -1
-75 -25 0 -24 2 -25 75 -25 l75 0 0 -35 0 -35 -110 0 -110 0 0 160 0 160 110
0 110 0 0 -35z"/>
<path d="M29010 18110 l0 -1050 3415 0 3415 0 0 1050 0 1050 -3415 0 -3415 0
0 -1050z m3864 416 c31 -13 76 -59 76 -77 0 -15 -63 -10 -84 6 -29 22 -93 19
-105 -4 -14 -26 4 -39 65 -47 87 -12 124 -42 124 -101 0 -114 -202 -142 -263
-35 l-19 32 40 0 c23 0 45 -6 52 -15 17 -20 93 -20 110 1 21 24 -8 44 -81 54
-75 11 -109 40 -109 93 0 83 102 132 194 93z m-1223 -96 c18 -55 36 -96 40
-92 3 4 19 49 34 100 l28 92 38 0 37 0 32 -100 c17 -55 32 -100 35 -100 2 0
18 45 36 100 l33 100 37 0 36 0 -51 -160 -51 -161 -39 3 -40 3 -31 104 c-18
57 -34 100 -37 95 -2 -5 -18 -53 -34 -107 l-29 -98 -40 3 -39 3 -48 150 c-26
83 -48 153 -48 158 0 4 15 7 34 7 l35 0 32 -100z m703 -54 c36 -85 66 -157 66
-160 0 -3 -16 -6 -35 -6 -31 0 -38 5 -52 35 -17 35 -17 35 -84 35 l-67 0 -12
-35 c-11 -32 -15 -35 -51 -35 -22 0 -38 3 -36 8 3 4 30 68 62 142 76 179 70
170 109 170 l34 0 66 -154z m226 -6 l0 -160 -35 0 -35 0 0 160 0 160 35 0 35
0 0 -160z m720 125 l0 -35 -50 0 -50 0 0 -125 0 -125 -35 0 -35 0 0 125 0 125
-50 0 -50 0 0 35 0 35 135 0 135 0 0 -35z m-1398 -442 c-23 -49 -27 -71 -26
-138 0 -78 3 -87 52 -188 2 -5 -11 -7 -29 -5 -90 9 -128 211 -64 339 23 44 29
49 60 49 l34 0 -27 -57z m1115 0 c39 -86 39 -187 -2 -268 -26 -53 -34 -60 -62
-63 -18 -2 -33 -1 -33 1 0 3 12 31 27 63 39 82 39 184 1 267 l-27 57 35 0 c33
0 37 -3 61 -57z m-761 28 c35 -16 84 -66 84 -85 0 -14 -79 -4 -115 14 -25 13
-49 18 -65 15 -60 -15 -100 -89 -80 -149 23 -72 82 -99 145 -66 36 18 115 28
115 14 0 -19 -49 -69 -84 -85 -85 -38 -184 -11 -234 64 -23 34 -27 52 -27 107
0 55 4 73 27 107 50 75 149 103 234 64z m284 -117 c30 -69 57 -127 61 -130 4
-2 33 55 64 126 l58 130 44 0 43 0 0 -180 0 -180 -40 0 -39 0 -3 92 -3 93 -40
-93 -39 -93 -45 3 -45 3 -36 82 c-20 46 -40 86 -43 90 -4 3 -7 -35 -7 -85 l0
-92 -40 0 -40 0 0 180 0 180 48 0 47 0 55 -126z"/>
<path d="M32236 18392 c-21 -41 -21 -42 14 -42 33 0 37 12 16 49 l-14 25 -16
-32z"/>
<path d="M35880 18110 l0 -1050 3415 0 3415 0 0 1050 0 1050 -3415 0 -3415 0
0 -1050z m3060 355 l0 -65 70 0 70 0 0 65 0 65 35 0 35 0 0 -160 0 -160 -35 0
-35 0 0 60 0 60 -70 0 -70 0 0 -60 0 -60 -35 0 -35 0 0 160 0 160 35 0 35 0 0
-65z m410 -95 l0 -160 -35 0 -35 0 0 160 0 160 35 0 35 0 0 -160z m329 149
c33 -12 61 -52 61 -89 0 -37 -28 -77 -61 -89 -18 -6 -56 -11 -85 -11 l-54 0 0
-60 0 -60 -35 0 -35 0 0 160 0 160 89 0 c48 0 102 -5 120 -11z m-907 -466
c-23 -49 -27 -71 -26 -138 0 -78 3 -87 52 -188 2 -5 -11 -7 -29 -5 -90 9 -128
211 -64 339 23 44 29 49 60 49 l34 0 -27 -57z m1115 0 c39 -86 39 -187 -2
-268 -26 -53 -34 -60 -62 -63 -18 -2 -33 -1 -33 1 0 3 12 31 27 63 39 82 39
184 1 267 l-27 57 35 0 c33 0 37 -3 61 -57z m-761 28 c35 -16 84 -66 84 -85 0
-14 -79 -4 -115 14 -25 13 -49 18 -65 15 -60 -15 -100 -89 -80 -149 23 -72 82
-99 145 -66 36 18 115 28 115 14 0 -19 -49 -69 -84 -85 -85 -38 -184 -11 -234
64 -23 34 -27 52 -27 107 0 55 4 73 27 107 50 75 149 103 234 64z m284 -117
c30 -69 57 -127 61 -130 4 -2 33 55 64 126 l58 130 44 0 43 0 0 -180 0 -180
-40 0 -39 0 -3 92 -3 93 -40 -93 -39 -93 -45 3 -45 3 -36 82 c-20 46 -40 86
-43 90 -4 3 -7 -35 -7 -85 l0 -92 -40 0 -40 0 0 180 0 180 48 0 47 0 55 -126z"/>
<path d="M39540 18430 l0 -31 58 3 c53 3 57 5 57 28 0 23 -4 25 -57 28 l-58 3
0 -31z"/>
<path d="M4880 14149 c-64 -26 -94 -91 -69 -150 15 -37 75 -68 132 -69 48 0
77 -15 77 -39 0 -37 -91 -44 -133 -11 -26 20 -81 27 -91 11 -10 -15 38 -75 74
-93 42 -21 118 -23 163 -4 50 21 72 52 72 101 0 68 -58 115 -140 115 -20 0
-45 5 -56 10 -23 13 -25 46 -3 54 28 11 80 6 100 -9 10 -8 39 -15 62 -15 l44
0 -19 32 c-37 64 -139 96 -213 67z"/>
<path d="M18435 14150 c-27 -11 -71 -60 -80 -87 -6 -21 -3 -23 37 -23 32 0 46
5 56 20 17 27 68 27 82 -1 16 -28 -3 -55 -95 -131 -68 -58 -74 -66 -75 -100
l0 -38 136 0 135 0 -3 38 -3 37 -68 3 -68 3 47 39 c25 21 55 51 65 67 22 32
24 87 6 123 -23 47 -115 74 -172 50z"/>
<path d="M18800 14142 c-65 -32 -86 -116 -45 -179 23 -34 80 -56 132 -50 47 5
50 2 27 -31 -16 -23 -58 -30 -69 -12 -3 6 -29 10 -56 10 l-50 0 16 -30 c21
-40 71 -70 118 -70 93 0 142 66 142 195 0 58 -5 89 -18 113 -36 67 -124 91
-197 54z m118 -74 c7 -7 12 -21 12 -33 0 -30 -19 -45 -55 -45 -36 0 -55 15
-55 45 0 30 19 45 55 45 17 0 36 -5 43 -12z"/>
<path d="M25334 14141 c-37 -22 -64 -58 -64 -83 0 -27 70 -25 93 2 20 24 69
26 88 4 20 -24 -1 -48 -47 -54 -37 -5 -39 -7 -42 -42 l-3 -38 39 0 c75 0 83
-62 9 -68 -28 -2 -39 2 -49 17 -9 15 -23 21 -51 21 -38 0 -39 -1 -32 -27 25
-101 193 -127 250 -39 22 33 22 92 -1 117 -16 18 -16 20 -1 37 22 24 22 91 1
121 -35 50 -134 66 -190 32z"/>
<path d="M32633 14145 c-33 -14 -63 -59 -63 -95 0 -12 7 -35 16 -51 14 -28 14
-32 -1 -49 -9 -10 -17 -34 -18 -53 -3 -124 196 -163 269 -52 19 30 14 87 -11
115 -13 15 -13 19 -1 29 39 33 19 117 -36 151 -39 23 -108 26 -155 5z m115
-77 c19 -19 14 -37 -12 -49 -36 -17 -76 -4 -76 25 0 12 3 26 7 29 11 12 68 8
81 -5z m7 -173 c0 -29 -2 -30 -44 -30 -51 0 -74 22 -51 50 9 11 26 15 54 13
38 -3 41 -5 41 -33z"/>
<path d="M33041 14143 c-52 -27 -81 -90 -81 -173 0 -125 62 -196 163 -187 83
7 137 81 137 187 0 106 -54 180 -137 187 -33 3 -58 -1 -82 -14z m116 -93 c7
-14 13 -50 13 -80 0 -73 -17 -104 -57 -108 -45 -4 -66 31 -66 108 0 77 21 112
66 108 22 -2 35 -11 44 -28z"/>
<path d="M38503 14145 c-33 -14 -63 -59 -63 -95 0 -12 7 -35 16 -51 14 -28 14
-32 -1 -49 -9 -10 -17 -34 -18 -53 -3 -124 196 -163 269 -52 19 30 14 87 -11
115 -13 15 -13 19 -1 29 39 33 19 117 -36 151 -39 23 -108 26 -155 5z m115
-77 c19 -19 14 -37 -12 -49 -36 -17 -76 -4 -76 25 0 12 3 26 7 29 11 12 68 8
81 -5z m7 -173 c0 -29 -2 -30 -44 -30 -51 0 -74 22 -51 50 9 11 26 15 54 13
38 -3 41 -5 41 -33z"/>
<path d="M38912 14140 c-46 -29 -72 -89 -72 -173 0 -77 15 -121 55 -157 23
-21 36 -25 92 -25 62 0 66 2 99 37 28 31 34 46 34 82 0 77 -66 132 -147 123
-47 -5 -56 8 -25 36 21 19 57 22 67 7 3 -5 29 -10 56 -10 l50 0 -16 30 c-34
66 -127 90 -193 50z m119 -211 c18 -35 -3 -69 -44 -69 -38 0 -57 15 -57 45 0
30 19 45 57 45 23 0 36 -6 44 -21z"/>
<path d="M39550 14142 c-65 -32 -86 -116 -45 -179 23 -34 80 -56 132 -50 47 5
50 2 27 -31 -16 -23 -58 -30 -69 -12 -3 6 -29 10 -56 10 l-50 0 16 -30 c21
-40 71 -70 118 -70 93 0 142 66 142 195 0 58 -5 89 -18 113 -36 67 -124 91
-197 54z m118 -74 c7 -7 12 -21 12 -33 0 -30 -19 -45 -55 -45 -36 0 -55 15
-55 45 0 30 19 45 55 45 17 0 36 -5 43 -12z"/>
<path d="M39955 14150 c-27 -11 -71 -60 -80 -87 -6 -21 -3 -23 37 -23 32 0 46
5 56 20 17 27 68 27 82 -1 16 -28 -3 -55 -95 -131 -68 -58 -74 -66 -75 -100
l0 -38 136 0 135 0 -3 38 -3 37 -68 3 -68 3 47 39 c25 21 55 51 65 67 22 32
24 87 6 123 -23 47 -115 74 -172 50z"/>
<path d="M11536 14046 c-77 -93 -86 -109 -86 -145 l0 -41 90 0 90 0 0 -35 c0
-34 1 -35 40 -35 39 0 40 1 40 34 0 30 3 35 28 38 23 3 27 8 30 41 3 35 2 37
-27 37 -29 0 -31 3 -31 35 0 34 -1 35 -40 35 -39 0 -40 -1 -40 -35 0 -34 -1
-35 -42 -35 -38 0 -40 1 -26 18 56 65 148 181 148 186 0 3 -20 6 -44 6 -44 0
-45 -1 -130 -104z"/>
<path d="M11956 14046 c-77 -93 -86 -109 -86 -145 l0 -41 90 0 90 0 0 -35 c0
-34 1 -35 40 -35 39 0 40 1 40 34 0 30 3 35 28 38 23 3 27 8 30 41 3 35 2 37
-27 37 -29 0 -31 3 -31 35 0 34 -1 35 -40 35 -39 0 -40 -1 -40 -35 0 -34 -1
-35 -42 -35 -38 0 -40 1 -26 18 56 65 148 181 148 186 0 3 -20 6 -44 6 -44 0
-45 -1 -130 -104z"/>
<path d="M25687 14117 c-33 -29 -37 -37 -37 -80 l0 -48 35 27 35 26 0 -126 0
-126 45 0 45 0 0 180 0 180 -42 0 c-34 -1 -51 -8 -81 -33z"/>
<path d="M31580 14110 l0 -39 84 -3 84 -3 -79 -133 c-43 -73 -79 -135 -79
-138 0 -2 20 -4 45 -4 l44 0 86 143 c66 111 85 151 85 180 l0 37 -135 0 -135
0 0 -40z"/>
<path d="M31976 14046 c-77 -93 -86 -109 -86 -145 l0 -41 90 0 90 0 0 -35 c0
-34 1 -35 40 -35 39 0 40 1 40 34 0 30 3 35 28 38 23 3 27 8 30 41 3 35 2 37
-27 37 -29 0 -31 3 -31 35 0 34 -1 35 -40 35 -39 0 -40 -1 -40 -35 0 -34 -1
-35 -42 -35 -38 0 -40 1 -26 18 56 65 148 181 148 186 0 3 -20 6 -44 6 -44 0
-45 -1 -130 -104z"/>
<path d="M32300 13930 l0 -40 75 0 75 0 0 40 0 40 -75 0 -75 0 0 -40z"/>
<path d="M39230 13930 l0 -40 75 0 75 0 0 40 0 40 -75 0 -75 0 0 -40z"/>
<path d="M11964 12116 c-47 -21 -76 -76 -82 -154 -6 -86 10 -144 48 -176 89
-74 230 -20 230 89 0 77 -75 135 -156 122 -42 -7 -46 12 -7 42 24 20 28 20 49
6 30 -19 104 -20 104 -1 0 7 -11 25 -25 40 -43 46 -101 58 -161 32z m104 -208
c6 -6 12 -21 12 -33 0 -25 -14 -39 -47 -49 -30 -9 -74 32 -66 62 9 37 65 48
101 20z"/>
<path d="M18413 12115 c-28 -12 -73 -66 -73 -87 0 -12 78 -9 85 3 15 23 57 30
82 14 39 -26 27 -58 -24 -69 -40 -9 -43 -12 -43 -43 0 -31 2 -33 34 -33 39 0
60 -20 51 -48 -10 -34 -79 -35 -100 -3 -7 12 -85 15 -85 4 0 -23 45 -76 75
-89 64 -26 147 -9 180 40 20 27 19 86 -1 114 -15 21 -15 25 0 41 19 21 21 70
4 106 -25 54 -118 80 -185 50z"/>
<path d="M18810 12112 c-51 -28 -75 -82 -75 -172 0 -56 5 -85 21 -114 37 -72
129 -98 194 -53 55 37 75 81 75 167 0 58 -5 83 -21 110 -43 74 -123 99 -194
62z m104 -75 c67 -67 20 -247 -54 -207 -26 14 -50 67 -50 110 0 57 37 118 73
120 4 0 18 -11 31 -23z"/>
<path d="M25303 12115 c-28 -12 -73 -66 -73 -87 0 -12 78 -9 85 3 15 23 57 30
82 14 39 -26 27 -58 -24 -69 -40 -9 -43 -12 -43 -43 0 -31 2 -33 34 -33 39 0
60 -20 51 -48 -10 -34 -79 -35 -100 -3 -7 12 -85 15 -85 4 0 -23 45 -76 75
-89 64 -26 147 -9 180 40 20 27 19 86 -1 114 -15 21 -15 25 0 41 19 21 21 70
4 106 -25 54 -118 80 -185 50z"/>
<path d="M25672 12110 c-29 -18 -72 -73 -72 -92 0 -5 18 -8 40 -8 28 0 46 7
64 25 30 30 37 31 67 6 20 -16 21 -21 10 -47 -6 -16 -47 -58 -91 -94 -73 -60
-79 -68 -80 -102 l0 -38 135 0 135 0 0 35 0 35 -70 0 c-38 0 -70 3 -70 8 1 4
23 25 50 47 53 43 80 87 80 130 0 91 -113 146 -198 95z"/>
<path d="M32024 12116 c-47 -21 -76 -76 -82 -154 -6 -86 10 -144 48 -176 89
-74 230 -20 230 89 0 77 -75 135 -156 122 -42 -7 -46 12 -7 42 24 20 28 20 49
6 30 -19 104 -20 104 -1 0 7 -11 25 -25 40 -43 46 -101 58 -161 32z m104 -208
c6 -6 12 -21 12 -33 0 -25 -14 -39 -47 -49 -30 -9 -74 32 -66 62 9 37 65 48
101 20z"/>
<path d="M32662 12113 c-34 -17 -62 -58 -62 -92 0 -26 21 -71 32 -71 5 0 0
-12 -11 -26 -13 -17 -21 -41 -21 -66 0 -107 179 -147 254 -57 31 36 33 73 7
115 -16 26 -17 33 -5 49 19 26 18 85 -2 114 -34 48 -129 65 -192 34z m102 -63
c46 -17 27 -70 -25 -70 -37 0 -62 25 -49 50 9 17 24 27 42 29 4 1 18 -3 32 -9z
m23 -167 c26 -34 -24 -71 -72 -53 -37 14 -43 39 -15 62 27 21 67 17 87 -9z"/>
<path d="M33052 12110 c-29 -18 -72 -73 -72 -92 0 -5 18 -8 40 -8 28 0 46 7
64 25 30 30 37 31 67 6 20 -16 21 -21 10 -47 -6 -16 -47 -58 -91 -94 -73 -60
-79 -68 -80 -102 l0 -38 135 0 135 0 0 35 0 35 -70 0 c-38 0 -70 3 -70 8 1 4
23 25 50 47 53 43 80 87 80 130 0 91 -113 146 -198 95z"/>
<path d="M38573 12114 c-43 -21 -66 -60 -66 -109 0 -79 66 -133 149 -121 47 6
49 5 34 -24 -17 -32 -43 -41 -74 -24 -36 18 -96 19 -96 0 0 -7 11 -25 25 -40
65 -70 168 -58 215 27 33 57 35 185 5 237 -37 63 -123 88 -192 54z m115 -77
c21 -17 10 -60 -19 -76 -24 -13 -29 -13 -53 2 -32 22 -34 60 -4 81 22 16 51
13 76 -7z"/>
<path d="M39513 12114 c-43 -21 -66 -60 -66 -109 0 -79 66 -133 149 -121 47 6
49 5 34 -24 -17 -32 -43 -41 -74 -24 -36 18 -96 19 -96 0 0 -7 11 -25 25 -40
65 -70 168 -58 215 27 33 57 35 185 5 237 -37 63 -123 88 -192 54z m115 -77
c21 -17 10 -60 -19 -76 -24 -13 -29 -13 -53 2 -32 22 -34 60 -4 81 22 16 51
13 76 -7z"/>
<path d="M4740 11940 l0 -180 40 0 40 0 0 92 c0 50 3 88 7 85 3 -4 23 -44 43
-90 l36 -82 45 -3 45 -3 39 93 40 93 3 -93 3 -92 39 0 40 0 0 180 0 180 -43 0
-44 0 -58 -130 c-31 -71 -60 -128 -64 -126 -4 3 -31 61 -61 130 l-55 126 -47
0 -48 0 0 -180z"/>
<path d="M11555 12014 c-69 -86 -85 -112 -85 -140 l0 -34 90 0 90 0 0 -40 c0
-40 0 -40 39 -40 39 0 40 1 43 38 3 32 7 37 31 40 24 3 27 8 27 38 0 31 -2 34
-30 34 -28 0 -30 3 -30 35 0 34 -1 35 -40 35 -39 0 -40 -1 -40 -35 0 -34 -1
-35 -42 -35 -38 0 -40 1 -26 18 76 91 148 181 148 186 0 3 -20 6 -45 6 l-44 0
-86 -106z"/>
<path d="M31590 12085 l0 -35 86 0 c101 0 101 12 10 -139 -98 -164 -94 -151
-43 -151 l44 0 87 144 c65 110 86 153 86 180 l0 36 -135 0 -135 0 0 -35z"/>
<path d="M38928 12086 c-34 -29 -38 -38 -38 -80 l0 -48 40 32 40 32 0 -131 0
-131 40 0 40 0 0 180 0 180 -42 0 c-34 -1 -51 -8 -80 -34z"/>
<path d="M39820 12085 l0 -35 86 0 c101 0 101 12 10 -139 -98 -164 -94 -151
-43 -151 l44 0 87 144 c65 110 86 153 86 180 l0 36 -135 0 -135 0 0 -35z"/>
<path d="M32330 11900 l0 -40 75 0 75 0 0 40 0 40 -75 0 -75 0 0 -40z"/>
<path d="M39190 11900 l0 -40 75 0 75 0 0 40 0 40 -75 0 -75 0 0 -40z"/>
<path d="M11943 9985 c-33 -14 -63 -59 -63 -95 0 -12 7 -35 16 -51 14 -28 14
-32 -1 -49 -9 -10 -17 -34 -18 -53 -3 -124 196 -163 269 -52 19 30 14 87 -11
115 -13 15 -13 19 -1 29 39 33 19 117 -36 151 -39 23 -108 26 -155 5z m115
-77 c19 -19 14 -37 -12 -49 -36 -17 -76 -4 -76 25 0 12 3 26 7 29 11 12 68 8
81 -5z m7 -173 c0 -29 -2 -30 -44 -30 -51 0 -74 22 -51 50 9 11 26 15 54 13
38 -3 41 -5 41 -33z"/>
<path d="M18474 9981 c-37 -22 -64 -58 -64 -83 0 -27 70 -25 93 2 20 24 69 26
88 4 20 -24 -1 -48 -47 -54 -37 -5 -39 -7 -42 -42 l-3 -38 39 0 c75 0 83 -62
9 -68 -28 -2 -39 2 -49 17 -9 15 -23 21 -51 21 -38 0 -39 -1 -32 -27 25 -101
193 -127 250 -39 22 33 22 92 -1 117 -16 18 -16 20 -1 37 22 24 22 91 1 121
-35 50 -134 66 -190 32z"/>
<path d="M25294 9981 c-37 -22 -64 -58 -64 -83 0 -27 70 -25 93 2 20 24 69 26
88 4 20 -24 -1 -48 -47 -54 -37 -5 -39 -7 -42 -42 l-3 -38 39 0 c75 0 83 -62
9 -68 -28 -2 -39 2 -49 17 -9 15 -23 21 -51 21 -38 0 -39 -1 -32 -27 25 -101
193 -127 250 -39 22 33 22 92 -1 117 -16 18 -16 20 -1 37 22 24 22 91 1 121
-35 50 -134 66 -190 32z"/>
<path d="M25664 9981 c-37 -22 -64 -58 -64 -83 0 -27 70 -25 93 2 20 24 69 26
88 4 20 -24 -1 -48 -47 -54 -37 -5 -39 -7 -42 -42 l-3 -38 39 0 c75 0 83 -62
9 -68 -28 -2 -39 2 -49 17 -9 15 -23 21 -51 21 -38 0 -39 -1 -32 -27 25 -101
193 -127 250 -39 22 33 22 92 -1 117 -16 18 -16 20 -1 37 22 24 22 91 1 121
-35 50 -134 66 -190 32z"/>
<path d="M32003 9985 c-33 -14 -63 -59 -63 -95 0 -12 7 -35 16 -51 14 -28 14
-32 -1 -49 -9 -10 -17 -34 -18 -53 -3 -124 196 -163 269 -52 19 30 14 87 -11
115 -13 15 -13 19 -1 29 39 33 19 117 -36 151 -39 23 -108 26 -155 5z m115
-77 c19 -19 14 -37 -12 -49 -36 -17 -76 -4 -76 25 0 12 3 26 7 29 11 12 68 8
81 -5z m7 -173 c0 -29 -2 -30 -44 -30 -51 0 -74 22 -51 50 9 11 26 15 54 13
38 -3 41 -5 41 -33z"/>
<path d="M32663 9985 c-33 -14 -63 -59 -63 -95 0 -12 7 -35 16 -51 14 -28 14
-32 -1 -49 -9 -10 -17 -34 -18 -53 -3 -124 196 -163 269 -52 19 30 14 87 -11
115 -13 15 -13 19 -1 29 39 33 19 117 -36 151 -39 23 -108 26 -155 5z m115
-77 c19 -19 14 -37 -12 -49 -36 -17 -76 -4 -76 25 0 12 3 26 7 29 11 12 68 8
81 -5z m7 -173 c0 -29 -2 -30 -44 -30 -51 0 -74 22 -51 50 9 11 26 15 54 13
38 -3 41 -5 41 -33z"/>
<path d="M38390 9982 c-65 -32 -86 -116 -45 -179 23 -34 80 -56 132 -50 47 5
50 2 27 -31 -16 -23 -58 -30 -69 -12 -3 6 -29 10 -56 10 l-50 0 16 -30 c21
-40 71 -70 118 -70 93 0 142 66 142 195 0 58 -5 89 -18 113 -36 67 -124 91
-197 54z m118 -74 c7 -7 12 -21 12 -33 0 -30 -19 -45 -55 -45 -36 0 -55 15
-55 45 0 30 19 45 55 45 17 0 36 -5 43 -12z"/>
<path d="M39661 9983 c-52 -27 -81 -90 -81 -173 0 -125 62 -196 163 -187 83 7
137 81 137 187 0 106 -54 180 -137 187 -33 3 -58 -1 -82 -14z m116 -93 c7 -14
13 -50 13 -80 0 -73 -17 -104 -57 -108 -45 -4 -66 31 -66 108 0 77 21 112 66
108 22 -2 35 -11 44 -28z"/>
<path d="M40044 9981 c-37 -22 -64 -58 -64 -83 0 -27 70 -25 93 2 20 24 69 26
88 4 20 -24 -1 -48 -47 -54 -37 -5 -39 -7 -42 -42 l-3 -38 39 0 c75 0 83 -62
9 -68 -28 -2 -39 2 -49 17 -9 15 -23 21 -51 21 -38 0 -39 -1 -32 -27 25 -101
193 -127 250 -39 22 33 22 92 -1 117 -16 18 -16 20 -1 37 22 24 22 91 1 121
-35 50 -134 66 -190 32z"/>
<path d="M4840 9810 l0 -180 131 0 130 0 -3 38 -3 37 -87 3 -88 3 0 139 0 140
-40 0 -40 0 0 -180z"/>
<path d="M11546 9886 c-77 -93 -86 -109 -86 -145 l0 -41 90 0 90 0 0 -35 c0
-34 1 -35 40 -35 39 0 40 1 40 34 0 30 3 35 28 38 23 3 27 8 30 41 3 35 2 37
-27 37 -29 0 -31 3 -31 35 0 34 -1 35 -40 35 -39 0 -40 -1 -40 -35 0 -34 -1
-35 -42 -35 -38 0 -40 1 -26 18 56 65 148 181 148 186 0 3 -20 6 -44 6 -44 0
-45 -1 -130 -104z"/>
<path d="M18817 9957 c-33 -29 -37 -37 -37 -80 l0 -48 35 27 35 26 0 -126 0
-126 45 0 45 0 0 180 0 180 -42 0 c-34 -1 -51 -8 -81 -33z"/>
<path d="M31570 9950 l0 -39 84 -3 84 -3 -79 -133 c-43 -73 -79 -135 -79 -138
0 -2 20 -4 45 -4 l44 0 86 143 c66 111 85 151 85 180 l0 37 -135 0 -135 0 0
-40z"/>
<path d="M33056 9886 c-77 -93 -86 -109 -86 -145 l0 -41 90 0 90 0 0 -35 c0
-34 1 -35 40 -35 39 0 40 1 40 34 0 30 3 35 28 38 23 3 27 8 30 41 3 35 2 37
-27 37 -29 0 -31 3 -31 35 0 34 -1 35 -40 35 -39 0 -40 -1 -40 -35 0 -34 -1
-35 -42 -35 -38 0 -40 1 -26 18 56 65 148 181 148 186 0 3 -20 6 -44 6 -44 0
-45 -1 -130 -104z"/>
<path d="M38700 9950 l0 -39 84 -3 84 -3 -79 -133 c-43 -73 -79 -135 -79 -138
0 -2 20 -4 45 -4 l44 0 86 143 c66 111 85 151 85 180 l0 37 -135 0 -135 0 0
-40z"/>
<path d="M39327 9957 c-33 -29 -37 -37 -37 -80 l0 -48 35 27 35 26 0 -126 0
-126 45 0 45 0 0 180 0 180 -42 0 c-34 -1 -51 -8 -81 -33z"/>
<path d="M32330 9770 l0 -40 75 0 75 0 0 40 0 40 -75 0 -75 0 0 -40z"/>
<path d="M39040 9770 l0 -40 75 0 75 0 0 40 0 40 -75 0 -75 0 0 -40z"/>
<path d="M11940 7712 c-51 -28 -75 -82 -75 -172 0 -56 5 -85 21 -114 37 -72
129 -98 194 -53 55 37 75 81 75 167 0 58 -5 83 -21 110 -43 74 -123 99 -194
62z m104 -75 c67 -67 20 -247 -54 -207 -26 14 -50 67 -50 110 0 57 37 118 73
120 4 0 18 -11 31 -23z"/>
<path d="M18433 7715 c-28 -12 -73 -66 -73 -87 0 -12 78 -9 85 3 15 23 57 30
82 14 39 -26 27 -58 -24 -69 -40 -9 -43 -12 -43 -43 0 -31 2 -33 34 -33 39 0
60 -20 51 -48 -10 -34 -79 -35 -100 -3 -7 12 -85 15 -85 4 0 -23 45 -76 75
-89 64 -26 147 -9 180 40 20 27 19 86 -1 114 -15 21 -15 25 0 41 19 21 21 70
4 106 -25 54 -118 80 -185 50z"/>
<path d="M18812 7710 c-29 -18 -72 -73 -72 -92 0 -5 18 -8 40 -8 28 0 46 7 64
25 30 30 37 31 67 6 20 -16 21 -21 10 -47 -6 -16 -47 -58 -91 -94 -73 -60 -79
-68 -80 -102 l0 -38 135 0 135 0 0 35 0 35 -70 0 c-38 0 -70 3 -70 8 1 4 23
25 50 47 53 43 80 87 80 130 0 91 -113 146 -198 95z"/>
<path d="M25293 7715 c-28 -12 -73 -66 -73 -87 0 -12 78 -9 85 3 15 23 57 30
82 14 39 -26 27 -58 -24 -69 -40 -9 -43 -12 -43 -43 0 -31 2 -33 34 -33 39 0
60 -20 51 -48 -10 -34 -79 -35 -100 -3 -7 12 -85 15 -85 4 0 -23 45 -76 75
-89 64 -26 147 -9 180 40 20 27 19 86 -1 114 -15 21 -15 25 0 41 19 21 21 70
4 106 -25 54 -118 80 -185 50z"/>
<path d="M31622 7713 c-34 -17 -62 -58 -62 -92 0 -26 21 -71 32 -71 5 0 0 -12
-11 -26 -13 -17 -21 -41 -21 -66 0 -107 179 -147 254 -57 31 36 33 73 7 115
-16 26 -17 33 -5 49 19 26 18 85 -2 114 -34 48 -129 65 -192 34z m102 -63 c46
-17 27 -70 -25 -70 -37 0 -62 25 -49 50 9 17 24 27 42 29 4 1 18 -3 32 -9z
m23 -167 c26 -34 -24 -71 -72 -53 -37 14 -43 39 -15 62 27 21 67 17 87 -9z"/>
<path d="M32030 7712 c-51 -28 -75 -82 -75 -172 0 -56 5 -85 21 -114 37 -72
129 -98 194 -53 55 37 75 81 75 167 0 58 -5 83 -21 110 -43 74 -123 99 -194
62z m104 -75 c67 -67 20 -247 -54 -207 -26 14 -50 67 -50 110 0 57 37 118 73
120 4 0 18 -11 31 -23z"/>
<path d="M32692 7713 c-34 -17 -62 -58 -62 -92 0 -26 21 -71 32 -71 5 0 0 -12
-11 -26 -13 -17 -21 -41 -21 -66 0 -107 179 -147 254 -57 31 36 33 73 7 115
-16 26 -17 33 -5 49 19 26 18 85 -2 114 -34 48 -129 65 -192 34z m102 -63 c46
-17 27 -70 -25 -70 -37 0 -62 25 -49 50 9 17 24 27 42 29 4 1 18 -3 32 -9z
m23 -167 c26 -34 -24 -71 -72 -53 -37 14 -43 39 -15 62 27 21 67 17 87 -9z"/>
<path d="M33104 7716 c-47 -21 -76 -76 -82 -154 -6 -86 10 -144 48 -176 89
-74 230 -20 230 89 0 77 -75 135 -156 122 -42 -7 -46 12 -7 42 24 20 28 20 49
6 30 -19 104 -20 104 -1 0 7 -11 25 -25 40 -43 46 -101 58 -161 32z m104 -208
c6 -6 12 -21 12 -33 0 -25 -14 -39 -47 -49 -30 -9 -74 32 -66 62 9 37 65 48
101 20z"/>
<path d="M38500 7712 c-51 -28 -75 -82 -75 -172 0 -56 5 -85 21 -114 37 -72
129 -98 194 -53 55 37 75 81 75 167 0 58 -5 83 -21 110 -43 74 -123 99 -194
62z m104 -75 c67 -67 20 -247 -54 -207 -26 14 -50 67 -50 110 0 57 37 118 73
120 4 0 18 -11 31 -23z"/>
<path d="M38892 7710 c-29 -18 -72 -73 -72 -92 0 -5 18 -8 40 -8 28 0 46 7 64
25 30 30 37 31 67 6 20 -16 21 -21 10 -47 -6 -16 -47 -58 -91 -94 -73 -60 -79
-68 -80 -102 l0 -38 135 0 135 0 0 35 0 35 -70 0 c-38 0 -70 3 -70 8 1 4 23
25 50 47 53 43 80 87 80 130 0 91 -113 146 -198 95z"/>
<path d="M39840 7712 c-51 -28 -75 -82 -75 -172 0 -56 5 -85 21 -114 37 -72
129 -98 194 -53 55 37 75 81 75 167 0 58 -5 83 -21 110 -43 74 -123 99 -194
62z m104 -75 c67 -67 20 -247 -54 -207 -26 14 -50 67 -50 110 0 57 37 118 73
120 4 0 18 -11 31 -23z"/>
<path d="M40232 7713 c-34 -17 -62 -58 -62 -92 0 -26 21 -71 32 -71 5 0 0 -12
-11 -26 -13 -17 -21 -41 -21 -66 0 -107 179 -147 254 -57 31 36 33 73 7 115
-16 26 -17 33 -5 49 19 26 18 85 -2 114 -34 48 -129 65 -192 34z m102 -63 c46
-17 27 -70 -25 -70 -37 0 -62 25 -49 50 9 17 24 27 42 29 4 1 18 -3 32 -9z
m23 -167 c26 -34 -24 -71 -72 -53 -37 14 -43 39 -15 62 27 21 67 17 87 -9z"/>
<path d="M4661 7629 l62 -90 -62 -90 -62 -89 45 0 c43 0 46 2 83 55 21 30 40
55 43 55 3 -1 22 -25 43 -55 36 -53 40 -55 82 -55 25 0 45 2 45 5 0 2 -27 43
-61 89 -38 54 -58 90 -53 98 4 7 29 42 54 78 68 95 67 90 17 90 -43 0 -46 -2
-82 -55 -21 -30 -41 -53 -44 -50 -4 2 -23 26 -41 54 -34 49 -37 51 -83 51
l-48 0 62 -91z"/>
<path d="M5050 7540 l0 -180 125 0 125 0 0 35 0 34 -82 3 -83 3 -3 143 -3 142
-39 0 -40 0 0 -180z"/>
<path d="M11495 7643 c-3 -43 -9 -91 -12 -107 -5 -28 -5 -28 38 -23 24 4 60 9
81 13 31 5 38 3 53 -20 20 -31 13 -59 -20 -74 -27 -12 -75 -1 -75 18 0 5 -20
10 -45 10 -25 0 -45 -3 -45 -7 0 -23 45 -76 75 -89 127 -53 250 61 190 176
-20 39 -63 60 -120 60 -42 0 -46 2 -43 23 3 20 9 22 86 25 l82 3 0 34 0 35
-119 0 -119 0 -7 -77z"/>
<path d="M25675 7614 c-69 -86 -85 -112 -85 -140 l0 -34 90 0 90 0 0 -40 c0
-40 0 -40 39 -40 39 0 40 1 43 38 3 32 7 37 31 40 24 3 27 8 27 38 0 31 -2 34
-30 34 -28 0 -30 3 -30 35 0 34 -1 35 -40 35 -39 0 -40 -1 -40 -35 0 -34 -1
-35 -42 -35 -38 0 -40 1 -26 18 76 91 148 181 148 186 0 3 -20 6 -45 6 l-44 0
-86 -106z"/>
<path d="M38168 7686 c-34 -29 -38 -38 -38 -80 l0 -48 40 32 40 32 0 -131 0
-131 40 0 40 0 0 180 0 180 -42 0 c-34 -1 -51 -8 -80 -34z"/>
<path d="M39498 7686 c-34 -29 -38 -38 -38 -80 l0 -48 40 32 40 32 0 -131 0
-131 40 0 40 0 0 180 0 180 -42 0 c-34 -1 -51 -8 -80 -34z"/>
<path d="M32360 7500 l0 -40 75 0 75 0 0 40 0 40 -75 0 -75 0 0 -40z"/>
<path d="M39210 7500 l0 -40 75 0 75 0 0 40 0 40 -75 0 -75 0 0 -40z"/>
<path d="M4505 5690 c-27 -11 -71 -60 -80 -87 -6 -21 -3 -23 37 -23 32 0 46 5
56 20 17 27 68 27 82 -1 16 -28 -3 -55 -95 -131 -68 -58 -74 -66 -75 -100 l0
-38 136 0 135 0 -3 38 -3 37 -68 3 -68 3 47 39 c25 21 55 51 65 67 22 32 24
87 6 123 -23 47 -115 74 -172 50z"/>
<path d="M11955 5690 c-27 -11 -71 -60 -80 -87 -6 -21 -3 -23 37 -23 32 0 46
5 56 20 17 27 68 27 82 -1 16 -28 -3 -55 -95 -131 -68 -58 -74 -66 -75 -100
l0 -38 136 0 135 0 -3 38 -3 37 -68 3 -68 3 47 39 c25 21 55 51 65 67 22 32
24 87 6 123 -23 47 -115 74 -172 50z"/>
<path d="M18424 5681 c-37 -22 -64 -58 -64 -83 0 -27 70 -25 93 2 20 24 69 26
88 4 20 -24 -1 -48 -47 -54 -37 -5 -39 -7 -42 -42 l-3 -38 39 0 c75 0 83 -62
9 -68 -28 -2 -39 2 -49 17 -9 15 -23 21 -51 21 -38 0 -39 -1 -32 -27 25 -101
193 -127 250 -39 22 33 22 92 -1 117 -16 18 -16 20 -1 37 22 24 22 91 1 121
-35 50 -134 66 -190 32z"/>
<path d="M18804 5681 c-37 -22 -64 -58 -64 -83 0 -27 70 -25 93 2 20 24 69 26
88 4 20 -24 -1 -48 -47 -54 -37 -5 -39 -7 -42 -42 l-3 -38 39 0 c75 0 83 -62
9 -68 -28 -2 -39 2 -49 17 -9 15 -23 21 -51 21 -38 0 -39 -1 -32 -27 25 -101
193 -127 250 -39 22 33 22 92 -1 117 -16 18 -16 20 -1 37 22 24 22 91 1 121
-35 50 -134 66 -190 32z"/>
<path d="M25284 5681 c-37 -22 -64 -58 -64 -83 0 -27 70 -25 93 2 20 24 69 26
88 4 20 -24 -1 -48 -47 -54 -37 -5 -39 -7 -42 -42 l-3 -38 39 0 c75 0 83 -62
9 -68 -28 -2 -39 2 -49 17 -9 15 -23 21 -51 21 -38 0 -39 -1 -32 -27 25 -101
193 -127 250 -39 22 33 22 92 -1 117 -16 18 -16 20 -1 37 22 24 22 91 1 121
-35 50 -134 66 -190 32z"/>
<path d="M31633 5685 c-33 -14 -63 -59 -63 -95 0 -12 7 -35 16 -51 14 -28 14
-32 -1 -49 -9 -10 -17 -34 -18 -53 -3 -124 196 -163 269 -52 19 30 14 87 -11
115 -13 15 -13 19 -1 29 39 33 19 117 -36 151 -39 23 -108 26 -155 5z m115
-77 c19 -19 14 -37 -12 -49 -36 -17 -76 -4 -76 25 0 12 3 26 7 29 11 12 68 8
81 -5z m7 -173 c0 -29 -2 -30 -44 -30 -51 0 -74 22 -51 50 9 11 26 15 54 13
38 -3 41 -5 41 -33z"/>
<path d="M32035 5690 c-27 -11 -71 -60 -80 -87 -6 -21 -3 -23 37 -23 32 0 46
5 56 20 17 27 68 27 82 -1 16 -28 -3 -55 -95 -131 -68 -58 -74 -66 -75 -100
l0 -38 136 0 135 0 -3 38 -3 37 -68 3 -68 3 47 39 c25 21 55 51 65 67 22 32
24 87 6 123 -23 47 -115 74 -172 50z"/>
<path d="M32673 5685 c-33 -14 -63 -59 -63 -95 0 -12 7 -35 16 -51 14 -28 14
-32 -1 -49 -9 -10 -17 -34 -18 -53 -3 -124 196 -163 269 -52 19 30 14 87 -11
115 -13 15 -13 19 -1 29 39 33 19 117 -36 151 -39 23 -108 26 -155 5z m115
-77 c19 -19 14 -37 -12 -49 -36 -17 -76 -4 -76 25 0 12 3 26 7 29 11 12 68 8
81 -5z m7 -173 c0 -29 -2 -30 -44 -30 -51 0 -74 22 -51 50 9 11 26 15 54 13
38 -3 41 -5 41 -33z"/>
<path d="M33063 5685 c-33 -14 -63 -59 -63 -95 0 -12 7 -35 16 -51 14 -28 14
-32 -1 -49 -9 -10 -17 -34 -18 -53 -3 -124 196 -163 269 -52 19 30 14 87 -11
115 -13 15 -13 19 -1 29 39 33 19 117 -36 151 -39 23 -108 26 -155 5z m115
-77 c19 -19 14 -37 -12 -49 -36 -17 -76 -4 -76 25 0 12 3 26 7 29 11 12 68 8
81 -5z m7 -173 c0 -29 -2 -30 -44 -30 -51 0 -74 22 -51 50 9 11 26 15 54 13
38 -3 41 -5 41 -33z"/>
<path d="M38551 5683 c-52 -27 -81 -90 -81 -173 0 -125 62 -196 163 -187 83 7
137 81 137 187 0 106 -54 180 -137 187 -33 3 -58 -1 -82 -14z m116 -93 c7 -14
13 -50 13 -80 0 -73 -17 -104 -57 -108 -45 -4 -66 31 -66 108 0 77 21 112 66
108 22 -2 35 -11 44 -28z"/>
<path d="M40181 5683 c-52 -27 -81 -90 -81 -173 0 -125 62 -196 163 -187 83 7
137 81 137 187 0 106 -54 180 -137 187 -33 3 -58 -1 -82 -14z m116 -93 c7 -14
13 -50 13 -80 0 -73 -17 -104 -57 -108 -45 -4 -66 31 -66 108 0 77 21 112 66
108 22 -2 35 -11 44 -28z"/>
<path d="M4796 5678 c4 -7 32 -48 62 -91 l54 -77 -49 -70 c-26 -39 -54 -79
-62 -90 -13 -19 -11 -20 32 -20 44 0 47 2 86 56 l40 56 31 -44 c18 -24 34 -49
37 -55 5 -13 103 -19 103 -7 0 3 -27 44 -60 90 l-61 85 61 85 c33 46 60 87 60
89 0 3 -20 5 -44 5 -43 0 -46 -2 -84 -56 l-40 -56 -38 56 c-36 55 -37 56 -86
56 -37 0 -47 -3 -42 -12z"/>
<path d="M5230 5510 l0 -180 131 0 130 0 -3 38 -3 37 -87 3 -88 3 0 139 0 140
-40 0 -40 0 0 -180z"/>
<path d="M11516 5643 c-3 -27 -8 -74 -11 -105 l-6 -58 32 0 c18 0 47 5 65 12
61 22 110 -24 77 -71 -17 -25 -65 -28 -87 -6 -15 15 -96 22 -96 8 0 -23 45
-76 75 -89 98 -41 205 18 205 114 0 74 -56 125 -137 125 -35 0 -43 4 -43 18 0
16 11 19 83 21 l82 3 3 38 3 37 -119 0 -120 0 -6 -47z"/>
<path d="M25626 5643 c-3 -27 -8 -74 -11 -105 l-6 -58 32 0 c18 0 47 5 65 12
61 22 110 -24 77 -71 -17 -25 -65 -28 -87 -6 -15 15 -96 22 -96 8 0 -23 45
-76 75 -89 98 -41 205 18 205 114 0 74 -56 125 -137 125 -35 0 -43 4 -43 18 0
16 11 19 83 21 l82 3 3 38 3 37 -119 0 -120 0 -6 -47z"/>
<path d="M38217 5657 c-33 -29 -37 -37 -37 -80 l0 -48 35 27 35 26 0 -126 0
-126 45 0 45 0 0 180 0 180 -42 0 c-34 -1 -51 -8 -81 -33z"/>
<path d="M38956 5586 c-77 -93 -86 -109 -86 -145 l0 -41 90 0 90 0 0 -35 c0
-34 1 -35 40 -35 39 0 40 1 40 34 0 30 3 35 28 38 23 3 27 8 30 41 3 35 2 37
-27 37 -29 0 -31 3 -31 35 0 34 -1 35 -40 35 -39 0 -40 -1 -40 -35 0 -34 -1
-35 -42 -35 -38 0 -40 1 -26 18 56 65 148 181 148 186 0 3 -20 6 -44 6 -44 0
-45 -1 -130 -104z"/>
<path d="M39567 5657 c-33 -29 -37 -37 -37 -80 l0 -48 35 27 35 26 0 -126 0
-126 45 0 45 0 0 180 0 180 -42 0 c-34 -1 -51 -8 -81 -33z"/>
<path d="M39847 5657 c-33 -29 -37 -37 -37 -80 l0 -48 35 27 35 26 0 -126 0
-126 45 0 45 0 0 180 0 180 -42 0 c-34 -1 -51 -8 -81 -33z"/>
<path d="M32340 5470 l0 -40 75 0 75 0 0 40 0 40 -75 0 -75 0 0 -40z"/>
<path d="M39280 5470 l0 -40 75 0 75 0 0 40 0 40 -75 0 -75 0 0 -40z"/>
</g>
</svg>
