<svg width="31" height="31" viewBox="0 0 31 31" fill="none" xmlns="http://www.w3.org/2000/svg">
<g id="View_fill">
<path id="Subtract" fill-rule="evenodd" clip-rule="evenodd" d="M26.3956 15.5C26.3956 15.044 26.149 14.7446 25.6557 14.1457C23.851 11.9546 19.8705 7.875 15.25 7.875C10.6296 7.875 6.64913 11.9546 4.84443 14.1457C4.35114 14.7446 4.10449 15.044 4.10449 15.5C4.10449 15.956 4.35114 16.2554 4.84443 16.8543C6.64913 19.0454 10.6296 23.125 15.25 23.125C19.8705 23.125 23.851 19.0454 25.6557 16.8543C26.149 16.2554 26.3956 15.956 26.3956 15.5ZM15.25 19.3125C17.3556 19.3125 19.0625 17.6056 19.0625 15.5C19.0625 13.3944 17.3556 11.6875 15.25 11.6875C13.1445 11.6875 11.4375 13.3944 11.4375 15.5C11.4375 17.6056 13.1445 19.3125 15.25 19.3125Z" fill="#717171"/>
</g>
</svg>
